HairlineItalic.ufo
<glyph name="exclam" format="1">
  <advance width="262"/>
  <unicode hex="0021"/>
  <outline>
    <contour>
      <point x="247" y="700" type="line"/>
      <point x="261" y="700" type="line"/>
      <point x="169" y="200" type="line"/>
      <point x="163" y="200" type="line"/>
    </contour>
    <contour>
      <point x="120" y="1" type="curve" smooth="yes"/>
      <point x="121" y="8"/>
      <point x="127" y="12"/>
      <point x="133" y="12" type="curve" smooth="yes"/>
      <point x="139" y="12"/>
      <point x="143" y="8"/>
      <point x="142" y="1" type="curve" smooth="yes"/>
      <point x="141" y="-6"/>
      <point x="135" y="-10"/>
      <point x="129" y="-10" type="curve" smooth="yes"/>
      <point x="123" y="-10"/>
      <point x="119" y="-6"/>
    </contour>
  </outline>
</glyph>
<glyph name="quotedbl" format="1">
  <advance width="403"/>
  <unicode hex="0022"/>
  <outline>
    <contour>
      <point x="263" y="700" type="line"/>
      <point x="276" y="700" type="line"/>
      <point x="171" y="420" type="line"/>
      <point x="164" y="420" type="line"/>
    </contour>
    <contour>
      <point x="443" y="700" type="line"/>
      <point x="456" y="700" type="line"/>
      <point x="351" y="420" type="line"/>
      <point x="344" y="420" type="line"/>
    </contour>
  </outline>
</glyph>
<glyph name="dollar" format="1">
  <advance width="580"/>
  <unicode hex="0024"/>
  <outline>
    <contour>
      <point x="392" y="818" type="line"/>
      <point x="402" y="818" type="line"/>
      <point x="381" y="700" type="line"/>
      <point x="371" y="700" type="line"/>
    </contour>
    <contour>
      <point x="250" y="-2" type="line"/>
      <point x="260" y="-2" type="line"/>
      <point x="240" y="-112" type="line"/>
      <point x="230" y="-112" type="line"/>
    </contour>
    <contour>
      <point x="526" y="548" type="line"/>
      <point x="519" y="615"/>
      <point x="482" y="697"/>
      <point x="376" y="697" type="curve" smooth="yes"/>
      <point x="286" y="697"/>
      <point x="203" y="636"/>
      <point x="188" y="550" type="curve" smooth="yes"/>
      <point x="170" y="450"/>
      <point x="258" y="399"/>
      <point x="338" y="368" type="curve" smooth="yes"/>
      <point x="417" y="338"/>
      <point x="493" y="283"/>
      <point x="474" y="175" type="curve" smooth="yes"/>
      <point x="457" y="76"/>
      <point x="393" y="-8"/>
      <point x="254" y="-8" type="curve" smooth="yes"/>
      <point x="129" y="-8"/>
      <point x="86" y="96"/>
      <point x="74" y="193" type="curve"/>
      <point x="85" y="197" type="line"/>
      <point x="96" y="103"/>
      <point x="135" y="3"/>
      <point x="256" y="3" type="curve" smooth="yes"/>
      <point x="386" y="3"/>
      <point x="446" y="77"/>
      <point x="463" y="175" type="curve" smooth="yes"/>
      <point x="481" y="278"/>
      <point x="401" y="331"/>
      <point x="330" y="359" type="curve" smooth="yes"/>
      <point x="255" y="388"/>
      <point x="158" y="442"/>
      <point x="177" y="550" type="curve" smooth="yes"/>
      <point x="194" y="646"/>
      <point x="284" y="708"/>
      <point x="378" y="708" type="curve" smooth="yes"/>
      <point x="491" y="708"/>
      <point x="531" y="621"/>
      <point x="536" y="550" type="curve"/>
    </contour>
  </outline>
</glyph>
<glyph name="parenright" format="1">
  <advance width="240"/>
  <unicode hex="0029"/>
  <outline>
    <contour>
      <point x="-0" y="-200" type="curve"/>
      <point x="-5" y="-200" type="line"/>
      <point x="98" y="-40"/>
      <point x="161" y="120"/>
      <point x="191" y="290" type="curve" smooth="yes"/>
      <point x="221" y="460"/>
      <point x="215" y="620"/>
      <point x="168" y="780" type="curve"/>
      <point x="173" y="780" type="line"/>
      <point x="227" y="630"/>
      <point x="231" y="460"/>
      <point x="201" y="290" type="curve" smooth="yes"/>
      <point x="171" y="120"/>
      <point x="106" y="-50"/>
    </contour>
  </outline>
</glyph>
<glyph name="asterisk" format="1">
  <advance width="592"/>
  <unicode hex="002A"/>
  <outline>
    <contour>
      <point x="564" y="585" type="line"/>
      <point x="565" y="573" type="line"/>
      <point x="389" y="522" type="line"/>
      <point x="387" y="528" type="line"/>
    </contour>
    <contour>
      <point x="472" y="387" type="line"/>
      <point x="461" y="380" type="line"/>
      <point x="386" y="522" type="line"/>
      <point x="391" y="527" type="line"/>
    </contour>
    <contour>
      <point x="265" y="380" type="line"/>
      <point x="256" y="387" type="line"/>
      <point x="387" y="527" type="line"/>
      <point x="390" y="522" type="line"/>
    </contour>
    <contour>
      <point x="229" y="573" type="line"/>
      <point x="234" y="585" type="line"/>
      <point x="391" y="528" type="line"/>
      <point x="387" y="522" type="line"/>
    </contour>
    <contour>
      <point x="413" y="700" type="line"/>
      <point x="425" y="700" type="line"/>
      <point x="392" y="525" type="line"/>
      <point x="386" y="525" type="line"/>
    </contour>
  </outline>
</glyph>
<glyph name="plus" format="1">
  <advance width="550"/>
  <unicode hex="002B"/>
  <outline>
    <contour>
      <point x="109" y="250" type="line"/>
      <point x="111" y="260" type="line"/>
      <point x="521" y="260" type="line"/>
      <point x="519" y="250" type="line"/>
    </contour>
    <contour>
      <point x="350" y="480" type="line"/>
      <point x="360" y="480" type="line"/>
      <point x="280" y="30" type="line"/>
      <point x="270" y="30" type="line"/>
    </contour>
  </outline>
</glyph>
<glyph name="hyphen" format="1">
  <advance width="210"/>
  <unicode hex="002D"/>
  <outline>
    <contour>
      <point x="52" y="265" type="line"/>
      <point x="53" y="275" type="line"/>
      <point x="253" y="275" type="line"/>
      <point x="252" y="265" type="line"/>
    </contour>
  </outline>
</glyph>
<glyph name="slash" format="1">
  <advance width="475"/>
  <unicode hex="002F"/>
  <outline>
    <contour>
      <point x="571" y="700" type="line"/>
      <point x="583" y="700" type="line"/>
      <point x="1" y="-150" type="line"/>
      <point x="-11" y="-150" type="line"/>
    </contour>
  </outline>
</glyph>
<glyph name="zero" format="1">
  <advance width="550"/>
  <unicode hex="0030"/>
  <outline>
    <contour>
      <point x="128" y="350" type="curve" smooth="yes"/>
      <point x="95" y="163"/>
      <point x="143" y="0"/>
      <point x="275" y="0" type="curve" smooth="yes"/>
      <point x="407" y="0"/>
      <point x="513" y="163"/>
      <point x="546" y="350" type="curve" smooth="yes"/>
      <point x="579" y="537"/>
      <point x="530" y="700"/>
      <point x="398" y="700" type="curve" smooth="yes"/>
      <point x="266" y="700"/>
      <point x="161" y="537"/>
    </contour>
    <contour>
      <point x="117" y="350" type="curve" smooth="yes"/>
      <point x="152" y="549"/>
      <point x="261" y="710"/>
      <point x="400" y="710" type="curve" smooth="yes"/>
      <point x="539" y="710"/>
      <point x="592" y="549"/>
      <point x="557" y="350" type="curve" smooth="yes"/>
      <point x="522" y="151"/>
      <point x="412" y="-10"/>
      <point x="273" y="-10" type="curve" smooth="yes"/>
      <point x="134" y="-10"/>
      <point x="82" y="151"/>
    </contour>
  </outline>
</glyph>
<glyph name="one" format="1">
  <advance width="410"/>
  <unicode hex="0031"/>
  <outline>
    <contour>
      <point x="210" y="654" type="line"/>
      <point x="212" y="665" type="line"/>
      <point x="399" y="705" type="line"/>
      <point x="275" y="0" type="line"/>
      <point x="265" y="0" type="line"/>
      <point x="387" y="691" type="line"/>
    </contour>
  </outline>
</glyph>
<glyph name="two" format="1">
  <advance width="514"/>
  <unicode hex="0032"/>
  <outline>
    <contour>
      <point x="25" y="0" type="line"/>
      <point x="404" y="334" type="line" smooth="yes"/>
      <point x="462" y="385"/>
      <point x="517" y="435"/>
      <point x="532" y="519" type="curve" smooth="yes"/>
      <point x="546" y="598"/>
      <point x="516" y="701"/>
      <point x="386" y="701" type="curve" smooth="yes"/>
      <point x="266" y="701"/>
      <point x="171" y="601"/>
      <point x="146" y="460" type="curve"/>
      <point x="136" y="460" type="line"/>
      <point x="162" y="609"/>
      <point x="262" y="711"/>
      <point x="387" y="711" type="curve" smooth="yes"/>
      <point x="521" y="711"/>
      <point x="558" y="603"/>
      <point x="543" y="519" type="curve" smooth="yes"/>
      <point x="529" y="437"/>
      <point x="471" y="380"/>
      <point x="412" y="328" type="curve" smooth="yes"/>
      <point x="52" y="10" type="line"/>
      <point x="481" y="10" type="line"/>
      <point x="479" y="0" type="line"/>
    </contour>
  </outline>
</glyph>
<glyph name="four" format="1">
  <advance width="553"/>
  <unicode hex="0034"/>
  <outline>
    <contour>
      <point x="50" y="140" type="line"/>
      <point x="61" y="150" type="line"/>
      <point x="428" y="150" type="line" smooth="yes"/>
      <point x="431" y="150" type="line" smooth="yes"/>
      <point x="544" y="150" type="line"/>
      <point x="543" y="140" type="line"/>
    </contour>
    <contour>
      <point x="62" y="140" type="line"/>
      <point x="50" y="140" type="line"/>
      <point x="531" y="700" type="line"/>
      <point x="532" y="700" type="line"/>
      <point x="409" y="0" type="line"/>
      <point x="398" y="0" type="line"/>
      <point x="423" y="142" type="line" smooth="yes"/>
      <point x="424" y="147" type="line" smooth="yes"/>
      <point x="515" y="666" type="line"/>
    </contour>
  </outline>
</glyph>
<glyph name="five" format="1">
  <advance width="557"/>
  <unicode hex="0035"/>
  <outline>
    <contour>
      <point x="530" y="230" type="curve" smooth="yes"/>
      <point x="502" y="71"/>
      <point x="387" y="-10"/>
      <point x="262" y="-10" type="curve" smooth="yes"/>
      <point x="153" y="-10"/>
      <point x="99" y="47"/>
      <point x="79" y="137" type="curve"/>
      <point x="89" y="142" type="line"/>
      <point x="109" y="54"/>
      <point x="159" y="0"/>
      <point x="264" y="0" type="curve" smooth="yes"/>
      <point x="384" y="0"/>
      <point x="493" y="79"/>
      <point x="520" y="230" type="curve" smooth="yes"/>
      <point x="541" y="351"/>
      <point x="472" y="436"/>
      <point x="367" y="436" type="curve" smooth="yes"/>
      <point x="280" y="436"/>
      <point x="206" y="397"/>
      <point x="143" y="327" type="curve"/>
      <point x="166" y="359" type="line"/>
      <point x="204" y="404"/>
      <point x="280" y="446"/>
      <point x="369" y="446" type="curve" smooth="yes"/>
      <point x="479" y="446"/>
      <point x="553" y="359"/>
    </contour>
    <contour>
      <point x="306" y="690" type="line"/>
      <point x="166" y="359" type="line"/>
      <point x="143" y="327" type="line"/>
      <point x="300" y="700" type="line"/>
      <point x="630" y="700" type="line"/>
      <point x="629" y="690" type="line"/>
    </contour>
  </outline>
</glyph>
<glyph name="nine" format="1">
  <advance width="536"/>
  <unicode hex="0039"/>
  <outline>
    <contour>
      <point x="561" y="480" type="curve" smooth="yes"/>
      <point x="583" y="606"/>
      <point x="516" y="700"/>
      <point x="391" y="700" type="curve" smooth="yes"/>
      <point x="266" y="700"/>
      <point x="167" y="606"/>
      <point x="145" y="480" type="curve" smooth="yes"/>
      <point x="125" y="364"/>
      <point x="200" y="273"/>
      <point x="305" y="273" type="curve" smooth="yes"/>
      <point x="445" y="273"/>
      <point x="542" y="374"/>
    </contour>
    <contour>
      <point x="206" y="0" type="line"/>
      <point x="194" y="0" type="line"/>
      <point x="497" y="345" type="line"/>
      <point x="497" y="345" type="line"/>
      <point x="446" y="293"/>
      <point x="378" y="263"/>
      <point x="303" y="263" type="curve" smooth="yes"/>
      <point x="189" y="263"/>
      <point x="114" y="361"/>
      <point x="135" y="480" type="curve" smooth="yes"/>
      <point x="159" y="614"/>
      <point x="258" y="710"/>
      <point x="393" y="710" type="curve" smooth="yes"/>
      <point x="528" y="710"/>
      <point x="595" y="614"/>
      <point x="571" y="480" type="curve" smooth="yes"/>
      <point x="561" y="423"/>
      <point x="521" y="358"/>
      <point x="487" y="321" type="curve" smooth="yes"/>
    </contour>
  </outline>
</glyph>
<glyph name="colon" format="1">
  <advance width="300"/>
  <unicode hex="003A"/>
  <outline>
    <contour>
      <point x="119" y="1" type="curve" smooth="yes"/>
      <point x="120" y="8"/>
      <point x="126" y="12"/>
      <point x="132" y="12" type="curve" smooth="yes"/>
      <point x="138" y="12"/>
      <point x="142" y="8"/>
      <point x="141" y="1" type="curve" smooth="yes"/>
      <point x="140" y="-6"/>
      <point x="134" y="-10"/>
      <point x="128" y="-10" type="curve" smooth="yes"/>
      <point x="122" y="-10"/>
      <point x="118" y="-6"/>
    </contour>
    <contour>
      <point x="181" y="349" type="curve" smooth="yes"/>
      <point x="182" y="356"/>
      <point x="187" y="360"/>
      <point x="193" y="360" type="curve" smooth="yes"/>
      <point x="199" y="360"/>
      <point x="204" y="356"/>
      <point x="203" y="349" type="curve" smooth="yes"/>
      <point x="202" y="342"/>
      <point x="196" y="338"/>
      <point x="190" y="338" type="curve" smooth="yes"/>
      <point x="184" y="338"/>
      <point x="180" y="342"/>
    </contour>
  </outline>
</glyph>
<glyph name="semicolon" format="1">
  <advance width="276"/>
  <unicode hex="003B"/>
  <outline>
    <contour>
      <point x="211" y="349" type="curve" smooth="yes"/>
      <point x="212" y="356"/>
      <point x="217" y="360"/>
      <point x="223" y="360" type="curve" smooth="yes"/>
      <point x="229" y="360"/>
      <point x="234" y="356"/>
      <point x="233" y="349" type="curve" smooth="yes"/>
      <point x="232" y="342"/>
      <point x="226" y="338"/>
      <point x="220" y="338" type="curve" smooth="yes"/>
      <point x="214" y="338"/>
      <point x="210" y="342"/>
    </contour>
    <contour>
      <point x="192" y="94" type="line"/>
      <point x="202" y="89" type="line"/>
      <point x="48" y="-161" type="line"/>
      <point x="42" y="-159" type="line"/>
    </contour>
  </outline>
</glyph>
<glyph name="less" format="1">
  <advance width="640"/>
  <unicode hex="003C"/>
  <outline>
    <contour>
      <point x="127" y="257" type="line"/>
      <point x="585" y="55" type="line"/>
      <point x="583" y="45" type="line"/>
      <point x="110" y="254" type="line"/>
      <point x="111" y="260" type="line"/>
      <point x="658" y="470" type="line"/>
      <point x="656" y="460" type="line"/>
    </contour>
  </outline>
</glyph>
<glyph name="greater" format="1">
  <advance width="640"/>
  <unicode hex="003E"/>
  <outline>
    <contour>
      <point x="603" y="258" type="line"/>
      <point x="146" y="460" type="line"/>
      <point x="148" y="470" type="line"/>
      <point x="621" y="261" type="line"/>
      <point x="620" y="255" type="line"/>
      <point x="73" y="45" type="line"/>
      <point x="75" y="55" type="line"/>
    </contour>
  </outline>
</glyph>
<glyph name="question" format="1">
  <advance width="542"/>
  <unicode hex="003F"/>
  <outline>
    <contour>
      <point x="214" y="1" type="curve" smooth="yes"/>
      <point x="215" y="8"/>
      <point x="221" y="12"/>
      <point x="227" y="12" type="curve" smooth="yes"/>
      <point x="233" y="12"/>
      <point x="237" y="8"/>
      <point x="236" y="1" type="curve" smooth="yes"/>
      <point x="235" y="-6"/>
      <point x="229" y="-10"/>
      <point x="223" y="-10" type="curve" smooth="yes"/>
      <point x="217" y="-10"/>
      <point x="213" y="-6"/>
    </contour>
    <contour>
      <point x="283" y="345" type="line"/>
      <point x="295" y="345" type="line"/>
      <point x="265" y="170" type="line"/>
      <point x="257" y="170" type="line"/>
    </contour>
    <contour>
      <point x="544" y="520" type="curve" smooth="yes"/>
      <point x="562" y="621"/>
      <point x="507" y="700"/>
      <point x="387" y="700" type="curve" smooth="yes"/>
      <point x="295" y="700"/>
      <point x="234" y="656"/>
      <point x="178" y="587" type="curve"/>
      <point x="170" y="593" type="line"/>
      <point x="228" y="663"/>
      <point x="290" y="710"/>
      <point x="389" y="710" type="curve" smooth="yes"/>
      <point x="514" y="710"/>
      <point x="573" y="629"/>
      <point x="554" y="520" type="curve" smooth="yes"/>
      <point x="537" y="421"/>
      <point x="419" y="337"/>
      <point x="289" y="337" type="curve"/>
      <point x="283" y="345" type="line"/>
      <point x="413" y="345"/>
      <point x="527" y="424"/>
    </contour>
  </outline>
</glyph>
<glyph name="A" format="1">
  <advance width="600"/>
  <unicode hex="0041"/>
  <outline>
    <contour>
      <point x="175" y="272" type="line"/>
      <point x="177" y="282" type="line"/>
      <point x="522" y="282" type="line"/>
      <point x="520" y="272" type="line"/>
    </contour>
    <contour>
      <point x="421" y="688" type="line"/>
      <point x="185" y="277" type="line"/>
      <point x="183" y="273" type="line"/>
      <point x="27" y="0" type="line"/>
      <point x="15" y="0" type="line"/>
      <point x="426" y="715" type="line"/>
      <point x="585" y="0" type="line"/>
      <point x="573" y="0" type="line"/>
      <point x="514" y="273" type="line"/>
      <point x="514" y="276" type="line"/>
    </contour>
  </outline>
</glyph>
<glyph name="C" format="1">
  <advance width="685"/>
  <unicode hex="0043"/>
  <outline>
    <contour>
      <point x="124" y="350" type="curve" smooth="yes"/>
      <point x="89" y="150"/>
      <point x="194" y="4"/>
      <point x="381" y="4" type="curve" smooth="yes"/>
      <point x="480" y="4"/>
      <point x="553" y="31"/>
      <point x="621" y="88" type="curve"/>
      <point x="618" y="72" type="line"/>
      <point x="550" y="20"/>
      <point x="481" y="-8"/>
      <point x="379" y="-8" type="curve" smooth="yes"/>
      <point x="185" y="-8"/>
      <point x="75" y="141"/>
      <point x="112" y="350" type="curve" smooth="yes"/>
      <point x="149" y="559"/>
      <point x="311" y="708"/>
      <point x="505" y="708" type="curve" smooth="yes"/>
      <point x="607" y="708"/>
      <point x="666" y="680"/>
      <point x="716" y="628" type="curve"/>
      <point x="713" y="613" type="line"/>
      <point x="667" y="669"/>
      <point x="597" y="696"/>
      <point x="503" y="696" type="curve" smooth="yes"/>
      <point x="317" y="696"/>
      <point x="160" y="553"/>
    </contour>
  </outline>
</glyph>
<glyph name="K" format="1">
  <advance width="454"/>
  <unicode hex="004B"/>
  <outline>
    <contour>
      <point x="208" y="700" type="line"/>
      <point x="219" y="700" type="line"/>
      <point x="96" y="0" type="line"/>
      <point x="85" y="0" type="line"/>
    </contour>
    <contour>
      <point x="531" y="700" type="line"/>
      <point x="547" y="700" type="line"/>
      <point x="175" y="372" type="line"/>
      <point x="439" y="0" type="line"/>
      <point x="422" y="0" type="line"/>
      <point x="160" y="372" type="line"/>
    </contour>
  </outline>
</glyph>
<glyph name="W" format="1">
  <advance width="950"/>
  <unicode hex="0057"/>
  <outline>
    <contour>
      <point x="262" y="10" type="line"/>
      <point x="252" y="-15" type="line"/>
      <point x="143" y="700" type="line"/>
      <point x="154" y="700" type="line"/>
    </contour>
    <contour>
      <point x="692" y="-15" type="line"/>
      <point x="692" y="10" type="line"/>
      <point x="1042" y="700" type="line"/>
      <point x="1053" y="700" type="line"/>
    </contour>
    <contour>
      <point x="252" y="-15" type="line"/>
      <point x="257" y="20" type="line"/>
      <point x="601" y="715" type="line"/>
      <point x="701" y="20" type="line"/>
      <point x="692" y="-15" type="line"/>
      <point x="594" y="677" type="line"/>
    </contour>
  </outline>
</glyph>
<glyph name="Y" format="1">
  <advance width="507"/>
  <unicode hex="0059"/>
  <outline>
    <contour>
      <point x="291" y="275" type="line"/>
      <point x="302" y="275" type="line"/>
      <point x="254" y="0" type="line"/>
      <point x="243" y="0" type="line"/>
    </contour>
    <contour>
      <point x="602" y="700" type="line"/>
      <point x="615" y="700" type="line"/>
      <point x="293" y="256" type="line"/>
      <point x="138" y="700" type="line"/>
      <point x="151" y="700" type="line"/>
      <point x="298" y="281" type="line"/>
    </contour>
  </outline>
</glyph>
<glyph name="Z" format="1">
  <advance width="535"/>
  <unicode hex="005A"/>
  <outline>
    <contour>
      <point x="161" y="689" type="line"/>
      <point x="163" y="700" type="line"/>
      <point x="643" y="700" type="line"/>
      <point x="44" y="11" type="line"/>
      <point x="512" y="11" type="line"/>
      <point x="510" y="0" type="line"/>
      <point x="20" y="0" type="line"/>
      <point x="619" y="689" type="line"/>
    </contour>
  </outline>
</glyph>
<glyph name="bracketleft" format="1">
  <advance width="260"/>
  <unicode hex="005B"/>
  <outline>
    <contour>
      <point x="247" y="769" type="line"/>
      <point x="74" y="-209" type="line"/>
      <point x="203" y="-209" type="line"/>
      <point x="201" y="-220" type="line"/>
      <point x="61" y="-220" type="line"/>
      <point x="238" y="780" type="line"/>
      <point x="378" y="780" type="line"/>
      <point x="376" y="769" type="line"/>
    </contour>
  </outline>
</glyph>
<glyph name="backslash" format="1">
  <advance width="435"/>
  <unicode hex="005C"/>
  <outline>
    <contour>
      <point x="138" y="700" type="line"/>
      <point x="151" y="700" type="line"/>
      <point x="420" y="0" type="line"/>
      <point x="407" y="0" type="line"/>
    </contour>
  </outline>
</glyph>
<glyph name="asciicircum" format="1">
  <advance width="510"/>
  <unicode hex="005E"/>
  <outline>
    <contour>
      <point x="377" y="693" type="line"/>
      <point x="161" y="460" type="line"/>
      <point x="146" y="460" type="line"/>
      <point x="380" y="710" type="line"/>
      <point x="380" y="710" type="line"/>
      <point x="526" y="460" type="line"/>
      <point x="511" y="460" type="line"/>
    </contour>
  </outline>
</glyph>
<glyph name="grave" format="1">
  <advance width="353"/>
  <unicode hex="0060"/>
  <outline>
    <contour>
      <point x="222" y="692" type="line"/>
      <point x="231" y="700" type="line"/>
      <point x="373" y="540" type="line"/>
      <point x="367" y="535" type="line"/>
    </contour>
  </outline>
</glyph>
<glyph name="i" format="1">
  <advance width="190"/>
  <unicode hex="0069"/>
  <outline>
    <contour>
      <point x="208" y="695" type="curve" smooth="yes"/>
      <point x="209" y="701"/>
      <point x="212" y="705"/>
      <point x="219" y="705" type="curve" smooth="yes"/>
      <point x="226" y="705"/>
      <point x="229" y="701"/>
      <point x="228" y="695" type="curve" smooth="yes"/>
      <point x="227" y="689"/>
      <point x="223" y="685"/>
      <point x="216" y="685" type="curve" smooth="yes"/>
      <point x="209" y="685"/>
      <point x="207" y="689"/>
    </contour>
    <contour>
      <point x="171" y="460" type="line"/>
      <point x="181" y="460" type="line"/>
      <point x="100" y="0" type="line"/>
      <point x="90" y="0" type="line"/>
    </contour>
  </outline>
</glyph>
<glyph name="j" format="1">
  <advance width="180"/>
  <unicode hex="006A"/>
  <outline>
    <contour>
      <point x="198" y="695" type="curve" smooth="yes"/>
      <point x="199" y="701"/>
      <point x="202" y="705"/>
      <point x="209" y="705" type="curve" smooth="yes"/>
      <point x="216" y="705"/>
      <point x="219" y="701"/>
      <point x="218" y="695" type="curve" smooth="yes"/>
      <point x="217" y="689"/>
      <point x="213" y="685"/>
      <point x="206" y="685" type="curve" smooth="yes"/>
      <point x="199" y="685"/>
      <point x="197" y="689"/>
    </contour>
    <contour>
      <point x="-125" y="-165" type="line"/>
      <point x="-113" y="-185"/>
      <point x="-92" y="-210"/>
      <point x="-55" y="-210" type="curve" smooth="yes"/>
      <point x="25" y="-210"/>
      <point x="56" y="-138"/>
      <point x="66" y="-82" type="curve" smooth="yes"/>
      <point x="161" y="460" type="line"/>
      <point x="171" y="460" type="line"/>
      <point x="76" y="-82" type="line" smooth="yes"/>
      <point x="64" y="-151"/>
      <point x="27" y="-220"/>
      <point x="-57" y="-220" type="curve" smooth="yes"/>
      <point x="-100" y="-220"/>
      <point x="-122" y="-192"/>
      <point x="-133" y="-172" type="curve"/>
    </contour>
  </outline>
</glyph>
<glyph name="k" format="1">
  <advance width="372"/>
  <unicode hex="006B"/>
  <outline>
    <contour>
      <point x="218" y="780" type="line"/>
      <point x="228" y="780" type="line"/>
      <point x="90" y="0" type="line"/>
      <point x="80" y="0" type="line"/>
    </contour>
    <contour>
      <point x="409" y="460" type="line"/>
      <point x="425" y="460" type="line"/>
      <point x="150" y="270" type="line"/>
      <point x="362" y="0" type="line"/>
      <point x="348" y="0" type="line"/>
      <point x="136" y="270" type="line"/>
    </contour>
  </outline>
</glyph>
<glyph name="m" format="1">
  <advance width="690"/>
  <unicode hex="006D"/>
  <outline>
    <contour>
      <point x="396" y="320" type="line" smooth="yes"/>
      <point x="410" y="401"/>
      <point x="388" y="460"/>
      <point x="318" y="460" type="curve" smooth="yes"/>
      <point x="248" y="460"/>
      <point x="161" y="376"/>
      <point x="144" y="280" type="curve"/>
      <point x="139" y="280" type="line"/>
      <point x="158" y="389"/>
      <point x="245" y="470"/>
      <point x="320" y="470" type="curve" smooth="yes"/>
      <point x="395" y="470"/>
      <point x="422" y="409"/>
      <point x="406" y="320" type="curve" smooth="yes"/>
      <point x="350" y="0" type="line"/>
      <point x="340" y="0" type="line"/>
    </contour>
    <contour>
      <point x="176" y="460" type="line"/>
      <point x="95" y="0" type="line"/>
      <point x="85" y="0" type="line"/>
      <point x="166" y="460" type="line"/>
    </contour>
    <contour>
      <point x="661" y="320" type="curve" smooth="yes"/>
      <point x="605" y="0" type="line"/>
      <point x="595" y="0" type="line"/>
      <point x="651" y="320" type="line" smooth="yes"/>
      <point x="665" y="401"/>
      <point x="643" y="460"/>
      <point x="573" y="460" type="curve" smooth="yes"/>
      <point x="502" y="460"/>
      <point x="416" y="375"/>
      <point x="399" y="280" type="curve"/>
      <point x="392" y="280" type="line"/>
      <point x="411" y="389"/>
      <point x="500" y="470"/>
      <point x="575" y="470" type="curve" smooth="yes"/>
      <point x="650" y="470"/>
      <point x="677" y="409"/>
    </contour>
  </outline>
</glyph>
<glyph name="v" format="1">
  <advance width="420"/>
  <unicode hex="0076"/>
  <outline>
    <contour>
      <point x="91" y="460" type="line"/>
      <point x="103" y="460" type="line"/>
      <point x="212" y="10" type="line"/>
      <point x="479" y="460" type="line"/>
      <point x="491" y="460" type="line"/>
      <point x="207" y="-15" type="line"/>
    </contour>
  </outline>
</glyph>
<glyph name="w" format="1">
  <advance width="620"/>
  <unicode hex="0077"/>
  <outline>
    <contour>
      <point x="676" y="460" type="line"/>
      <point x="686" y="460" type="line"/>
      <point x="455" y="-15" type="line"/>
      <point x="461" y="18" type="line"/>
    </contour>
    <contour>
      <point x="383" y="441" type="line"/>
      <point x="389" y="475" type="line"/>
      <point x="461" y="18" type="line"/>
      <point x="455" y="-15" type="line"/>
    </contour>
    <contour>
      <point x="389" y="475" type="line"/>
      <point x="383" y="441" type="line"/>
      <point x="159" y="-15" type="line"/>
      <point x="165" y="18" type="line"/>
    </contour>
    <contour>
      <point x="96" y="460" type="line"/>
      <point x="106" y="460" type="line"/>
      <point x="165" y="18" type="line"/>
      <point x="159" y="-15" type="line"/>
    </contour>
  </outline>
</glyph>
<glyph name="z" format="1">
  <advance width="430"/>
  <unicode hex="007A"/>
  <outline>
    <contour>
      <point x="458" y="450" type="line"/>
      <point x="119" y="450" type="line"/>
      <point x="121" y="460" type="line"/>
      <point x="481" y="460" type="line"/>
      <point x="43" y="10" type="line"/>
      <point x="412" y="10" type="line"/>
      <point x="410" y="0" type="line"/>
      <point x="20" y="0" type="line"/>
    </contour>
  </outline>
</glyph>
<glyph name="exclamdown" format="1">
  <advance width="300"/>
  <unicode hex="00A1"/>
  <outline>
    <contour>
      <point x="133" y="-245" type="line"/>
      <point x="119" y="-245" type="line"/>
      <point x="211" y="255" type="line"/>
      <point x="217" y="255" type="line"/>
    </contour>
    <contour>
      <point x="260" y="454" type="curve" smooth="yes"/>
      <point x="259" y="447"/>
      <point x="253" y="443"/>
      <point x="247" y="443" type="curve" smooth="yes"/>
      <point x="241" y="443"/>
      <point x="237" y="447"/>
      <point x="238" y="454" type="curve" smooth="yes"/>
      <point x="239" y="461"/>
      <point x="245" y="465"/>
      <point x="251" y="465" type="curve" smooth="yes"/>
      <point x="257" y="465"/>
      <point x="261" y="461"/>
    </contour>
  </outline>
</glyph>
<glyph name="cent" format="1">
  <advance width="580"/>
  <unicode hex="00A2"/>
  <outline>
    <contour>
      <point x="315" y="-4" type="line"/>
      <point x="319" y="-4" type="line"/>
      <point x="305" y="-112" type="line"/>
      <point x="291" y="-112" type="line"/>
    </contour>
    <contour>
      <point x="137" y="230" type="curve" smooth="yes"/>
      <point x="114" y="99"/>
      <point x="192" y="0"/>
      <point x="319" y="0" type="curve" smooth="yes"/>
      <point x="393" y="0"/>
      <point x="460" y="36"/>
      <point x="485" y="61" type="curve"/>
      <point x="482" y="48" type="line"/>
      <point x="456" y="23"/>
      <point x="390" y="-10"/>
      <point x="317" y="-10" type="curve" smooth="yes"/>
      <point x="185" y="-10"/>
      <point x="102" y="91"/>
      <point x="127" y="230" type="curve" smooth="yes"/>
      <point x="152" y="369"/>
      <point x="270" y="470"/>
      <point x="402" y="470" type="curve" smooth="yes"/>
      <point x="475" y="470"/>
      <point x="530" y="436"/>
      <point x="547" y="412" type="curve"/>
      <point x="544" y="399" type="line"/>
      <point x="527" y="424"/>
      <point x="474" y="460"/>
      <point x="400" y="460" type="curve" smooth="yes"/>
      <point x="273" y="460"/>
      <point x="160" y="361"/>
    </contour>
    <contour>
      <point x="413" y="578" type="line"/>
      <point x="427" y="578" type="line"/>
      <point x="402" y="463" type="line"/>
      <point x="398" y="463" type="line"/>
    </contour>
  </outline>
</glyph>
<glyph name="currency" format="1">
  <advance width="560"/>
  <unicode hex="00A4"/>
  <outline>
    <contour>
      <point x="149" y="523" type="line"/>
      <point x="161" y="533" type="line"/>
      <point x="213" y="469" type="line"/>
      <point x="202" y="460" type="line"/>
    </contour>
    <contour>
      <point x="79" y="67" type="line"/>
      <point x="71" y="77" type="line"/>
      <point x="146" y="140" type="line"/>
      <point x="153" y="131" type="line"/>
    </contour>
    <contour>
      <point x="530" y="460" type="line"/>
      <point x="522" y="469" type="line"/>
      <point x="597" y="533" type="line"/>
      <point x="604" y="523" type="line"/>
    </contour>
    <contour>
      <point x="462" y="131" type="line"/>
      <point x="474" y="140" type="line"/>
      <point x="526" y="77" type="line"/>
      <point x="515" y="67" type="line"/>
    </contour>
    <contour>
      <point x="105" y="300" type="curve" smooth="yes"/>
      <point x="130" y="439"/>
      <point x="250" y="540"/>
      <point x="375" y="540" type="curve" smooth="yes"/>
      <point x="500" y="540"/>
      <point x="586" y="439"/>
      <point x="561" y="300" type="curve" smooth="yes"/>
      <point x="536" y="161"/>
      <point x="416" y="60"/>
      <point x="291" y="60" type="curve" smooth="yes"/>
      <point x="166" y="60"/>
      <point x="80" y="161"/>
    </contour>
    <contour>
      <point x="115" y="300" type="curve" smooth="yes"/>
      <point x="92" y="169"/>
      <point x="172" y="70"/>
      <point x="292" y="70" type="curve" smooth="yes"/>
      <point x="412" y="70"/>
      <point x="528" y="169"/>
      <point x="551" y="300" type="curve" smooth="yes"/>
      <point x="574" y="431"/>
      <point x="493" y="530"/>
      <point x="373" y="530" type="curve" smooth="yes"/>
      <point x="253" y="530"/>
      <point x="138" y="431"/>
    </contour>
  </outline>
</glyph>
<glyph name="brokenbar" format="1">
  <advance width="210"/>
  <unicode hex="00A6"/>
  <outline>
    <contour>
      <point x="223" y="695" type="line"/>
      <point x="233" y="695" type="line"/>
      <point x="190" y="455" type="line"/>
      <point x="180" y="455" type="line"/>
    </contour>
    <contour>
      <point x="153" y="245" type="line"/>
      <point x="111" y="5" type="line"/>
      <point x="101" y="5" type="line"/>
      <point x="143" y="245" type="line"/>
    </contour>
  </outline>
</glyph>
<glyph name="section" format="1">
  <advance width="398"/>
  <unicode hex="00A7"/>
  <outline>
    <contour>
      <point x="466" y="616" type="line"/>
      <point x="455" y="665"/>
      <point x="390" y="700"/>
      <point x="326" y="700" type="curve" smooth="yes"/>
      <point x="266" y="700"/>
      <point x="188" y="670"/>
      <point x="175" y="599" type="curve" smooth="yes"/>
      <point x="163" y="530"/>
      <point x="261" y="504"/>
      <point x="308" y="483" type="curve" smooth="yes"/>
      <point x="368" y="456"/>
      <point x="443" y="427"/>
      <point x="431" y="360" type="curve" smooth="yes"/>
      <point x="417" y="281"/>
      <point x="346" y="240"/>
      <point x="247" y="240" type="curve"/>
      <point x="247" y="240" type="line"/>
      <point x="340" y="255"/>
      <point x="409" y="290"/>
      <point x="421" y="360" type="curve" smooth="yes"/>
      <point x="432" y="420"/>
      <point x="349" y="454"/>
      <point x="300" y="475" type="curve" smooth="yes"/>
      <point x="241" y="500"/>
      <point x="151" y="522"/>
      <point x="165" y="599" type="curve" smooth="yes"/>
      <point x="178" y="675"/>
      <point x="254" y="710"/>
      <point x="328" y="710" type="curve" smooth="yes"/>
      <point x="401" y="710"/>
      <point x="464" y="671"/>
      <point x="473" y="620" type="curve"/>
    </contour>
    <contour>
      <point x="60" y="127" type="line"/>
      <point x="61" y="61"/>
      <point x="128" y="0"/>
      <point x="215" y="0" type="curve" smooth="yes"/>
      <point x="275" y="0"/>
      <point x="362" y="20"/>
      <point x="376" y="100" type="curve" smooth="yes"/>
      <point x="390" y="180"/>
      <point x="308" y="206"/>
      <point x="250" y="233" type="curve" smooth="yes"/>
      <point x="193" y="260"/>
      <point x="110" y="292"/>
      <point x="122" y="359" type="curve" smooth="yes"/>
      <point x="132" y="415"/>
      <point x="194" y="480"/>
      <point x="308" y="480" type="curve"/>
      <point x="308" y="480" type="line"/>
      <point x="206" y="470"/>
      <point x="141" y="410"/>
      <point x="132" y="359" type="curve" smooth="yes"/>
      <point x="121" y="296"/>
      <point x="211" y="262"/>
      <point x="258" y="241" type="curve" smooth="yes"/>
      <point x="318" y="214"/>
      <point x="401" y="187"/>
      <point x="386" y="100" type="curve" smooth="yes"/>
      <point x="372" y="21"/>
      <point x="292" y="-10"/>
      <point x="213" y="-10" type="curve" smooth="yes"/>
      <point x="128" y="-10"/>
      <point x="53" y="48"/>
      <point x="52" y="123" type="curve"/>
    </contour>
  </outline>
</glyph>
<glyph name="copyright" format="1">
  <advance width="800"/>
  <unicode hex="00A9"/>
  <outline>
    <contour>
      <point x="260" y="350" type="curve" smooth="yes"/>
      <point x="239" y="230"/>
      <point x="302" y="142"/>
      <point x="414" y="142" type="curve" smooth="yes"/>
      <point x="473" y="142"/>
      <point x="517" y="159"/>
      <point x="558" y="193" type="curve"/>
      <point x="556" y="183" type="line"/>
      <point x="516" y="152"/>
      <point x="474" y="135"/>
      <point x="413" y="135" type="curve" smooth="yes"/>
      <point x="297" y="135"/>
      <point x="231" y="225"/>
      <point x="253" y="350" type="curve" smooth="yes"/>
      <point x="275" y="475"/>
      <point x="373" y="565"/>
      <point x="489" y="565" type="curve" smooth="yes"/>
      <point x="550" y="565"/>
      <point x="585" y="548"/>
      <point x="615" y="517" type="curve"/>
      <point x="614" y="508" type="line"/>
      <point x="586" y="542"/>
      <point x="543" y="558"/>
      <point x="487" y="558" type="curve" smooth="yes"/>
      <point x="375" y="558"/>
      <point x="282" y="472"/>
    </contour>
    <contour>
      <point x="112" y="350" type="curve" smooth="yes"/>
      <point x="76" y="147"/>
      <point x="207" y="0"/>
      <point x="400" y="0" type="curve" smooth="yes"/>
      <point x="593" y="0"/>
      <point x="776" y="147"/>
      <point x="812" y="350" type="curve" smooth="yes"/>
      <point x="848" y="553"/>
      <point x="716" y="700"/>
      <point x="523" y="700" type="curve" smooth="yes"/>
      <point x="330" y="700"/>
      <point x="148" y="553"/>
    </contour>
    <contour>
      <point x="102" y="350" type="curve" smooth="yes"/>
      <point x="139" y="559"/>
      <point x="321" y="710"/>
      <point x="525" y="710" type="curve" smooth="yes"/>
      <point x="729" y="710"/>
      <point x="859" y="559"/>
      <point x="822" y="350" type="curve" smooth="yes"/>
      <point x="785" y="141"/>
      <point x="602" y="-10"/>
      <point x="398" y="-10" type="curve" smooth="yes"/>
      <point x="194" y="-10"/>
      <point x="65" y="141"/>
    </contour>
  </outline>
</glyph>
<glyph name="ordfeminine" format="1">
  <advance width="238"/>
  <unicode hex="00AA"/>
  <outline>
    <contour>
      <point x="123" y="528" type="curve" smooth="yes"/>
      <point x="114" y="479"/>
      <point x="148" y="460"/>
      <point x="183" y="460" type="curve" smooth="yes"/>
      <point x="228" y="460"/>
      <point x="270" y="497"/>
      <point x="278" y="540" type="curve"/>
      <point x="281" y="540" type="line"/>
      <point x="273" y="496"/>
      <point x="233" y="455"/>
      <point x="182" y="455" type="curve" smooth="yes"/>
      <point x="144" y="455"/>
      <point x="110" y="476"/>
      <point x="119" y="528" type="curve" smooth="yes"/>
      <point x="127" y="576"/>
      <point x="176" y="600"/>
      <point x="222" y="600" type="curve" smooth="yes"/>
      <point x="261" y="600"/>
      <point x="278" y="587"/>
      <point x="286" y="578" type="curve"/>
      <point x="285" y="572" type="line"/>
      <point x="275" y="583"/>
      <point x="255" y="596"/>
      <point x="221" y="596" type="curve" smooth="yes"/>
      <point x="179" y="596"/>
      <point x="131" y="574"/>
    </contour>
    <contour>
      <point x="165" y="662" type="curve"/>
      <point x="161" y="666" type="line"/>
      <point x="180" y="682"/>
      <point x="209" y="700"/>
      <point x="245" y="700" type="curve" smooth="yes"/>
      <point x="290" y="700"/>
      <point x="306" y="669"/>
      <point x="298" y="625" type="curve" smooth="yes"/>
      <point x="269" y="460" type="line"/>
      <point x="264" y="460" type="line"/>
      <point x="293" y="625" type="line" smooth="yes"/>
      <point x="301" y="668"/>
      <point x="287" y="695"/>
      <point x="245" y="695" type="curve" smooth="yes"/>
      <point x="212" y="695"/>
      <point x="186" y="680"/>
    </contour>
  </outline>
</glyph>
<glyph name="registered" format="1">
  <advance width="800"/>
  <unicode hex="00AE"/>
  <outline>
    <contour>
      <point x="425" y="340" type="line"/>
      <point x="433" y="340" type="line"/>
      <point x="532" y="150" type="line"/>
      <point x="523" y="150" type="line"/>
    </contour>
    <contour>
      <point x="401" y="570" type="line"/>
      <point x="408" y="570" type="line"/>
      <point x="333" y="150" type="line"/>
      <point x="326" y="150" type="line"/>
    </contour>
    <contour>
      <point x="400" y="563" type="line"/>
      <point x="402" y="570" type="line"/>
      <point x="470" y="570" type="line" smooth="yes"/>
      <point x="551" y="570"/>
      <point x="605" y="531"/>
      <point x="591" y="454" type="curve" smooth="yes"/>
      <point x="577" y="377"/>
      <point x="510" y="338"/>
      <point x="429" y="338" type="curve" smooth="yes"/>
      <point x="361" y="338" type="line"/>
      <point x="362" y="344" type="line"/>
      <point x="430" y="344" type="line" smooth="yes"/>
      <point x="509" y="344"/>
      <point x="571" y="380"/>
      <point x="584" y="454" type="curve" smooth="yes"/>
      <point x="597" y="528"/>
      <point x="547" y="563"/>
      <point x="468" y="563" type="curve" smooth="yes"/>
    </contour>
    <contour>
      <point x="112" y="350" type="curve" smooth="yes"/>
      <point x="76" y="147"/>
      <point x="207" y="0"/>
      <point x="400" y="0" type="curve" smooth="yes"/>
      <point x="593" y="0"/>
      <point x="776" y="147"/>
      <point x="812" y="350" type="curve" smooth="yes"/>
      <point x="848" y="553"/>
      <point x="716" y="700"/>
      <point x="523" y="700" type="curve" smooth="yes"/>
      <point x="330" y="700"/>
      <point x="148" y="553"/>
    </contour>
    <contour>
      <point x="102" y="350" type="curve" smooth="yes"/>
      <point x="139" y="559"/>
      <point x="321" y="710"/>
      <point x="525" y="710" type="curve" smooth="yes"/>
      <point x="729" y="710"/>
      <point x="859" y="559"/>
      <point x="822" y="350" type="curve" smooth="yes"/>
      <point x="785" y="141"/>
      <point x="602" y="-10"/>
      <point x="398" y="-10" type="curve" smooth="yes"/>
      <point x="194" y="-10"/>
      <point x="65" y="141"/>
    </contour>
  </outline>
</glyph>
<glyph name="paragraph" format="1">
  <advance width="448"/>
  <unicode hex="00B6"/>
  <outline>
    <contour>
      <point x="410" y="690" type="line"/>
      <point x="411" y="700" type="line"/>
      <point x="511" y="700" type="line"/>
      <point x="510" y="690" type="line"/>
    </contour>
    <contour>
      <point x="501" y="700" type="line"/>
      <point x="511" y="700" type="line"/>
      <point x="349" y="-220" type="line"/>
      <point x="339" y="-220" type="line"/>
    </contour>
    <contour>
      <point x="411" y="700" type="line"/>
      <point x="421" y="700" type="line"/>
      <point x="259" y="-220" type="line"/>
      <point x="249" y="-220" type="line"/>
    </contour>
    <contour>
      <point x="336" y="270" type="line"/>
      <point x="211" y="270"/>
      <point x="121" y="346"/>
      <point x="146" y="485" type="curve" smooth="yes"/>
      <point x="171" y="624"/>
      <point x="286" y="700"/>
      <point x="411" y="700" type="curve"/>
    </contour>
  </outline>
</glyph>
<glyph name="cedilla" format="1">
  <advance width="350"/>
  <unicode hex="00B8"/>
  <outline>
    <contour>
      <point x="176" y="0" type="line"/>
      <point x="188" y="0" type="line"/>
      <point x="119" y="-76" type="line"/>
      <point x="105" y="-88" type="line"/>
    </contour>
    <contour>
      <point x="253" y="-126" type="curve"/>
      <point x="243" y="-126" type="line"/>
      <point x="251" y="-82"/>
      <point x="220" y="-62"/>
      <point x="191" y="-62" type="curve" smooth="yes"/>
      <point x="161" y="-62"/>
      <point x="131" y="-72"/>
      <point x="105" y="-88" type="curve"/>
      <point x="119" y="-76" type="line"/>
      <point x="148" y="-60"/>
      <point x="160" y="-52"/>
      <point x="193" y="-52" type="curve" smooth="yes"/>
      <point x="226" y="-52"/>
      <point x="262" y="-77"/>
    </contour>
    <contour>
      <point x="253" y="-126" type="line"/>
      <point x="242" y="-187"/>
      <point x="184" y="-220"/>
      <point x="129" y="-220" type="curve" smooth="yes"/>
      <point x="92" y="-220"/>
      <point x="70" y="-210"/>
      <point x="47" y="-182" type="curve"/>
      <point x="55" y="-176" type="line"/>
      <point x="79" y="-200"/>
      <point x="98" y="-210"/>
      <point x="131" y="-210" type="curve" smooth="yes"/>
      <point x="178" y="-210"/>
      <point x="233" y="-182"/>
      <point x="243" y="-126" type="curve"/>
    </contour>
  </outline>
</glyph>
<glyph name="uni00B9" format="1">
  <advance width="470"/>
  <unicode hex="00B9"/>
  <outline>
    <contour>
      <point x="260" y="666" type="line"/>
      <point x="262" y="673" type="line"/>
      <point x="374" y="697" type="line"/>
      <point x="299" y="274" type="line"/>
      <point x="293" y="274" type="line"/>
      <point x="366" y="689" type="line"/>
    </contour>
  </outline>
</glyph>
<glyph name="guillemotright" format="1">
  <advance width="485"/>
  <unicode hex="00BB"/>
  <outline>
    <contour>
      <point x="480" y="255" type="line"/>
      <point x="490" y="255" type="line"/>
      <point x="241" y="20" type="line"/>
      <point x="235" y="27" type="line"/>
    </contour>
    <contour>
      <point x="490" y="255" type="line"/>
      <point x="480" y="255" type="line"/>
      <point x="315" y="483" type="line"/>
      <point x="323" y="490" type="line"/>
    </contour>
    <contour>
      <point x="320" y="255" type="line"/>
      <point x="330" y="255" type="line"/>
      <point x="81" y="20" type="line"/>
      <point x="75" y="27" type="line"/>
    </contour>
    <contour>
      <point x="330" y="255" type="line"/>
      <point x="320" y="255" type="line"/>
      <point x="155" y="483" type="line"/>
      <point x="163" y="490" type="line"/>
    </contour>
  </outline>
</glyph>
<glyph name="onequarter" format="1">
  <advance width="754"/>
  <unicode hex="00BC"/>
  <outline>
    <contour>
      <point x="794" y="700" type="line"/>
      <point x="806" y="700" type="line"/>
      <point x="110" y="0" type="line"/>
      <point x="98" y="0" type="line"/>
    </contour>
    <contour>
      <point x="138" y="666" type="line"/>
      <point x="140" y="673" type="line"/>
      <point x="252" y="697" type="line"/>
      <point x="177" y="274" type="line"/>
      <point x="171" y="274" type="line"/>
      <point x="244" y="689" type="line"/>
    </contour>
    <contour>
      <point x="416" y="84" type="line"/>
      <point x="423" y="90" type="line"/>
      <point x="643" y="90" type="line" smooth="yes"/>
      <point x="645" y="90" type="line" smooth="yes"/>
      <point x="713" y="90" type="line"/>
      <point x="712" y="84" type="line"/>
    </contour>
    <contour>
      <point x="423" y="84" type="line"/>
      <point x="416" y="84" type="line"/>
      <point x="705" y="420" type="line"/>
      <point x="705" y="420" type="line"/>
      <point x="631" y="0" type="line"/>
      <point x="625" y="0" type="line"/>
      <point x="640" y="85" type="line" smooth="yes"/>
      <point x="641" y="88" type="line" smooth="yes"/>
      <point x="696" y="400" type="line"/>
    </contour>
  </outline>
</glyph>
<glyph name="Adieresis" format="1">
  <advance width="600"/>
  <unicode hex="00C4"/>
  <outline>
    <contour>
      <point x="175" y="272" type="line"/>
      <point x="177" y="282" type="line"/>
      <point x="522" y="282" type="line"/>
      <point x="520" y="272" type="line"/>
    </contour>
    <contour>
      <point x="421" y="688" type="line"/>
      <point x="185" y="277" type="line"/>
      <point x="183" y="273" type="line"/>
      <point x="27" y="0" type="line"/>
      <point x="15" y="0" type="line"/>
      <point x="426" y="715" type="line"/>
      <point x="585" y="0" type="line"/>
      <point x="573" y="0" type="line"/>
      <point x="514" y="273" type="line"/>
      <point x="514" y="276" type="line"/>
    </contour>
    <contour>
      <point x="531" y="806" type="curve" smooth="yes"/>
      <point x="532" y="813"/>
      <point x="538" y="817"/>
      <point x="544" y="817" type="curve" smooth="yes"/>
      <point x="550" y="817"/>
      <point x="554" y="813"/>
      <point x="553" y="806" type="curve" smooth="yes"/>
      <point x="552" y="799"/>
      <point x="546" y="795"/>
      <point x="540" y="795" type="curve" smooth="yes"/>
      <point x="534" y="795"/>
      <point x="530" y="799"/>
    </contour>
    <contour>
      <point x="331" y="806" type="curve" smooth="yes"/>
      <point x="332" y="813"/>
      <point x="338" y="817"/>
      <point x="344" y="817" type="curve" smooth="yes"/>
      <point x="350" y="817"/>
      <point x="354" y="813"/>
      <point x="353" y="806" type="curve" smooth="yes"/>
      <point x="352" y="799"/>
      <point x="346" y="795"/>
      <point x="340" y="795" type="curve" smooth="yes"/>
      <point x="334" y="795"/>
      <point x="330" y="799"/>
    </contour>
  </outline>
</glyph>
<glyph name="Aring" format="1">
  <advance width="600"/>
  <unicode hex="00C5"/>
  <outline>
    <contour>
      <point x="175" y="272" type="line"/>
      <point x="177" y="282" type="line"/>
      <point x="522" y="282" type="line"/>
      <point x="520" y="272" type="line"/>
    </contour>
    <contour>
      <point x="421" y="688" type="line"/>
      <point x="185" y="277" type="line"/>
      <point x="183" y="273" type="line"/>
      <point x="27" y="0" type="line"/>
      <point x="15" y="0" type="line"/>
      <point x="426" y="715" type="line"/>
      <point x="585" y="0" type="line"/>
      <point x="573" y="0" type="line"/>
      <point x="514" y="273" type="line"/>
      <point x="514" y="276" type="line"/>
    </contour>
    <contour>
      <point x="340" y="808" type="curve" smooth="yes"/>
      <point x="351" y="868"/>
      <point x="408" y="908"/>
      <point x="460" y="908" type="curve" smooth="yes"/>
      <point x="512" y="908"/>
      <point x="555" y="868"/>
      <point x="544" y="808" type="curve" smooth="yes"/>
      <point x="533" y="748"/>
      <point x="477" y="708"/>
      <point x="425" y="708" type="curve" smooth="yes"/>
      <point x="373" y="708"/>
      <point x="329" y="748"/>
    </contour>
    <contour>
      <point x="350" y="808" type="curve" smooth="yes"/>
      <point x="341" y="755"/>
      <point x="379" y="718"/>
      <point x="427" y="718" type="curve" smooth="yes"/>
      <point x="475" y="718"/>
      <point x="525" y="755"/>
      <point x="534" y="808" type="curve" smooth="yes"/>
      <point x="543" y="861"/>
      <point x="506" y="898"/>
      <point x="458" y="898" type="curve" smooth="yes"/>
      <point x="410" y="898"/>
      <point x="359" y="861"/>
    </contour>
  </outline>
</glyph>
<glyph name="Eacute" format="1">
  <advance width="510"/>
  <unicode hex="00C9"/>
  <outline>
    <contour>
      <point x="92" y="0" type="line"/>
      <point x="94" y="10" type="line"/>
      <point x="432" y="10" type="line"/>
      <point x="430" y="0" type="line"/>
    </contour>
    <contour>
      <point x="214" y="690" type="line"/>
      <point x="215" y="700" type="line"/>
      <point x="553" y="700" type="line"/>
      <point x="552" y="690" type="line"/>
    </contour>
    <contour>
      <point x="160" y="384" type="line"/>
      <point x="161" y="394" type="line"/>
      <point x="479" y="394" type="line"/>
      <point x="478" y="384" type="line"/>
    </contour>
    <contour>
      <point x="213" y="700" type="line"/>
      <point x="224" y="700" type="line"/>
      <point x="101" y="0" type="line"/>
      <point x="90" y="0" type="line"/>
    </contour>
    <contour>
      <point x="579" y="925" type="line"/>
      <point x="377" y="768" type="line"/>
      <point x="374" y="773" type="line"/>
      <point x="573" y="933" type="line"/>
    </contour>
  </outline>
</glyph>
<glyph name="Ecircumflex" format="1">
  <advance width="510"/>
  <unicode hex="00CA"/>
  <outline>
    <contour>
      <point x="92" y="0" type="line"/>
      <point x="94" y="10" type="line"/>
      <point x="432" y="10" type="line"/>
      <point x="430" y="0" type="line"/>
    </contour>
    <contour>
      <point x="214" y="690" type="line"/>
      <point x="215" y="700" type="line"/>
      <point x="553" y="700" type="line"/>
      <point x="552" y="690" type="line"/>
    </contour>
    <contour>
      <point x="160" y="384" type="line"/>
      <point x="161" y="394" type="line"/>
      <point x="479" y="394" type="line"/>
      <point x="478" y="384" type="line"/>
    </contour>
    <contour>
      <point x="213" y="700" type="line"/>
      <point x="224" y="700" type="line"/>
      <point x="101" y="0" type="line"/>
      <point x="90" y="0" type="line"/>
    </contour>
    <contour>
      <point x="419" y="903" type="line"/>
      <point x="242" y="768" type="line"/>
      <point x="237" y="775" type="line"/>
      <point x="421" y="915" type="line"/>
      <point x="557" y="775" type="line"/>
      <point x="548" y="768" type="line"/>
    </contour>
  </outline>
</glyph>
<glyph name="Edieresis" format="1">
  <advance width="510"/>
  <unicode hex="00CB"/>
  <outline>
    <contour>
      <point x="92" y="0" type="line"/>
      <point x="94" y="10" type="line"/>
      <point x="432" y="10" type="line"/>
      <point x="430" y="0" type="line"/>
    </contour>
    <contour>
      <point x="214" y="690" type="line"/>
      <point x="215" y="700" type="line"/>
      <point x="553" y="700" type="line"/>
      <point x="552" y="690" type="line"/>
    </contour>
    <contour>
      <point x="160" y="384" type="line"/>
      <point x="161" y="394" type="line"/>
      <point x="479" y="394" type="line"/>
      <point x="478" y="384" type="line"/>
    </contour>
    <contour>
      <point x="213" y="700" type="line"/>
      <point x="224" y="700" type="line"/>
      <point x="101" y="0" type="line"/>
      <point x="90" y="0" type="line"/>
    </contour>
    <contour>
      <point x="490" y="799" type="curve" smooth="yes"/>
      <point x="491" y="806"/>
      <point x="497" y="810"/>
      <point x="503" y="810" type="curve" smooth="yes"/>
      <point x="509" y="810"/>
      <point x="513" y="806"/>
      <point x="512" y="799" type="curve" smooth="yes"/>
      <point x="511" y="792"/>
      <point x="505" y="788"/>
      <point x="499" y="788" type="curve" smooth="yes"/>
      <point x="493" y="788"/>
      <point x="489" y="792"/>
    </contour>
    <contour>
      <point x="290" y="799" type="curve" smooth="yes"/>
      <point x="291" y="806"/>
      <point x="297" y="810"/>
      <point x="303" y="810" type="curve" smooth="yes"/>
      <point x="309" y="810"/>
      <point x="313" y="806"/>
      <point x="312" y="799" type="curve" smooth="yes"/>
      <point x="311" y="792"/>
      <point x="305" y="788"/>
      <point x="299" y="788" type="curve" smooth="yes"/>
      <point x="293" y="788"/>
      <point x="289" y="792"/>
    </contour>
  </outline>
</glyph>
<glyph name="Iacute" format="1">
  <advance width="180"/>
  <unicode hex="00CD"/>
  <outline>
    <contour>
      <point x="208" y="700" type="line"/>
      <point x="218" y="700" type="line"/>
      <point x="95" y="0" type="line"/>
      <point x="85" y="0" type="line"/>
    </contour>
    <contour>
      <point x="409" y="925" type="line"/>
      <point x="207" y="768" type="line"/>
      <point x="204" y="773" type="line"/>
      <point x="403" y="933" type="line"/>
    </contour>
  </outline>
</glyph>
<glyph name="Icircumflex" format="1">
  <advance width="180"/>
  <unicode hex="00CE"/>
  <outline>
    <contour>
      <point x="208" y="700" type="line"/>
      <point x="218" y="700" type="line"/>
      <point x="95" y="0" type="line"/>
      <point x="85" y="0" type="line"/>
    </contour>
    <contour>
      <point x="249" y="903" type="line"/>
      <point x="72" y="768" type="line"/>
      <point x="67" y="775" type="line"/>
      <point x="251" y="915" type="line"/>
      <point x="387" y="775" type="line"/>
      <point x="378" y="768" type="line"/>
    </contour>
  </outline>
</glyph>
<glyph name="Ntilde" format="1">
  <advance width="665"/>
  <unicode hex="00D1"/>
  <outline>
    <contour>
      <point x="181" y="678" type="line"/>
      <point x="176" y="715" type="line"/>
      <point x="587" y="17" type="line"/>
      <point x="592" y="-15" type="line"/>
    </contour>
    <contour>
      <point x="707" y="700" type="line"/>
      <point x="718" y="700" type="line"/>
      <point x="592" y="-15" type="line"/>
      <point x="587" y="17" type="line"/>
    </contour>
    <contour>
      <point x="176" y="715" type="line"/>
      <point x="181" y="678" type="line"/>
      <point x="61" y="0" type="line"/>
      <point x="50" y="0" type="line"/>
    </contour>
    <contour>
      <point x="351" y="776" type="line"/>
      <point x="356" y="805"/>
      <point x="378" y="834"/>
      <point x="423" y="834" type="curve" smooth="yes"/>
      <point x="478" y="834"/>
      <point x="485" y="787"/>
      <point x="539" y="787" type="curve" smooth="yes"/>
      <point x="568" y="787"/>
      <point x="582" y="803"/>
      <point x="603" y="835" type="curve"/>
      <point x="613" y="832" type="line"/>
      <point x="590" y="795"/>
      <point x="567" y="779"/>
      <point x="537" y="779" type="curve" smooth="yes"/>
      <point x="482" y="779"/>
      <point x="469" y="826"/>
      <point x="424" y="826" type="curve" smooth="yes"/>
      <point x="383" y="826"/>
      <point x="365" y="800"/>
      <point x="361" y="775" type="curve"/>
    </contour>
  </outline>
</glyph>
<glyph name="Ograve" format="1">
  <advance width="774"/>
  <unicode hex="00D2"/>
  <outline>
    <contour>
      <point x="123" y="350" type="curve" smooth="yes"/>
      <point x="88" y="149"/>
      <point x="197" y="3"/>
      <point x="388" y="3" type="curve" smooth="yes"/>
      <point x="579" y="3"/>
      <point x="740" y="149"/>
      <point x="775" y="350" type="curve" smooth="yes"/>
      <point x="810" y="551"/>
      <point x="701" y="697"/>
      <point x="510" y="697" type="curve" smooth="yes"/>
      <point x="319" y="697"/>
      <point x="158" y="551"/>
    </contour>
    <contour>
      <point x="112" y="350" type="curve" smooth="yes"/>
      <point x="149" y="559"/>
      <point x="318" y="708"/>
      <point x="512" y="708" type="curve" smooth="yes"/>
      <point x="706" y="708"/>
      <point x="823" y="559"/>
      <point x="786" y="350" type="curve" smooth="yes"/>
      <point x="749" y="141"/>
      <point x="580" y="-8"/>
      <point x="386" y="-8" type="curve" smooth="yes"/>
      <point x="192" y="-8"/>
      <point x="75" y="141"/>
    </contour>
    <contour>
      <point x="415" y="925" type="line"/>
      <point x="425" y="933" type="line"/>
      <point x="566" y="773" type="line"/>
      <point x="559" y="768" type="line"/>
    </contour>
  </outline>
</glyph>
<glyph name="Otilde" format="1">
  <advance width="774"/>
  <unicode hex="00D5"/>
  <outline>
    <contour>
      <point x="123" y="350" type="curve" smooth="yes"/>
      <point x="88" y="149"/>
      <point x="197" y="3"/>
      <point x="388" y="3" type="curve" smooth="yes"/>
      <point x="579" y="3"/>
      <point x="740" y="149"/>
      <point x="775" y="350" type="curve" smooth="yes"/>
      <point x="810" y="551"/>
      <point x="701" y="697"/>
      <point x="510" y="697" type="curve" smooth="yes"/>
      <point x="319" y="697"/>
      <point x="158" y="551"/>
    </contour>
    <contour>
      <point x="112" y="350" type="curve" smooth="yes"/>
      <point x="149" y="559"/>
      <point x="318" y="708"/>
      <point x="512" y="708" type="curve" smooth="yes"/>
      <point x="706" y="708"/>
      <point x="823" y="559"/>
      <point x="786" y="350" type="curve" smooth="yes"/>
      <point x="749" y="141"/>
      <point x="580" y="-8"/>
      <point x="386" y="-8" type="curve" smooth="yes"/>
      <point x="192" y="-8"/>
      <point x="75" y="141"/>
    </contour>
    <contour>
      <point x="401" y="789" type="line"/>
      <point x="406" y="818"/>
      <point x="428" y="847"/>
      <point x="473" y="847" type="curve" smooth="yes"/>
      <point x="528" y="847"/>
      <point x="535" y="800"/>
      <point x="589" y="800" type="curve" smooth="yes"/>
      <point x="618" y="800"/>
      <point x="633" y="816"/>
      <point x="654" y="848" type="curve"/>
      <point x="661" y="845" type="line"/>
      <point x="638" y="808"/>
      <point x="616" y="792"/>
      <point x="586" y="792" type="curve" smooth="yes"/>
      <point x="531" y="792"/>
      <point x="519" y="839"/>
      <point x="474" y="839" type="curve" smooth="yes"/>
      <point x="433" y="839"/>
      <point x="413" y="813"/>
      <point x="409" y="788" type="curve"/>
    </contour>
  </outline>
</glyph>
<glyph name="Odieresis" format="1">
  <advance width="774"/>
  <unicode hex="00D6"/>
  <outline>
    <contour>
      <point x="123" y="350" type="curve" smooth="yes"/>
      <point x="88" y="149"/>
      <point x="197" y="3"/>
      <point x="388" y="3" type="curve" smooth="yes"/>
      <point x="579" y="3"/>
      <point x="740" y="149"/>
      <point x="775" y="350" type="curve" smooth="yes"/>
      <point x="810" y="551"/>
      <point x="701" y="697"/>
      <point x="510" y="697" type="curve" smooth="yes"/>
      <point x="319" y="697"/>
      <point x="158" y="551"/>
    </contour>
    <contour>
      <point x="112" y="350" type="curve" smooth="yes"/>
      <point x="149" y="559"/>
      <point x="318" y="708"/>
      <point x="512" y="708" type="curve" smooth="yes"/>
      <point x="706" y="708"/>
      <point x="823" y="559"/>
      <point x="786" y="350" type="curve" smooth="yes"/>
      <point x="749" y="141"/>
      <point x="580" y="-8"/>
      <point x="386" y="-8" type="curve" smooth="yes"/>
      <point x="192" y="-8"/>
      <point x="75" y="141"/>
    </contour>
    <contour>
      <point x="629" y="809" type="curve" smooth="yes"/>
      <point x="630" y="816"/>
      <point x="636" y="820"/>
      <point x="642" y="820" type="curve" smooth="yes"/>
      <point x="648" y="820"/>
      <point x="652" y="816"/>
      <point x="651" y="809" type="curve" smooth="yes"/>
      <point x="650" y="802"/>
      <point x="644" y="798"/>
      <point x="638" y="798" type="curve" smooth="yes"/>
      <point x="632" y="798"/>
      <point x="628" y="802"/>
    </contour>
    <contour>
      <point x="409" y="809" type="curve" smooth="yes"/>
      <point x="410" y="816"/>
      <point x="416" y="820"/>
      <point x="422" y="820" type="curve" smooth="yes"/>
      <point x="428" y="820"/>
      <point x="432" y="816"/>
      <point x="431" y="809" type="curve" smooth="yes"/>
      <point x="430" y="802"/>
      <point x="424" y="798"/>
      <point x="418" y="798" type="curve" smooth="yes"/>
      <point x="412" y="798"/>
      <point x="408" y="802"/>
    </contour>
  </outline>
</glyph>
<glyph name="Udieresis" format="1">
  <advance width="576"/>
  <unicode hex="00DC"/>
  <outline>
    <contour>
      <point x="208" y="700" type="line"/>
      <point x="219" y="700" type="line"/>
      <point x="135" y="220" type="line" smooth="yes"/>
      <point x="111" y="84"/>
      <point x="168" y="1"/>
      <point x="288" y="1" type="curve" smooth="yes"/>
      <point x="408" y="1"/>
      <point x="495" y="84"/>
      <point x="519" y="220" type="curve" smooth="yes"/>
      <point x="603" y="700" type="line"/>
      <point x="614" y="700" type="line"/>
      <point x="530" y="220" type="line" smooth="yes"/>
      <point x="505" y="81"/>
      <point x="421" y="-10"/>
      <point x="286" y="-10" type="curve" smooth="yes"/>
      <point x="151" y="-10"/>
      <point x="99" y="81"/>
      <point x="124" y="220" type="curve" smooth="yes"/>
    </contour>
    <contour>
      <point x="504" y="779" type="curve" smooth="yes"/>
      <point x="505" y="786"/>
      <point x="511" y="790"/>
      <point x="517" y="790" type="curve" smooth="yes"/>
      <point x="523" y="790"/>
      <point x="527" y="786"/>
      <point x="526" y="779" type="curve" smooth="yes"/>
      <point x="525" y="772"/>
      <point x="519" y="768"/>
      <point x="513" y="768" type="curve" smooth="yes"/>
      <point x="507" y="768"/>
      <point x="503" y="772"/>
    </contour>
    <contour>
      <point x="324" y="779" type="curve" smooth="yes"/>
      <point x="325" y="786"/>
      <point x="331" y="790"/>
      <point x="337" y="790" type="curve" smooth="yes"/>
      <point x="343" y="790"/>
      <point x="347" y="786"/>
      <point x="346" y="779" type="curve" smooth="yes"/>
      <point x="345" y="772"/>
      <point x="339" y="768"/>
      <point x="333" y="768" type="curve" smooth="yes"/>
      <point x="327" y="768"/>
      <point x="323" y="772"/>
    </contour>
  </outline>
</glyph>
<glyph name="Yacute" format="1">
  <advance width="507"/>
  <unicode hex="00DD"/>
  <outline>
    <contour>
      <point x="291" y="275" type="line"/>
      <point x="302" y="275" type="line"/>
      <point x="254" y="0" type="line"/>
      <point x="243" y="0" type="line"/>
    </contour>
    <contour>
      <point x="602" y="700" type="line"/>
      <point x="615" y="700" type="line"/>
      <point x="293" y="256" type="line"/>
      <point x="138" y="700" type="line"/>
      <point x="151" y="700" type="line"/>
      <point x="298" y="281" type="line"/>
    </contour>
    <contour>
      <point x="572" y="925" type="line"/>
      <point x="371" y="768" type="line"/>
      <point x="367" y="773" type="line"/>
      <point x="566" y="933" type="line"/>
    </contour>
  </outline>
</glyph>
<glyph name="Thorn" format="1">
  <advance width="520"/>
  <unicode hex="00DE"/>
  <outline>
    <contour>
      <point x="265" y="140" type="curve"/>
      <point x="266" y="150" type="line"/>
      <point x="391" y="150"/>
      <point x="509" y="234"/>
      <point x="529" y="350" type="curve" smooth="yes"/>
      <point x="551" y="476"/>
      <point x="462" y="550"/>
      <point x="337" y="550" type="curve"/>
      <point x="339" y="560" type="line"/>
      <point x="474" y="560"/>
      <point x="563" y="479"/>
      <point x="540" y="350" type="curve" smooth="yes"/>
      <point x="517" y="221"/>
      <point x="400" y="140"/>
    </contour>
    <contour>
      <point x="109" y="140" type="line"/>
      <point x="110" y="150" type="line"/>
      <point x="266" y="150" type="line"/>
      <point x="265" y="140" type="line"/>
    </contour>
    <contour>
      <point x="181" y="550" type="line"/>
      <point x="183" y="560" type="line"/>
      <point x="339" y="560" type="line"/>
      <point x="337" y="550" type="line"/>
    </contour>
    <contour>
      <point x="203" y="700" type="line"/>
      <point x="213" y="700" type="line"/>
      <point x="90" y="0" type="line"/>
      <point x="80" y="0" type="line"/>
    </contour>
  </outline>
</glyph>
<glyph name="germandbls" format="1">
  <advance width="530"/>
  <unicode hex="00DF"/>
  <outline>
    <contour>
      <point x="187" y="606" type="line"/>
      <point x="197" y="606" type="line"/>
      <point x="90" y="0" type="line"/>
      <point x="80" y="0" type="line"/>
    </contour>
    <contour>
      <point x="310" y="445" type="curve"/>
      <point x="312" y="453" type="line"/>
      <point x="422" y="453"/>
      <point x="522" y="490"/>
      <point x="542" y="606" type="curve" smooth="yes"/>
      <point x="559" y="702"/>
      <point x="525" y="780"/>
      <point x="395" y="780" type="curve" smooth="yes"/>
      <point x="295" y="780"/>
      <point x="214" y="702"/>
      <point x="197" y="606" type="curve"/>
      <point x="187" y="606" type="line"/>
      <point x="206" y="715"/>
      <point x="291" y="790"/>
      <point x="396" y="790" type="curve" smooth="yes"/>
      <point x="531" y="790"/>
      <point x="571" y="715"/>
      <point x="552" y="606" type="curve" smooth="yes"/>
      <point x="535" y="507"/>
      <point x="465" y="445"/>
    </contour>
    <contour>
      <point x="252" y="0" type="line"/>
      <point x="382" y="0"/>
      <point x="492" y="94"/>
      <point x="515" y="225" type="curve" smooth="yes"/>
      <point x="542" y="378"/>
      <point x="420" y="443"/>
      <point x="310" y="443" type="curve"/>
      <point x="311" y="450" type="line"/>
      <point x="466" y="450"/>
      <point x="548" y="354"/>
      <point x="525" y="225" type="curve" smooth="yes"/>
      <point x="500" y="86"/>
      <point x="385" y="-10"/>
      <point x="250" y="-10" type="curve"/>
    </contour>
  </outline>
</glyph>
<glyph name="agrave" format="1">
  <advance width="541"/>
  <unicode hex="00E0"/>
  <outline>
    <contour>
      <point x="532" y="460" type="line"/>
      <point x="542" y="460" type="line"/>
      <point x="461" y="0" type="line"/>
      <point x="451" y="0" type="line"/>
    </contour>
    <contour>
      <point x="86" y="230" type="curve" smooth="yes"/>
      <point x="112" y="377"/>
      <point x="221" y="470"/>
      <point x="341" y="470" type="curve" smooth="yes"/>
      <point x="464" y="470"/>
      <point x="518" y="349"/>
      <point x="497" y="230" type="curve" smooth="yes"/>
      <point x="476" y="111"/>
      <point x="379" y="-10"/>
      <point x="256" y="-10" type="curve" smooth="yes"/>
      <point x="136" y="-10"/>
      <point x="60" y="83"/>
    </contour>
    <contour>
      <point x="96" y="230" type="curve" smooth="yes"/>
      <point x="71" y="89"/>
      <point x="145" y="0"/>
      <point x="261" y="0" type="curve" smooth="yes"/>
      <point x="370" y="0"/>
      <point x="472" y="114"/>
      <point x="492" y="230" type="curve" smooth="yes"/>
      <point x="512" y="346"/>
      <point x="451" y="460"/>
      <point x="342" y="460" type="curve" smooth="yes"/>
      <point x="226" y="460"/>
      <point x="121" y="371"/>
    </contour>
    <contour>
      <point x="285" y="697" type="line"/>
      <point x="294" y="705" type="line"/>
      <point x="436" y="545" type="line"/>
      <point x="431" y="540" type="line"/>
    </contour>
  </outline>
</glyph>
<glyph name="acircumflex" format="1">
  <advance width="541"/>
  <unicode hex="00E2"/>
  <outline>
    <contour>
      <point x="532" y="460" type="line"/>
      <point x="542" y="460" type="line"/>
      <point x="461" y="0" type="line"/>
      <point x="451" y="0" type="line"/>
    </contour>
    <contour>
      <point x="86" y="230" type="curve" smooth="yes"/>
      <point x="112" y="377"/>
      <point x="221" y="470"/>
      <point x="341" y="470" type="curve" smooth="yes"/>
      <point x="464" y="470"/>
      <point x="518" y="349"/>
      <point x="497" y="230" type="curve" smooth="yes"/>
      <point x="476" y="111"/>
      <point x="379" y="-10"/>
      <point x="256" y="-10" type="curve" smooth="yes"/>
      <point x="136" y="-10"/>
      <point x="60" y="83"/>
    </contour>
    <contour>
      <point x="96" y="230" type="curve" smooth="yes"/>
      <point x="71" y="89"/>
      <point x="145" y="0"/>
      <point x="261" y="0" type="curve" smooth="yes"/>
      <point x="370" y="0"/>
      <point x="472" y="114"/>
      <point x="492" y="230" type="curve" smooth="yes"/>
      <point x="512" y="346"/>
      <point x="451" y="460"/>
      <point x="342" y="460" type="curve" smooth="yes"/>
      <point x="226" y="460"/>
      <point x="121" y="371"/>
    </contour>
    <contour>
      <point x="379" y="685" type="line"/>
      <point x="202" y="550" type="line"/>
      <point x="196" y="557" type="line"/>
      <point x="381" y="697" type="line"/>
      <point x="516" y="557" type="line"/>
      <point x="508" y="550" type="line"/>
    </contour>
  </outline>
</glyph>
<glyph name="ae" format="1">
  <advance width="825"/>
  <unicode hex="00E6"/>
  <outline>
    <contour>
      <point x="73" y="132" type="curve" smooth="yes"/>
      <point x="61" y="63"/>
      <point x="95" y="0"/>
      <point x="194" y="0" type="curve" smooth="yes"/>
      <point x="282" y="0"/>
      <point x="369" y="81"/>
      <point x="384" y="167" type="curve"/>
      <point x="392" y="166" type="line"/>
      <point x="376" y="77"/>
      <point x="291" y="-10"/>
      <point x="192" y="-10" type="curve" smooth="yes"/>
      <point x="90" y="-10"/>
      <point x="49" y="54"/>
      <point x="63" y="132" type="curve" smooth="yes"/>
      <point x="80" y="226"/>
      <point x="169" y="281"/>
      <point x="275" y="281" type="curve" smooth="yes"/>
      <point x="353" y="281"/>
      <point x="387" y="248"/>
      <point x="399" y="235" type="curve"/>
      <point x="398" y="225" type="line"/>
      <point x="383" y="243"/>
      <point x="341" y="271"/>
      <point x="273" y="271" type="curve" smooth="yes"/>
      <point x="171" y="271"/>
      <point x="88" y="218"/>
    </contour>
    <contour>
      <point x="154" y="395" type="curve"/>
      <point x="148" y="403" type="line"/>
      <point x="185" y="432"/>
      <point x="238" y="470"/>
      <point x="321" y="470" type="curve" smooth="yes"/>
      <point x="406" y="470"/>
      <point x="433" y="404"/>
      <point x="420" y="330" type="curve" smooth="yes"/>
      <point x="390" y="159" type="line"/>
      <point x="383" y="159" type="line"/>
      <point x="411" y="320" type="line" smooth="yes"/>
      <point x="424" y="393"/>
      <point x="406" y="460"/>
      <point x="316" y="460" type="curve" smooth="yes"/>
      <point x="240" y="460"/>
      <point x="189" y="423"/>
    </contour>
    <contour>
      <point x="402" y="228" type="line"/>
      <point x="404" y="238" type="line"/>
      <point x="821" y="238" type="line"/>
      <point x="825" y="228" type="line"/>
    </contour>
    <contour>
      <point x="820" y="250" type="line" smooth="yes"/>
      <point x="844" y="384"/>
      <point x="750" y="460"/>
      <point x="660" y="460" type="curve" smooth="yes"/>
      <point x="530" y="460"/>
      <point x="428" y="357"/>
      <point x="406" y="235" type="curve"/>
      <point x="406" y="235" type="line"/>
      <point x="382" y="99"/>
      <point x="453" y="0"/>
      <point x="563" y="0" type="curve" smooth="yes"/>
      <point x="680" y="0"/>
      <point x="740" y="52"/>
      <point x="791" y="113" type="curve"/>
      <point x="798" y="107" type="line"/>
      <point x="740" y="37"/>
      <point x="680" y="-10"/>
      <point x="561" y="-10" type="curve" smooth="yes"/>
      <point x="446" y="-10"/>
      <point x="371" y="91"/>
      <point x="396" y="230" type="curve" smooth="yes"/>
      <point x="399" y="247"/>
      <point x="404" y="263"/>
      <point x="410" y="279" type="curve" smooth="yes"/>
      <point x="449" y="392"/>
      <point x="541" y="470"/>
      <point x="666" y="470" type="curve" smooth="yes"/>
      <point x="746" y="470"/>
      <point x="858" y="398"/>
      <point x="832" y="253" type="curve" smooth="yes"/>
      <point x="831" y="245"/>
      <point x="827" y="236"/>
      <point x="825" y="228" type="curve"/>
      <point x="817" y="230" type="line"/>
    </contour>
  </outline>
</glyph>
<glyph name="ccedilla" format="1">
  <advance width="488"/>
  <unicode hex="00E7"/>
  <outline>
    <contour>
      <point x="91" y="230" type="curve" smooth="yes"/>
      <point x="67" y="96"/>
      <point x="148" y="0"/>
      <point x="273" y="0" type="curve" smooth="yes"/>
      <point x="347" y="0"/>
      <point x="414" y="37"/>
      <point x="439" y="61" type="curve"/>
      <point x="436" y="48" type="line"/>
      <point x="410" y="23"/>
      <point x="344" y="-10"/>
      <point x="271" y="-10" type="curve" smooth="yes"/>
      <point x="139" y="-10"/>
      <point x="56" y="91"/>
      <point x="81" y="230" type="curve" smooth="yes"/>
      <point x="106" y="369"/>
      <point x="224" y="470"/>
      <point x="356" y="470" type="curve" smooth="yes"/>
      <point x="429" y="470"/>
      <point x="483" y="436"/>
      <point x="501" y="412" type="curve"/>
      <point x="498" y="399" type="line"/>
      <point x="481" y="423"/>
      <point x="428" y="460"/>
      <point x="354" y="460" type="curve" smooth="yes"/>
      <point x="229" y="460"/>
      <point x="115" y="364"/>
    </contour>
    <contour>
      <point x="266" y="-3" type="line"/>
      <point x="278" y="-3" type="line"/>
      <point x="209" y="-79" type="line"/>
      <point x="196" y="-91" type="line"/>
    </contour>
    <contour>
      <point x="343" y="-129" type="curve"/>
      <point x="333" y="-129" type="line"/>
      <point x="341" y="-85"/>
      <point x="311" y="-65"/>
      <point x="282" y="-65" type="curve" smooth="yes"/>
      <point x="252" y="-65"/>
      <point x="222" y="-75"/>
      <point x="196" y="-91" type="curve"/>
      <point x="209" y="-79" type="line"/>
      <point x="238" y="-63"/>
      <point x="250" y="-55"/>
      <point x="283" y="-55" type="curve" smooth="yes"/>
      <point x="316" y="-55"/>
      <point x="352" y="-80"/>
    </contour>
    <contour>
      <point x="343" y="-129" type="line"/>
      <point x="332" y="-190"/>
      <point x="275" y="-223"/>
      <point x="220" y="-223" type="curve" smooth="yes"/>
      <point x="183" y="-223"/>
      <point x="160" y="-213"/>
      <point x="137" y="-185" type="curve"/>
      <point x="145" y="-179" type="line"/>
      <point x="169" y="-203"/>
      <point x="188" y="-213"/>
      <point x="221" y="-213" type="curve" smooth="yes"/>
      <point x="268" y="-213"/>
      <point x="323" y="-185"/>
      <point x="333" y="-129" type="curve"/>
    </contour>
  </outline>
</glyph>
<glyph name="egrave" format="1">
  <advance width="522"/>
  <unicode hex="00E8"/>
  <outline>
    <contour>
      <point x="92" y="228" type="line"/>
      <point x="94" y="238" type="line"/>
      <point x="513" y="238" type="line"/>
      <point x="515" y="228" type="line"/>
    </contour>
    <contour>
      <point x="511" y="253" type="line" smooth="yes"/>
      <point x="532" y="372"/>
      <point x="451" y="460"/>
      <point x="346" y="460" type="curve" smooth="yes"/>
      <point x="238" y="460"/>
      <point x="121" y="375"/>
      <point x="96" y="232" type="curve"/>
      <point x="96" y="232" type="line"/>
      <point x="73" y="100"/>
      <point x="141" y="0"/>
      <point x="260" y="0" type="curve" smooth="yes"/>
      <point x="378" y="0"/>
      <point x="442" y="64"/>
      <point x="481" y="113" type="curve"/>
      <point x="488" y="107" type="line"/>
      <point x="450" y="59"/>
      <point x="383" y="-10"/>
      <point x="258" y="-10" type="curve" smooth="yes"/>
      <point x="133" y="-10"/>
      <point x="61" y="93"/>
      <point x="86" y="232" type="curve" smooth="yes"/>
      <point x="91" y="259"/>
      <point x="98" y="284"/>
      <point x="109" y="308" type="curve" smooth="yes"/>
      <point x="153" y="403"/>
      <point x="245" y="470"/>
      <point x="348" y="470" type="curve" smooth="yes"/>
      <point x="458" y="470"/>
      <point x="544" y="379"/>
      <point x="522" y="254" type="curve" smooth="yes"/>
      <point x="521" y="246"/>
      <point x="517" y="236"/>
      <point x="515" y="228" type="curve"/>
      <point x="507" y="230" type="line"/>
    </contour>
    <contour>
      <point x="251" y="687" type="line"/>
      <point x="261" y="695" type="line"/>
      <point x="402" y="535" type="line"/>
      <point x="395" y="530" type="line"/>
    </contour>
  </outline>
</glyph>
<glyph name="edieresis" format="1">
  <advance width="522"/>
  <unicode hex="00EB"/>
  <outline>
    <contour>
      <point x="92" y="228" type="line"/>
      <point x="94" y="238" type="line"/>
      <point x="513" y="238" type="line"/>
      <point x="515" y="228" type="line"/>
    </contour>
    <contour>
      <point x="511" y="253" type="line" smooth="yes"/>
      <point x="532" y="372"/>
      <point x="451" y="460"/>
      <point x="346" y="460" type="curve" smooth="yes"/>
      <point x="238" y="460"/>
      <point x="121" y="375"/>
      <point x="96" y="232" type="curve"/>
      <point x="96" y="232" type="line"/>
      <point x="73" y="100"/>
      <point x="141" y="0"/>
      <point x="260" y="0" type="curve" smooth="yes"/>
      <point x="378" y="0"/>
      <point x="442" y="64"/>
      <point x="481" y="113" type="curve"/>
      <point x="488" y="107" type="line"/>
      <point x="450" y="59"/>
      <point x="383" y="-10"/>
      <point x="258" y="-10" type="curve" smooth="yes"/>
      <point x="133" y="-10"/>
      <point x="61" y="93"/>
      <point x="86" y="232" type="curve" smooth="yes"/>
      <point x="91" y="259"/>
      <point x="98" y="284"/>
      <point x="109" y="308" type="curve" smooth="yes"/>
      <point x="153" y="403"/>
      <point x="245" y="470"/>
      <point x="348" y="470" type="curve" smooth="yes"/>
      <point x="458" y="470"/>
      <point x="544" y="379"/>
      <point x="522" y="254" type="curve" smooth="yes"/>
      <point x="521" y="246"/>
      <point x="517" y="236"/>
      <point x="515" y="228" type="curve"/>
      <point x="507" y="230" type="line"/>
    </contour>
    <contour>
      <point x="453" y="561" type="curve" smooth="yes"/>
      <point x="454" y="568"/>
      <point x="460" y="572"/>
      <point x="466" y="572" type="curve" smooth="yes"/>
      <point x="472" y="572"/>
      <point x="476" y="568"/>
      <point x="475" y="561" type="curve" smooth="yes"/>
      <point x="474" y="554"/>
      <point x="468" y="550"/>
      <point x="462" y="550" type="curve" smooth="yes"/>
      <point x="456" y="550"/>
      <point x="452" y="554"/>
    </contour>
    <contour>
      <point x="253" y="561" type="curve" smooth="yes"/>
      <point x="254" y="568"/>
      <point x="260" y="572"/>
      <point x="266" y="572" type="curve" smooth="yes"/>
      <point x="272" y="572"/>
      <point x="276" y="568"/>
      <point x="275" y="561" type="curve" smooth="yes"/>
      <point x="274" y="554"/>
      <point x="268" y="550"/>
      <point x="262" y="550" type="curve" smooth="yes"/>
      <point x="256" y="550"/>
      <point x="252" y="554"/>
    </contour>
  </outline>
</glyph>
<glyph name="igrave" format="1">
  <advance width="190"/>
  <unicode hex="00EC"/>
  <outline>
    <contour>
      <point x="171" y="460" type="line"/>
      <point x="181" y="460" type="line"/>
      <point x="100" y="0" type="line"/>
      <point x="90" y="0" type="line"/>
    </contour>
    <contour>
      <point x="61" y="687" type="line"/>
      <point x="71" y="695" type="line"/>
      <point x="212" y="535" type="line"/>
      <point x="205" y="530" type="line"/>
    </contour>
  </outline>
</glyph>
<glyph name="iacute" format="1">
  <advance width="190"/>
  <unicode hex="00ED"/>
  <outline>
    <contour>
      <point x="171" y="460" type="line"/>
      <point x="181" y="460" type="line"/>
      <point x="100" y="0" type="line"/>
      <point x="90" y="0" type="line"/>
    </contour>
    <contour>
      <point x="371" y="687" type="line"/>
      <point x="171" y="530" type="line"/>
      <point x="166" y="535" type="line"/>
      <point x="365" y="695" type="line"/>
    </contour>
  </outline>
</glyph>
<glyph name="ntilde" format="1">
  <advance width="475"/>
  <unicode hex="00F1"/>
  <outline>
    <contour>
      <point x="176" y="460" type="line"/>
      <point x="95" y="0" type="line"/>
      <point x="85" y="0" type="line"/>
      <point x="166" y="460" type="line"/>
    </contour>
    <contour>
      <point x="436" y="320" type="line" smooth="yes"/>
      <point x="450" y="401"/>
      <point x="428" y="460"/>
      <point x="338" y="460" type="curve" smooth="yes"/>
      <point x="247" y="460"/>
      <point x="161" y="375"/>
      <point x="144" y="280" type="curve"/>
      <point x="139" y="280" type="line"/>
      <point x="158" y="389"/>
      <point x="245" y="470"/>
      <point x="340" y="470" type="curve" smooth="yes"/>
      <point x="435" y="470"/>
      <point x="462" y="409"/>
      <point x="446" y="320" type="curve" smooth="yes"/>
      <point x="390" y="0" type="line"/>
      <point x="380" y="0" type="line"/>
    </contour>
    <contour>
      <point x="209" y="551" type="line"/>
      <point x="214" y="580"/>
      <point x="236" y="609"/>
      <point x="281" y="609" type="curve" smooth="yes"/>
      <point x="336" y="609"/>
      <point x="343" y="562"/>
      <point x="397" y="562" type="curve" smooth="yes"/>
      <point x="426" y="562"/>
      <point x="441" y="578"/>
      <point x="462" y="610" type="curve"/>
      <point x="470" y="607" type="line"/>
      <point x="447" y="570"/>
      <point x="425" y="554"/>
      <point x="395" y="554" type="curve" smooth="yes"/>
      <point x="340" y="554"/>
      <point x="327" y="601"/>
      <point x="282" y="601" type="curve" smooth="yes"/>
      <point x="241" y="601"/>
      <point x="222" y="575"/>
      <point x="218" y="550" type="curve"/>
    </contour>
  </outline>
</glyph>
<glyph name="ocircumflex" format="1">
  <advance width="556"/>
  <unicode hex="00F4"/>
  <outline>
    <contour>
      <point x="86" y="230" type="curve" smooth="yes"/>
      <point x="111" y="369"/>
      <point x="229" y="470"/>
      <point x="361" y="470" type="curve" smooth="yes"/>
      <point x="493" y="470"/>
      <point x="577" y="369"/>
      <point x="552" y="230" type="curve" smooth="yes"/>
      <point x="527" y="91"/>
      <point x="408" y="-10"/>
      <point x="276" y="-10" type="curve" smooth="yes"/>
      <point x="144" y="-10"/>
      <point x="61" y="91"/>
    </contour>
    <contour>
      <point x="96" y="230" type="curve" smooth="yes"/>
      <point x="72" y="96"/>
      <point x="153" y="0"/>
      <point x="278" y="0" type="curve" smooth="yes"/>
      <point x="403" y="0"/>
      <point x="518" y="96"/>
      <point x="542" y="230" type="curve" smooth="yes"/>
      <point x="566" y="364"/>
      <point x="484" y="460"/>
      <point x="359" y="460" type="curve" smooth="yes"/>
      <point x="234" y="460"/>
      <point x="120" y="364"/>
    </contour>
    <contour>
      <point x="399" y="685" type="line"/>
      <point x="222" y="550" type="line"/>
      <point x="216" y="557" type="line"/>
      <point x="401" y="697" type="line"/>
      <point x="536" y="557" type="line"/>
      <point x="528" y="550" type="line"/>
    </contour>
  </outline>
</glyph>
<glyph name="divide" format="1">
  <advance width="623"/>
  <unicode hex="00F7"/>
  <outline>
    <contour>
      <point x="379" y="451" type="curve" smooth="yes"/>
      <point x="380" y="458"/>
      <point x="385" y="462"/>
      <point x="391" y="462" type="curve" smooth="yes"/>
      <point x="397" y="462"/>
      <point x="402" y="458"/>
      <point x="401" y="451" type="curve" smooth="yes"/>
      <point x="400" y="444"/>
      <point x="394" y="440"/>
      <point x="388" y="440" type="curve" smooth="yes"/>
      <point x="382" y="440"/>
      <point x="378" y="444"/>
    </contour>
    <contour>
      <point x="304" y="31" type="curve" smooth="yes"/>
      <point x="305" y="38"/>
      <point x="311" y="42"/>
      <point x="317" y="42" type="curve" smooth="yes"/>
      <point x="323" y="42"/>
      <point x="327" y="38"/>
      <point x="326" y="31" type="curve" smooth="yes"/>
      <point x="325" y="24"/>
      <point x="320" y="20"/>
      <point x="314" y="20" type="curve" smooth="yes"/>
      <point x="308" y="20"/>
      <point x="303" y="24"/>
    </contour>
    <contour>
      <point x="101" y="235" type="line"/>
      <point x="103" y="245" type="line"/>
      <point x="603" y="245" type="line"/>
      <point x="601" y="235" type="line"/>
    </contour>
  </outline>
</glyph>
<glyph name="ugrave" format="1">
  <advance width="475"/>
  <unicode hex="00F9"/>
  <outline>
    <contour>
      <point x="380" y="0" type="line"/>
      <point x="461" y="460" type="line"/>
      <point x="471" y="460" type="line"/>
      <point x="390" y="0" type="line"/>
    </contour>
    <contour>
      <point x="121" y="150" type="line" smooth="yes"/>
      <point x="105" y="59"/>
      <point x="128" y="0"/>
      <point x="218" y="0" type="curve" smooth="yes"/>
      <point x="309" y="0"/>
      <point x="395" y="85"/>
      <point x="412" y="180" type="curve"/>
      <point x="417" y="180" type="line"/>
      <point x="398" y="71"/>
      <point x="311" y="-10"/>
      <point x="216" y="-10" type="curve" smooth="yes"/>
      <point x="121" y="-10"/>
      <point x="94" y="51"/>
      <point x="111" y="150" type="curve" smooth="yes"/>
      <point x="166" y="460" type="line"/>
      <point x="176" y="460" type="line"/>
    </contour>
    <contour>
      <point x="205" y="697" type="line"/>
      <point x="214" y="705" type="line"/>
      <point x="356" y="545" type="line"/>
      <point x="350" y="540" type="line"/>
    </contour>
  </outline>
</glyph>
<glyph name="udieresis" format="1">
  <advance width="475"/>
  <unicode hex="00FC"/>
  <outline>
    <contour>
      <point x="380" y="0" type="line"/>
      <point x="461" y="460" type="line"/>
      <point x="471" y="460" type="line"/>
      <point x="390" y="0" type="line"/>
    </contour>
    <contour>
      <point x="121" y="150" type="line" smooth="yes"/>
      <point x="105" y="59"/>
      <point x="128" y="0"/>
      <point x="218" y="0" type="curve" smooth="yes"/>
      <point x="309" y="0"/>
      <point x="395" y="85"/>
      <point x="412" y="180" type="curve"/>
      <point x="417" y="180" type="line"/>
      <point x="398" y="71"/>
      <point x="311" y="-10"/>
      <point x="216" y="-10" type="curve" smooth="yes"/>
      <point x="121" y="-10"/>
      <point x="94" y="51"/>
      <point x="111" y="150" type="curve" smooth="yes"/>
      <point x="166" y="460" type="line"/>
      <point x="176" y="460" type="line"/>
    </contour>
    <contour>
      <point x="405" y="561" type="curve" smooth="yes"/>
      <point x="406" y="568"/>
      <point x="413" y="572"/>
      <point x="419" y="572" type="curve" smooth="yes"/>
      <point x="425" y="572"/>
      <point x="428" y="568"/>
      <point x="427" y="561" type="curve" smooth="yes"/>
      <point x="426" y="554"/>
      <point x="421" y="550"/>
      <point x="415" y="550" type="curve" smooth="yes"/>
      <point x="409" y="550"/>
      <point x="404" y="554"/>
    </contour>
    <contour>
      <point x="245" y="561" type="curve" smooth="yes"/>
      <point x="246" y="568"/>
      <point x="253" y="572"/>
      <point x="259" y="572" type="curve" smooth="yes"/>
      <point x="265" y="572"/>
      <point x="268" y="568"/>
      <point x="267" y="561" type="curve" smooth="yes"/>
      <point x="266" y="554"/>
      <point x="261" y="550"/>
      <point x="255" y="550" type="curve" smooth="yes"/>
      <point x="249" y="550"/>
      <point x="244" y="554"/>
    </contour>
  </outline>
</glyph>
<glyph name="yacute" format="1">
  <advance width="425"/>
  <unicode hex="00FD"/>
  <outline>
    <contour>
      <point x="496" y="460" type="line"/>
      <point x="76" y="-220" type="line"/>
      <point x="65" y="-220" type="line"/>
      <point x="214" y="20" type="line"/>
      <point x="91" y="460" type="line"/>
      <point x="103" y="460" type="line"/>
      <point x="225" y="20" type="line"/>
      <point x="214" y="20" type="line"/>
      <point x="485" y="460" type="line"/>
    </contour>
    <contour>
      <point x="489" y="687" type="line"/>
      <point x="288" y="530" type="line"/>
      <point x="284" y="535" type="line"/>
      <point x="483" y="695" type="line"/>
    </contour>
  </outline>
</glyph>
<glyph name="Cdotaccent" format="1">
  <advance width="685"/>
  <unicode hex="010A"/>
  <outline>
    <contour>
      <point x="124" y="350" type="curve" smooth="yes"/>
      <point x="89" y="150"/>
      <point x="194" y="4"/>
      <point x="381" y="4" type="curve" smooth="yes"/>
      <point x="480" y="4"/>
      <point x="553" y="31"/>
      <point x="621" y="88" type="curve"/>
      <point x="618" y="72" type="line"/>
      <point x="550" y="20"/>
      <point x="481" y="-8"/>
      <point x="379" y="-8" type="curve" smooth="yes"/>
      <point x="185" y="-8"/>
      <point x="75" y="141"/>
      <point x="112" y="350" type="curve" smooth="yes"/>
      <point x="149" y="559"/>
      <point x="311" y="708"/>
      <point x="505" y="708" type="curve" smooth="yes"/>
      <point x="607" y="708"/>
      <point x="666" y="680"/>
      <point x="716" y="628" type="curve"/>
      <point x="713" y="613" type="line"/>
      <point x="667" y="669"/>
      <point x="597" y="696"/>
      <point x="503" y="696" type="curve" smooth="yes"/>
      <point x="317" y="696"/>
      <point x="160" y="553"/>
    </contour>
    <contour>
      <point x="508" y="789" type="curve" smooth="yes"/>
      <point x="509" y="796"/>
      <point x="515" y="800"/>
      <point x="521" y="800" type="curve" smooth="yes"/>
      <point x="527" y="800"/>
      <point x="531" y="796"/>
      <point x="530" y="789" type="curve" smooth="yes"/>
      <point x="529" y="782"/>
      <point x="523" y="778"/>
      <point x="517" y="778" type="curve" smooth="yes"/>
      <point x="511" y="778"/>
      <point x="507" y="782"/>
    </contour>
  </outline>
</glyph>
<glyph name="Dcroat" format="1">
  <advance width="680"/>
  <unicode hex="0110"/>
  <outline>
    <contour>
      <point x="216" y="689" type="line"/>
      <point x="218" y="700" type="line"/>
      <point x="373" y="700" type="line" smooth="yes"/>
      <point x="577" y="700"/>
      <point x="684" y="559"/>
      <point x="647" y="350" type="curve"/>
      <point x="636" y="350" type="line"/>
      <point x="672" y="553"/>
      <point x="569" y="689"/>
      <point x="371" y="689" type="curve" smooth="yes"/>
    </contour>
    <contour>
      <point x="250" y="0" type="curve" smooth="yes"/>
      <point x="95" y="0" type="line"/>
      <point x="97" y="11" type="line"/>
      <point x="252" y="11" type="line" smooth="yes"/>
      <point x="450" y="11"/>
      <point x="600" y="147"/>
      <point x="636" y="350" type="curve"/>
      <point x="647" y="350" type="line"/>
      <point x="610" y="141"/>
      <point x="454" y="0"/>
    </contour>
    <contour>
      <point x="213" y="700" type="line"/>
      <point x="224" y="700" type="line"/>
      <point x="101" y="0" type="line"/>
      <point x="90" y="0" type="line"/>
    </contour>
    <contour>
      <point x="66" y="345" type="line"/>
      <point x="68" y="355" type="line"/>
      <point x="368" y="355" type="line"/>
      <point x="366" y="345" type="line"/>
    </contour>
  </outline>
</glyph>
<glyph name="Edotaccent" format="1">
  <advance width="510"/>
  <unicode hex="0116"/>
  <outline>
    <contour>
      <point x="92" y="0" type="line"/>
      <point x="94" y="10" type="line"/>
      <point x="432" y="10" type="line"/>
      <point x="430" y="0" type="line"/>
    </contour>
    <contour>
      <point x="214" y="690" type="line"/>
      <point x="215" y="700" type="line"/>
      <point x="553" y="700" type="line"/>
      <point x="552" y="690" type="line"/>
    </contour>
    <contour>
      <point x="160" y="384" type="line"/>
      <point x="161" y="394" type="line"/>
      <point x="479" y="394" type="line"/>
      <point x="478" y="384" type="line"/>
    </contour>
    <contour>
      <point x="213" y="700" type="line"/>
      <point x="224" y="700" type="line"/>
      <point x="101" y="0" type="line"/>
      <point x="90" y="0" type="line"/>
    </contour>
    <contour>
      <point x="386" y="779" type="curve" smooth="yes"/>
      <point x="387" y="786"/>
      <point x="393" y="790"/>
      <point x="399" y="790" type="curve" smooth="yes"/>
      <point x="405" y="790"/>
      <point x="409" y="786"/>
      <point x="408" y="779" type="curve" smooth="yes"/>
      <point x="407" y="772"/>
      <point x="401" y="768"/>
      <point x="395" y="768" type="curve" smooth="yes"/>
      <point x="389" y="768"/>
      <point x="385" y="772"/>
    </contour>
  </outline>
</glyph>
<glyph name="Eogonek" format="1">
  <advance width="510"/>
  <unicode hex="0118"/>
  <outline>
    <contour>
      <point x="92" y="0" type="line"/>
      <point x="94" y="10" type="line"/>
      <point x="432" y="10" type="line"/>
      <point x="430" y="0" type="line"/>
    </contour>
    <contour>
      <point x="214" y="690" type="line"/>
      <point x="215" y="700" type="line"/>
      <point x="553" y="700" type="line"/>
      <point x="552" y="690" type="line"/>
    </contour>
    <contour>
      <point x="160" y="384" type="line"/>
      <point x="161" y="394" type="line"/>
      <point x="479" y="394" type="line"/>
      <point x="478" y="384" type="line"/>
    </contour>
    <contour>
      <point x="213" y="700" type="line"/>
      <point x="224" y="700" type="line"/>
      <point x="101" y="0" type="line"/>
      <point x="90" y="0" type="line"/>
    </contour>
    <contour>
      <point x="433" y="-173" type="curve"/>
      <point x="439" y="-180" type="line"/>
      <point x="420" y="-200"/>
      <point x="377" y="-220"/>
      <point x="334" y="-220" type="curve" smooth="yes"/>
      <point x="270" y="-220"/>
      <point x="236" y="-189"/>
      <point x="245" y="-140" type="curve"/>
      <point x="255" y="-140" type="line"/>
      <point x="247" y="-186"/>
      <point x="286" y="-210"/>
      <point x="336" y="-210" type="curve" smooth="yes"/>
      <point x="376" y="-210"/>
      <point x="415" y="-191"/>
    </contour>
    <contour>
      <point x="255" y="-140" type="curve"/>
      <point x="245" y="-140" type="line"/>
      <point x="257" y="-71"/>
      <point x="349" y="-26"/>
      <point x="425" y="10" type="curve"/>
      <point x="430" y="0" type="line"/>
      <point x="356" y="-32"/>
      <point x="265" y="-83"/>
    </contour>
  </outline>
</glyph>
<glyph name="Gcircumflex" format="1">
  <advance width="765"/>
  <unicode hex="011C"/>
  <outline>
    <contour>
      <point x="478" y="330" type="line"/>
      <point x="480" y="340" type="line"/>
      <point x="770" y="340" type="line"/>
      <point x="758" y="330" type="line"/>
    </contour>
    <contour>
      <point x="770" y="340" type="line"/>
      <point x="738" y="156"/>
      <point x="583" y="-8"/>
      <point x="389" y="-8" type="curve" smooth="yes"/>
      <point x="195" y="-8"/>
      <point x="75" y="141"/>
      <point x="112" y="350" type="curve" smooth="yes"/>
      <point x="149" y="559"/>
      <point x="321" y="708"/>
      <point x="515" y="708" type="curve" smooth="yes"/>
      <point x="644" y="708"/>
      <point x="721" y="643"/>
      <point x="766" y="556" type="curve"/>
      <point x="755" y="550" type="line"/>
      <point x="720" y="633"/>
      <point x="635" y="697"/>
      <point x="513" y="697" type="curve" smooth="yes"/>
      <point x="322" y="697"/>
      <point x="159" y="553"/>
      <point x="123" y="350" type="curve" smooth="yes"/>
      <point x="88" y="150"/>
      <point x="199" y="3"/>
      <point x="391" y="3" type="curve" smooth="yes"/>
      <point x="579" y="3"/>
      <point x="727" y="161"/>
      <point x="759" y="340" type="curve"/>
    </contour>
    <contour>
      <point x="549" y="903" type="line"/>
      <point x="372" y="768" type="line"/>
      <point x="367" y="775" type="line"/>
      <point x="551" y="915" type="line"/>
      <point x="687" y="775" type="line"/>
      <point x="678" y="768" type="line"/>
    </contour>
  </outline>
</glyph>
<glyph name="gcircumflex" format="1">
  <advance width="541"/>
  <unicode hex="011D"/>
  <outline>
    <contour>
      <point x="497" y="230" type="curve"/>
      <point x="492" y="230" type="line"/>
      <point x="514" y="356"/>
      <point x="439" y="460"/>
      <point x="349" y="460" type="curve" smooth="yes"/>
      <point x="219" y="460"/>
      <point x="120" y="366"/>
      <point x="96" y="230" type="curve"/>
      <point x="86" y="230" type="line"/>
      <point x="112" y="379"/>
      <point x="221" y="470"/>
      <point x="346" y="470" type="curve" smooth="yes"/>
      <point x="441" y="470"/>
      <point x="523" y="379"/>
    </contour>
    <contour>
      <point x="492" y="230" type="curve"/>
      <point x="497" y="230" type="line"/>
      <point x="471" y="81"/>
      <point x="356" y="-10"/>
      <point x="261" y="-10" type="curve" smooth="yes"/>
      <point x="136" y="-10"/>
      <point x="60" y="81"/>
      <point x="86" y="230" type="curve"/>
      <point x="96" y="230" type="line"/>
      <point x="72" y="94"/>
      <point x="138" y="0"/>
      <point x="268" y="0" type="curve" smooth="yes"/>
      <point x="358" y="0"/>
      <point x="470" y="104"/>
    </contour>
    <contour>
      <point x="55" y="-30" type="curve"/>
      <point x="65" y="-30" type="line"/>
      <point x="45" y="-146"/>
      <point x="106" y="-220"/>
      <point x="213" y="-220" type="curve" smooth="yes"/>
      <point x="320" y="-220"/>
      <point x="426" y="-145"/>
      <point x="453" y="10" type="curve" smooth="yes"/>
      <point x="532" y="460" type="line"/>
      <point x="542" y="460" type="line"/>
      <point x="463" y="10" type="line" smooth="yes"/>
      <point x="435" y="-149"/>
      <point x="326" y="-230"/>
      <point x="211" y="-230" type="curve" smooth="yes"/>
      <point x="96" y="-230"/>
      <point x="34" y="-149"/>
    </contour>
    <contour>
      <point x="375" y="665" type="line"/>
      <point x="198" y="530" type="line"/>
      <point x="193" y="537" type="line"/>
      <point x="377" y="677" type="line"/>
      <point x="513" y="537" type="line"/>
      <point x="504" y="530" type="line"/>
    </contour>
  </outline>
</glyph>
<glyph name="Gbreve" format="1">
  <advance width="765"/>
  <unicode hex="011E"/>
  <outline>
    <contour>
      <point x="478" y="330" type="line"/>
      <point x="480" y="340" type="line"/>
      <point x="770" y="340" type="line"/>
      <point x="758" y="330" type="line"/>
    </contour>
    <contour>
      <point x="770" y="340" type="line"/>
      <point x="738" y="156"/>
      <point x="583" y="-8"/>
      <point x="389" y="-8" type="curve" smooth="yes"/>
      <point x="195" y="-8"/>
      <point x="75" y="141"/>
      <point x="112" y="350" type="curve" smooth="yes"/>
      <point x="149" y="559"/>
      <point x="321" y="708"/>
      <point x="515" y="708" type="curve" smooth="yes"/>
      <point x="644" y="708"/>
      <point x="721" y="643"/>
      <point x="766" y="556" type="curve"/>
      <point x="755" y="550" type="line"/>
      <point x="720" y="633"/>
      <point x="635" y="697"/>
      <point x="513" y="697" type="curve" smooth="yes"/>
      <point x="322" y="697"/>
      <point x="159" y="553"/>
      <point x="123" y="350" type="curve" smooth="yes"/>
      <point x="88" y="150"/>
      <point x="199" y="3"/>
      <point x="391" y="3" type="curve" smooth="yes"/>
      <point x="579" y="3"/>
      <point x="727" y="161"/>
      <point x="759" y="340" type="curve"/>
    </contour>
    <contour>
      <point x="396" y="928" type="curve"/>
      <point x="406" y="928" type="line"/>
      <point x="394" y="862"/>
      <point x="439" y="798"/>
      <point x="531" y="798" type="curve" smooth="yes"/>
      <point x="623" y="798"/>
      <point x="690" y="862"/>
      <point x="702" y="928" type="curve"/>
      <point x="712" y="928" type="line"/>
      <point x="700" y="859"/>
      <point x="634" y="788"/>
      <point x="529" y="788" type="curve" smooth="yes"/>
      <point x="424" y="788"/>
      <point x="384" y="859"/>
    </contour>
  </outline>
</glyph>
<glyph name="Gdotaccent" format="1">
  <advance width="765"/>
  <unicode hex="0120"/>
  <outline>
    <contour>
      <point x="478" y="330" type="line"/>
      <point x="480" y="340" type="line"/>
      <point x="770" y="340" type="line"/>
      <point x="758" y="330" type="line"/>
    </contour>
    <contour>
      <point x="770" y="340" type="line"/>
      <point x="738" y="156"/>
      <point x="583" y="-8"/>
      <point x="389" y="-8" type="curve" smooth="yes"/>
      <point x="195" y="-8"/>
      <point x="75" y="141"/>
      <point x="112" y="350" type="curve" smooth="yes"/>
      <point x="149" y="559"/>
      <point x="321" y="708"/>
      <point x="515" y="708" type="curve" smooth="yes"/>
      <point x="644" y="708"/>
      <point x="721" y="643"/>
      <point x="766" y="556" type="curve"/>
      <point x="755" y="550" type="line"/>
      <point x="720" y="633"/>
      <point x="635" y="697"/>
      <point x="513" y="697" type="curve" smooth="yes"/>
      <point x="322" y="697"/>
      <point x="159" y="553"/>
      <point x="123" y="350" type="curve" smooth="yes"/>
      <point x="88" y="150"/>
      <point x="199" y="3"/>
      <point x="391" y="3" type="curve" smooth="yes"/>
      <point x="579" y="3"/>
      <point x="727" y="161"/>
      <point x="759" y="340" type="curve"/>
    </contour>
    <contour>
      <point x="516" y="779" type="curve" smooth="yes"/>
      <point x="517" y="786"/>
      <point x="523" y="790"/>
      <point x="529" y="790" type="curve" smooth="yes"/>
      <point x="535" y="790"/>
      <point x="539" y="786"/>
      <point x="538" y="779" type="curve" smooth="yes"/>
      <point x="537" y="772"/>
      <point x="531" y="768"/>
      <point x="525" y="768" type="curve" smooth="yes"/>
      <point x="519" y="768"/>
      <point x="515" y="772"/>
    </contour>
  </outline>
</glyph>
<glyph name="gdotaccent" format="1">
  <advance width="541"/>
  <unicode hex="0121"/>
  <outline>
    <contour>
      <point x="497" y="230" type="curve"/>
      <point x="492" y="230" type="line"/>
      <point x="514" y="356"/>
      <point x="439" y="460"/>
      <point x="349" y="460" type="curve" smooth="yes"/>
      <point x="219" y="460"/>
      <point x="120" y="366"/>
      <point x="96" y="230" type="curve"/>
      <point x="86" y="230" type="line"/>
      <point x="112" y="379"/>
      <point x="221" y="470"/>
      <point x="346" y="470" type="curve" smooth="yes"/>
      <point x="441" y="470"/>
      <point x="523" y="379"/>
    </contour>
    <contour>
      <point x="492" y="230" type="curve"/>
      <point x="497" y="230" type="line"/>
      <point x="471" y="81"/>
      <point x="356" y="-10"/>
      <point x="261" y="-10" type="curve" smooth="yes"/>
      <point x="136" y="-10"/>
      <point x="60" y="81"/>
      <point x="86" y="230" type="curve"/>
      <point x="96" y="230" type="line"/>
      <point x="72" y="94"/>
      <point x="138" y="0"/>
      <point x="268" y="0" type="curve" smooth="yes"/>
      <point x="358" y="0"/>
      <point x="470" y="104"/>
    </contour>
    <contour>
      <point x="55" y="-30" type="curve"/>
      <point x="65" y="-30" type="line"/>
      <point x="45" y="-146"/>
      <point x="106" y="-220"/>
      <point x="213" y="-220" type="curve" smooth="yes"/>
      <point x="320" y="-220"/>
      <point x="426" y="-145"/>
      <point x="453" y="10" type="curve" smooth="yes"/>
      <point x="532" y="460" type="line"/>
      <point x="542" y="460" type="line"/>
      <point x="463" y="10" type="line" smooth="yes"/>
      <point x="435" y="-149"/>
      <point x="326" y="-230"/>
      <point x="211" y="-230" type="curve" smooth="yes"/>
      <point x="96" y="-230"/>
      <point x="34" y="-149"/>
    </contour>
    <contour>
      <point x="342" y="541" type="curve" smooth="yes"/>
      <point x="343" y="548"/>
      <point x="349" y="552"/>
      <point x="355" y="552" type="curve" smooth="yes"/>
      <point x="361" y="552"/>
      <point x="365" y="548"/>
      <point x="364" y="541" type="curve" smooth="yes"/>
      <point x="363" y="534"/>
      <point x="357" y="530"/>
      <point x="351" y="530" type="curve" smooth="yes"/>
      <point x="345" y="530"/>
      <point x="341" y="534"/>
    </contour>
  </outline>
</glyph>
<glyph name="uni0122" format="1">
  <advance width="765"/>
  <unicode hex="0122"/>
  <outline>
    <contour>
      <point x="478" y="330" type="line"/>
      <point x="480" y="340" type="line"/>
      <point x="770" y="340" type="line"/>
      <point x="758" y="330" type="line"/>
    </contour>
    <contour>
      <point x="770" y="340" type="line"/>
      <point x="738" y="156"/>
      <point x="583" y="-8"/>
      <point x="389" y="-8" type="curve" smooth="yes"/>
      <point x="195" y="-8"/>
      <point x="75" y="141"/>
      <point x="112" y="350" type="curve" smooth="yes"/>
      <point x="149" y="559"/>
      <point x="321" y="708"/>
      <point x="515" y="708" type="curve" smooth="yes"/>
      <point x="644" y="708"/>
      <point x="721" y="643"/>
      <point x="766" y="556" type="curve"/>
      <point x="755" y="550" type="line"/>
      <point x="720" y="633"/>
      <point x="635" y="697"/>
      <point x="513" y="697" type="curve" smooth="yes"/>
      <point x="322" y="697"/>
      <point x="159" y="553"/>
      <point x="123" y="350" type="curve" smooth="yes"/>
      <point x="88" y="150"/>
      <point x="199" y="3"/>
      <point x="391" y="3" type="curve" smooth="yes"/>
      <point x="579" y="3"/>
      <point x="727" y="161"/>
      <point x="759" y="340" type="curve"/>
    </contour>
    <contour>
      <point x="425" y="-68" type="line"/>
      <point x="435" y="-73" type="line"/>
      <point x="281" y="-323" type="line"/>
      <point x="275" y="-321" type="line"/>
    </contour>
  </outline>
</glyph>
<glyph name="hcircumflex" format="1">
  <advance width="475"/>
  <unicode hex="0125"/>
  <outline>
    <contour>
      <point x="233" y="780" type="line"/>
      <point x="95" y="0" type="line"/>
      <point x="85" y="0" type="line"/>
      <point x="223" y="780" type="line"/>
    </contour>
    <contour>
      <point x="436" y="320" type="line" smooth="yes"/>
      <point x="450" y="401"/>
      <point x="428" y="460"/>
      <point x="338" y="460" type="curve" smooth="yes"/>
      <point x="247" y="460"/>
      <point x="161" y="375"/>
      <point x="144" y="280" type="curve"/>
      <point x="139" y="280" type="line"/>
      <point x="158" y="389"/>
      <point x="245" y="470"/>
      <point x="340" y="470" type="curve" smooth="yes"/>
      <point x="435" y="470"/>
      <point x="462" y="409"/>
      <point x="446" y="320" type="curve" smooth="yes"/>
      <point x="390" y="0" type="line"/>
      <point x="380" y="0" type="line"/>
    </contour>
    <contour>
      <point x="270" y="975" type="line"/>
      <point x="92" y="840" type="line"/>
      <point x="87" y="847" type="line"/>
      <point x="272" y="987" type="line"/>
      <point x="407" y="847" type="line"/>
      <point x="398" y="840" type="line"/>
    </contour>
  </outline>
</glyph>
<glyph name="Itilde" format="1">
  <advance width="180"/>
  <unicode hex="0128"/>
  <outline>
    <contour>
      <point x="208" y="700" type="line"/>
      <point x="218" y="700" type="line"/>
      <point x="95" y="0" type="line"/>
      <point x="85" y="0" type="line"/>
    </contour>
    <contour>
      <point x="122" y="831" type="line"/>
      <point x="127" y="860"/>
      <point x="149" y="889"/>
      <point x="194" y="889" type="curve" smooth="yes"/>
      <point x="249" y="889"/>
      <point x="255" y="842"/>
      <point x="309" y="842" type="curve" smooth="yes"/>
      <point x="338" y="842"/>
      <point x="353" y="858"/>
      <point x="374" y="890" type="curve"/>
      <point x="382" y="887" type="line"/>
      <point x="359" y="850"/>
      <point x="337" y="834"/>
      <point x="307" y="834" type="curve" smooth="yes"/>
      <point x="252" y="834"/>
      <point x="239" y="881"/>
      <point x="194" y="881" type="curve" smooth="yes"/>
      <point x="153" y="881"/>
      <point x="134" y="855"/>
      <point x="130" y="830" type="curve"/>
    </contour>
  </outline>
</glyph>
<glyph name="itilde" format="1">
  <advance width="190"/>
  <unicode hex="0129"/>
  <outline>
    <contour>
      <point x="171" y="460" type="line"/>
      <point x="181" y="460" type="line"/>
      <point x="100" y="0" type="line"/>
      <point x="90" y="0" type="line"/>
    </contour>
    <contour>
      <point x="86" y="591" type="line"/>
      <point x="91" y="620"/>
      <point x="113" y="649"/>
      <point x="158" y="649" type="curve" smooth="yes"/>
      <point x="213" y="649"/>
      <point x="220" y="602"/>
      <point x="274" y="602" type="curve" smooth="yes"/>
      <point x="303" y="602"/>
      <point x="318" y="618"/>
      <point x="339" y="650" type="curve"/>
      <point x="347" y="647" type="line"/>
      <point x="324" y="610"/>
      <point x="302" y="594"/>
      <point x="272" y="594" type="curve" smooth="yes"/>
      <point x="217" y="594"/>
      <point x="204" y="641"/>
      <point x="159" y="641" type="curve" smooth="yes"/>
      <point x="118" y="641"/>
      <point x="99" y="615"/>
      <point x="95" y="590" type="curve"/>
    </contour>
  </outline>
</glyph>
<glyph name="Imacron" format="1">
  <advance width="180"/>
  <unicode hex="012A"/>
  <outline>
    <contour>
      <point x="208" y="700" type="line"/>
      <point x="218" y="700" type="line"/>
      <point x="95" y="0" type="line"/>
      <point x="85" y="0" type="line"/>
    </contour>
    <contour>
      <point x="95" y="835" type="line"/>
      <point x="97" y="845" type="line"/>
      <point x="447" y="845" type="line"/>
      <point x="445" y="835" type="line"/>
    </contour>
  </outline>
</glyph>
<glyph name="imacron" format="1">
  <advance width="190"/>
  <unicode hex="012B"/>
  <outline>
    <contour>
      <point x="171" y="460" type="line"/>
      <point x="181" y="460" type="line"/>
      <point x="100" y="0" type="line"/>
      <point x="90" y="0" type="line"/>
    </contour>
    <contour>
      <point x="60" y="595" type="line"/>
      <point x="62" y="605" type="line"/>
      <point x="412" y="605" type="line"/>
      <point x="410" y="595" type="line"/>
    </contour>
  </outline>
</glyph>
<glyph name="ibreve" format="1">
  <advance width="190"/>
  <unicode hex="012D"/>
  <outline>
    <contour>
      <point x="171" y="460" type="line"/>
      <point x="181" y="460" type="line"/>
      <point x="100" y="0" type="line"/>
      <point x="90" y="0" type="line"/>
    </contour>
    <contour>
      <point x="55" y="670" type="curve"/>
      <point x="65" y="670" type="line"/>
      <point x="53" y="604"/>
      <point x="98" y="540"/>
      <point x="190" y="540" type="curve" smooth="yes"/>
      <point x="282" y="540"/>
      <point x="349" y="604"/>
      <point x="361" y="670" type="curve"/>
      <point x="371" y="670" type="line"/>
      <point x="359" y="601"/>
      <point x="293" y="530"/>
      <point x="188" y="530" type="curve" smooth="yes"/>
      <point x="83" y="530"/>
      <point x="43" y="601"/>
    </contour>
  </outline>
</glyph>
<glyph name="Iogonek" format="1">
  <advance width="180"/>
  <unicode hex="012E"/>
  <outline>
    <contour>
      <point x="208" y="700" type="line"/>
      <point x="218" y="700" type="line"/>
      <point x="95" y="0" type="line"/>
      <point x="85" y="0" type="line"/>
    </contour>
    <contour>
      <point x="98" y="-173" type="curve"/>
      <point x="104" y="-180" type="line"/>
      <point x="85" y="-200"/>
      <point x="42" y="-220"/>
      <point x="-1" y="-220" type="curve" smooth="yes"/>
      <point x="-65" y="-220"/>
      <point x="-99" y="-189"/>
      <point x="-90" y="-140" type="curve"/>
      <point x="-80" y="-140" type="line"/>
      <point x="-88" y="-186"/>
      <point x="-49" y="-210"/>
      <point x="1" y="-210" type="curve" smooth="yes"/>
      <point x="41" y="-210"/>
      <point x="80" y="-191"/>
    </contour>
    <contour>
      <point x="-80" y="-140" type="curve"/>
      <point x="-90" y="-140" type="line"/>
      <point x="-78" y="-71"/>
      <point x="14" y="-26"/>
      <point x="90" y="10" type="curve"/>
      <point x="95" y="0" type="line"/>
      <point x="21" y="-32"/>
      <point x="-70" y="-83"/>
    </contour>
  </outline>
</glyph>
<glyph name="iogonek" format="1">
  <advance width="190"/>
  <unicode hex="012F"/>
  <outline>
    <contour>
      <point x="208" y="695" type="curve" smooth="yes"/>
      <point x="209" y="701"/>
      <point x="212" y="705"/>
      <point x="219" y="705" type="curve" smooth="yes"/>
      <point x="226" y="705"/>
      <point x="229" y="701"/>
      <point x="228" y="695" type="curve" smooth="yes"/>
      <point x="227" y="689"/>
      <point x="223" y="685"/>
      <point x="216" y="685" type="curve" smooth="yes"/>
      <point x="209" y="685"/>
      <point x="207" y="689"/>
    </contour>
    <contour>
      <point x="171" y="460" type="line"/>
      <point x="181" y="460" type="line"/>
      <point x="100" y="0" type="line"/>
      <point x="90" y="0" type="line"/>
    </contour>
    <contour>
      <point x="103" y="-173" type="curve"/>
      <point x="109" y="-180" type="line"/>
      <point x="90" y="-200"/>
      <point x="47" y="-220"/>
      <point x="4" y="-220" type="curve" smooth="yes"/>
      <point x="-60" y="-220"/>
      <point x="-94" y="-189"/>
      <point x="-85" y="-140" type="curve"/>
      <point x="-75" y="-140" type="line"/>
      <point x="-83" y="-186"/>
      <point x="-44" y="-210"/>
      <point x="6" y="-210" type="curve" smooth="yes"/>
      <point x="46" y="-210"/>
      <point x="85" y="-191"/>
    </contour>
    <contour>
      <point x="-75" y="-140" type="curve"/>
      <point x="-85" y="-140" type="line"/>
      <point x="-73" y="-71"/>
      <point x="19" y="-26"/>
      <point x="95" y="10" type="curve"/>
      <point x="100" y="0" type="line"/>
      <point x="26" y="-32"/>
      <point x="-65" y="-83"/>
    </contour>
  </outline>
</glyph>
<glyph name="IJ" format="1">
  <advance width="490"/>
  <unicode hex="0132"/>
  <outline>
    <contour>
      <point x="95" y="-158" type="line"/>
      <point x="115" y="-182"/>
      <point x="150" y="-209"/>
      <point x="196" y="-209" type="curve" smooth="yes"/>
      <point x="285" y="-209"/>
      <point x="317" y="-166"/>
      <point x="337" y="-50" type="curve" smooth="yes"/>
      <point x="469" y="700" type="line"/>
      <point x="480" y="700" type="line"/>
      <point x="346" y="-60" type="line" smooth="yes"/>
      <point x="327" y="-169"/>
      <point x="289" y="-220"/>
      <point x="195" y="-220" type="curve" smooth="yes"/>
      <point x="142" y="-220"/>
      <point x="98" y="-185"/>
      <point x="87" y="-165" type="curve"/>
    </contour>
    <contour>
      <point x="208" y="700" type="line"/>
      <point x="218" y="700" type="line"/>
      <point x="95" y="0" type="line"/>
      <point x="85" y="0" type="line"/>
    </contour>
  </outline>
</glyph>
<glyph name="jcircumflex" format="1">
  <advance width="180"/>
  <unicode hex="0135"/>
  <outline>
    <contour>
      <point x="-125" y="-165" type="line"/>
      <point x="-113" y="-185"/>
      <point x="-92" y="-210"/>
      <point x="-55" y="-210" type="curve" smooth="yes"/>
      <point x="25" y="-210"/>
      <point x="56" y="-138"/>
      <point x="66" y="-82" type="curve" smooth="yes"/>
      <point x="161" y="460" type="line"/>
      <point x="171" y="460" type="line"/>
      <point x="76" y="-82" type="line" smooth="yes"/>
      <point x="64" y="-151"/>
      <point x="27" y="-220"/>
      <point x="-57" y="-220" type="curve" smooth="yes"/>
      <point x="-100" y="-220"/>
      <point x="-122" y="-192"/>
      <point x="-133" y="-172" type="curve"/>
    </contour>
    <contour>
      <point x="243" y="698" type="line"/>
      <point x="66" y="563" type="line"/>
      <point x="61" y="570" type="line"/>
      <point x="245" y="710" type="line"/>
      <point x="381" y="570" type="line"/>
      <point x="372" y="563" type="line"/>
    </contour>
  </outline>
</glyph>
<glyph name="lacute" format="1">
  <advance width="180"/>
  <unicode hex="013A"/>
  <outline>
    <contour>
      <point x="223" y="780" type="line"/>
      <point x="233" y="780" type="line"/>
      <point x="95" y="0" type="line"/>
      <point x="85" y="0" type="line"/>
    </contour>
    <contour>
      <point x="442" y="997" type="line"/>
      <point x="240" y="840" type="line"/>
      <point x="237" y="845" type="line"/>
      <point x="435" y="1005" type="line"/>
    </contour>
  </outline>
</glyph>
<glyph name="uni013C" format="1">
  <advance width="180"/>
  <unicode hex="013C"/>
  <outline>
    <contour>
      <point x="223" y="780" type="line"/>
      <point x="233" y="780" type="line"/>
      <point x="95" y="0" type="line"/>
      <point x="85" y="0" type="line"/>
    </contour>
    <contour>
      <point x="106" y="-60" type="line"/>
      <point x="117" y="-65" type="line"/>
      <point x="-38" y="-315" type="line"/>
      <point x="-43" y="-313" type="line"/>
    </contour>
  </outline>
</glyph>
<glyph name="Lcaron" format="1">
  <advance width="450"/>
  <unicode hex="013D"/>
  <outline>
    <contour>
      <point x="97" y="0" type="line"/>
      <point x="99" y="10" type="line"/>
      <point x="412" y="10" type="line"/>
      <point x="410" y="0" type="line"/>
    </contour>
    <contour>
      <point x="213" y="700" type="line"/>
      <point x="223" y="700" type="line"/>
      <point x="100" y="0" type="line"/>
      <point x="90" y="0" type="line"/>
    </contour>
    <contour>
      <point x="467" y="694" type="line"/>
      <point x="477" y="689" type="line"/>
      <point x="323" y="439" type="line"/>
      <point x="318" y="441" type="line"/>
    </contour>
  </outline>
</glyph>
<glyph name="lcaron" format="1">
  <advance width="230"/>
  <unicode hex="013E"/>
  <outline>
    <contour>
      <point x="223" y="780" type="line"/>
      <point x="233" y="780" type="line"/>
      <point x="95" y="0" type="line"/>
      <point x="85" y="0" type="line"/>
    </contour>
    <contour>
      <point x="455" y="764" type="line"/>
      <point x="465" y="759" type="line"/>
      <point x="311" y="509" type="line"/>
      <point x="305" y="511" type="line"/>
    </contour>
  </outline>
</glyph>
<glyph name="Lslash" format="1">
  <advance width="375"/>
  <unicode hex="0141"/>
  <outline>
    <contour>
      <point x="59" y="387" type="line"/>
      <point x="55" y="395" type="line"/>
      <point x="355" y="565" type="line"/>
      <point x="359" y="557" type="line"/>
    </contour>
    <contour>
      <point x="84" y="0" type="line"/>
      <point x="86" y="10" type="line"/>
      <point x="367" y="10" type="line"/>
      <point x="365" y="0" type="line"/>
    </contour>
    <contour>
      <point x="203" y="700" type="line"/>
      <point x="214" y="700" type="line"/>
      <point x="91" y="0" type="line"/>
      <point x="80" y="0" type="line"/>
    </contour>
  </outline>
</glyph>
<glyph name="uni0145" format="1">
  <advance width="665"/>
  <unicode hex="0145"/>
  <outline>
    <contour>
      <point x="181" y="678" type="line"/>
      <point x="176" y="715" type="line"/>
      <point x="587" y="17" type="line"/>
      <point x="592" y="-15" type="line"/>
    </contour>
    <contour>
      <point x="707" y="700" type="line"/>
      <point x="718" y="700" type="line"/>
      <point x="592" y="-15" type="line"/>
      <point x="587" y="17" type="line"/>
    </contour>
    <contour>
      <point x="176" y="715" type="line"/>
      <point x="181" y="678" type="line"/>
      <point x="61" y="0" type="line"/>
      <point x="50" y="0" type="line"/>
    </contour>
    <contour>
      <point x="334" y="-45" type="line"/>
      <point x="344" y="-50" type="line"/>
      <point x="190" y="-300" type="line"/>
      <point x="184" y="-298" type="line"/>
    </contour>
  </outline>
</glyph>
<glyph name="Ncaron" format="1">
  <advance width="665"/>
  <unicode hex="0147"/>
  <outline>
    <contour>
      <point x="181" y="678" type="line"/>
      <point x="176" y="715" type="line"/>
      <point x="587" y="17" type="line"/>
      <point x="592" y="-15" type="line"/>
    </contour>
    <contour>
      <point x="707" y="700" type="line"/>
      <point x="718" y="700" type="line"/>
      <point x="592" y="-15" type="line"/>
      <point x="587" y="17" type="line"/>
    </contour>
    <contour>
      <point x="176" y="715" type="line"/>
      <point x="181" y="678" type="line"/>
      <point x="61" y="0" type="line"/>
      <point x="50" y="0" type="line"/>
    </contour>
    <contour>
      <point x="477" y="777" type="line"/>
      <point x="653" y="913" type="line"/>
      <point x="660" y="905" type="line"/>
      <point x="475" y="765" type="line"/>
      <point x="340" y="905" type="line"/>
      <point x="349" y="913" type="line"/>
    </contour>
  </outline>
</glyph>
<glyph name="ncaron" format="1">
  <advance width="475"/>
  <unicode hex="0148"/>
  <outline>
    <contour>
      <point x="176" y="460" type="line"/>
      <point x="95" y="0" type="line"/>
      <point x="85" y="0" type="line"/>
      <point x="166" y="460" type="line"/>
    </contour>
    <contour>
      <point x="436" y="320" type="line" smooth="yes"/>
      <point x="450" y="401"/>
      <point x="428" y="460"/>
      <point x="338" y="460" type="curve" smooth="yes"/>
      <point x="247" y="460"/>
      <point x="161" y="375"/>
      <point x="144" y="280" type="curve"/>
      <point x="139" y="280" type="line"/>
      <point x="158" y="389"/>
      <point x="245" y="470"/>
      <point x="340" y="470" type="curve" smooth="yes"/>
      <point x="435" y="470"/>
      <point x="462" y="409"/>
      <point x="446" y="320" type="curve" smooth="yes"/>
      <point x="390" y="0" type="line"/>
      <point x="380" y="0" type="line"/>
    </contour>
    <contour>
      <point x="334" y="542" type="line"/>
      <point x="510" y="678" type="line"/>
      <point x="516" y="670" type="line"/>
      <point x="331" y="530" type="line"/>
      <point x="196" y="670" type="line"/>
      <point x="206" y="678" type="line"/>
    </contour>
  </outline>
</glyph>
<glyph name="napostrophe" format="1">
  <advance width="615"/>
  <unicode hex="0149"/>
  <outline>
    <contour>
      <point x="266" y="460" type="line"/>
      <point x="185" y="0" type="line"/>
      <point x="175" y="0" type="line"/>
      <point x="256" y="460" type="line"/>
    </contour>
    <contour>
      <point x="526" y="320" type="line" smooth="yes"/>
      <point x="540" y="401"/>
      <point x="518" y="460"/>
      <point x="428" y="460" type="curve" smooth="yes"/>
      <point x="337" y="460"/>
      <point x="251" y="375"/>
      <point x="234" y="280" type="curve"/>
      <point x="229" y="280" type="line"/>
      <point x="248" y="389"/>
      <point x="335" y="470"/>
      <point x="430" y="470" type="curve" smooth="yes"/>
      <point x="525" y="470"/>
      <point x="552" y="409"/>
      <point x="536" y="320" type="curve" smooth="yes"/>
      <point x="480" y="0" type="line"/>
      <point x="470" y="0" type="line"/>
    </contour>
    <contour>
      <point x="296" y="700" type="line"/>
      <point x="308" y="700" type="line"/>
      <point x="173" y="470" type="line"/>
      <point x="163" y="470" type="line"/>
    </contour>
  </outline>
</glyph>
<glyph name="Obreve" format="1">
  <advance width="774"/>
  <unicode hex="014E"/>
  <outline>
    <contour>
      <point x="123" y="350" type="curve" smooth="yes"/>
      <point x="88" y="149"/>
      <point x="197" y="3"/>
      <point x="388" y="3" type="curve" smooth="yes"/>
      <point x="579" y="3"/>
      <point x="740" y="149"/>
      <point x="775" y="350" type="curve" smooth="yes"/>
      <point x="810" y="551"/>
      <point x="701" y="697"/>
      <point x="510" y="697" type="curve" smooth="yes"/>
      <point x="319" y="697"/>
      <point x="158" y="551"/>
    </contour>
    <contour>
      <point x="112" y="350" type="curve" smooth="yes"/>
      <point x="149" y="559"/>
      <point x="318" y="708"/>
      <point x="512" y="708" type="curve" smooth="yes"/>
      <point x="706" y="708"/>
      <point x="823" y="559"/>
      <point x="786" y="350" type="curve" smooth="yes"/>
      <point x="749" y="141"/>
      <point x="580" y="-8"/>
      <point x="386" y="-8" type="curve" smooth="yes"/>
      <point x="192" y="-8"/>
      <point x="75" y="141"/>
    </contour>
    <contour>
      <point x="389" y="908" type="curve"/>
      <point x="399" y="908" type="line"/>
      <point x="387" y="842"/>
      <point x="432" y="778"/>
      <point x="524" y="778" type="curve" smooth="yes"/>
      <point x="616" y="778"/>
      <point x="683" y="842"/>
      <point x="695" y="908" type="curve"/>
      <point x="705" y="908" type="line"/>
      <point x="693" y="839"/>
      <point x="627" y="768"/>
      <point x="522" y="768" type="curve" smooth="yes"/>
      <point x="417" y="768"/>
      <point x="377" y="839"/>
    </contour>
  </outline>
</glyph>
<glyph name="obreve" format="1">
  <advance width="556"/>
  <unicode hex="014F"/>
  <outline>
    <contour>
      <point x="86" y="230" type="curve" smooth="yes"/>
      <point x="111" y="369"/>
      <point x="229" y="470"/>
      <point x="361" y="470" type="curve" smooth="yes"/>
      <point x="493" y="470"/>
      <point x="577" y="369"/>
      <point x="552" y="230" type="curve" smooth="yes"/>
      <point x="527" y="91"/>
      <point x="408" y="-10"/>
      <point x="276" y="-10" type="curve" smooth="yes"/>
      <point x="144" y="-10"/>
      <point x="61" y="91"/>
    </contour>
    <contour>
      <point x="96" y="230" type="curve" smooth="yes"/>
      <point x="72" y="96"/>
      <point x="153" y="0"/>
      <point x="278" y="0" type="curve" smooth="yes"/>
      <point x="403" y="0"/>
      <point x="518" y="96"/>
      <point x="542" y="230" type="curve" smooth="yes"/>
      <point x="566" y="364"/>
      <point x="484" y="460"/>
      <point x="359" y="460" type="curve" smooth="yes"/>
      <point x="234" y="460"/>
      <point x="120" y="364"/>
    </contour>
    <contour>
      <point x="238" y="670" type="curve"/>
      <point x="248" y="670" type="line"/>
      <point x="236" y="604"/>
      <point x="281" y="540"/>
      <point x="373" y="540" type="curve" smooth="yes"/>
      <point x="465" y="540"/>
      <point x="532" y="604"/>
      <point x="544" y="670" type="curve"/>
      <point x="554" y="670" type="line"/>
      <point x="542" y="601"/>
      <point x="476" y="530"/>
      <point x="371" y="530" type="curve" smooth="yes"/>
      <point x="266" y="530"/>
      <point x="226" y="601"/>
    </contour>
  </outline>
</glyph>
<glyph name="racute" format="1">
  <advance width="290"/>
  <unicode hex="0155"/>
  <outline>
    <contour>
      <point x="176" y="460" type="line"/>
      <point x="95" y="0" type="line"/>
      <point x="85" y="0" type="line"/>
      <point x="166" y="460" type="line"/>
    </contour>
    <contour>
      <point x="347" y="440" type="line"/>
      <point x="332" y="452"/>
      <point x="313" y="460"/>
      <point x="293" y="460" type="curve" smooth="yes"/>
      <point x="213" y="460"/>
      <point x="161" y="376"/>
      <point x="144" y="280" type="curve"/>
      <point x="139" y="280" type="line"/>
      <point x="158" y="389"/>
      <point x="210" y="470"/>
      <point x="295" y="470" type="curve" smooth="yes"/>
      <point x="318" y="470"/>
      <point x="339" y="460"/>
      <point x="354" y="448" type="curve"/>
    </contour>
    <contour>
      <point x="437" y="687" type="line"/>
      <point x="235" y="530" type="line"/>
      <point x="232" y="535" type="line"/>
      <point x="431" y="695" type="line"/>
    </contour>
  </outline>
</glyph>
<glyph name="Rcaron" format="1">
  <advance width="468"/>
  <unicode hex="0158"/>
  <outline>
    <contour>
      <point x="255" y="317" type="line"/>
      <point x="267" y="317" type="line"/>
      <point x="433" y="0" type="line"/>
      <point x="419" y="0" type="line"/>
    </contour>
    <contour>
      <point x="213" y="700" type="line"/>
      <point x="224" y="700" type="line"/>
      <point x="101" y="0" type="line"/>
      <point x="90" y="0" type="line"/>
    </contour>
    <contour>
      <point x="213" y="689" type="line"/>
      <point x="215" y="700" type="line"/>
      <point x="328" y="700" type="line" smooth="yes"/>
      <point x="463" y="700"/>
      <point x="553" y="636"/>
      <point x="530" y="507" type="curve" smooth="yes"/>
      <point x="507" y="378"/>
      <point x="395" y="314"/>
      <point x="260" y="314" type="curve" smooth="yes"/>
      <point x="147" y="314" type="line"/>
      <point x="149" y="324" type="line"/>
      <point x="262" y="324" type="line" smooth="yes"/>
      <point x="394" y="324"/>
      <point x="497" y="384"/>
      <point x="519" y="507" type="curve" smooth="yes"/>
      <point x="541" y="630"/>
      <point x="457" y="689"/>
      <point x="326" y="689" type="curve" smooth="yes"/>
    </contour>
    <contour>
      <point x="366" y="780" type="line"/>
      <point x="542" y="916" type="line"/>
      <point x="548" y="908" type="line"/>
      <point x="363" y="768" type="line"/>
      <point x="228" y="908" type="line"/>
      <point x="238" y="916" type="line"/>
    </contour>
  </outline>
</glyph>
<glyph name="rcaron" format="1">
  <advance width="290"/>
  <unicode hex="0159"/>
  <outline>
    <contour>
      <point x="176" y="460" type="line"/>
      <point x="95" y="0" type="line"/>
      <point x="85" y="0" type="line"/>
      <point x="166" y="460" type="line"/>
    </contour>
    <contour>
      <point x="347" y="440" type="line"/>
      <point x="332" y="452"/>
      <point x="313" y="460"/>
      <point x="293" y="460" type="curve" smooth="yes"/>
      <point x="213" y="460"/>
      <point x="161" y="376"/>
      <point x="144" y="280" type="curve"/>
      <point x="139" y="280" type="line"/>
      <point x="158" y="389"/>
      <point x="210" y="470"/>
      <point x="295" y="470" type="curve" smooth="yes"/>
      <point x="318" y="470"/>
      <point x="339" y="460"/>
      <point x="354" y="448" type="curve"/>
    </contour>
    <contour>
      <point x="276" y="542" type="line"/>
      <point x="452" y="678" type="line"/>
      <point x="458" y="670" type="line"/>
      <point x="273" y="530" type="line"/>
      <point x="138" y="670" type="line"/>
      <point x="148" y="678" type="line"/>
    </contour>
  </outline>
</glyph>
<glyph name="Sacute" format="1">
  <advance width="488"/>
  <unicode hex="015A"/>
  <outline>
    <contour>
      <point x="85" y="197" type="line"/>
      <point x="96" y="109"/>
      <point x="135" y="3"/>
      <point x="256" y="3" type="curve" smooth="yes"/>
      <point x="386" y="3"/>
      <point x="446" y="77"/>
      <point x="463" y="175" type="curve" smooth="yes"/>
      <point x="481" y="278"/>
      <point x="401" y="331"/>
      <point x="330" y="359" type="curve" smooth="yes"/>
      <point x="255" y="388"/>
      <point x="158" y="442"/>
      <point x="177" y="550" type="curve" smooth="yes"/>
      <point x="194" y="646"/>
      <point x="284" y="708"/>
      <point x="378" y="708" type="curve" smooth="yes"/>
      <point x="491" y="708"/>
      <point x="531" y="621"/>
      <point x="536" y="550" type="curve"/>
      <point x="526" y="548" type="line"/>
      <point x="519" y="615"/>
      <point x="482" y="697"/>
      <point x="376" y="697" type="curve" smooth="yes"/>
      <point x="286" y="697"/>
      <point x="203" y="636"/>
      <point x="188" y="550" type="curve" smooth="yes"/>
      <point x="170" y="450"/>
      <point x="258" y="399"/>
      <point x="338" y="368" type="curve" smooth="yes"/>
      <point x="416" y="338"/>
      <point x="493" y="283"/>
      <point x="474" y="175" type="curve" smooth="yes"/>
      <point x="457" y="76"/>
      <point x="393" y="-8"/>
      <point x="254" y="-8" type="curve" smooth="yes"/>
      <point x="129" y="-8"/>
      <point x="86" y="96"/>
      <point x="74" y="193" type="curve"/>
    </contour>
    <contour>
      <point x="571" y="925" type="line"/>
      <point x="371" y="768" type="line"/>
      <point x="366" y="773" type="line"/>
      <point x="565" y="933" type="line"/>
    </contour>
  </outline>
</glyph>
<glyph name="Scedilla" format="1">
  <advance width="488"/>
  <unicode hex="015E"/>
  <outline>
    <contour>
      <point x="85" y="197" type="line"/>
      <point x="96" y="109"/>
      <point x="135" y="3"/>
      <point x="256" y="3" type="curve" smooth="yes"/>
      <point x="386" y="3"/>
      <point x="446" y="77"/>
      <point x="463" y="175" type="curve" smooth="yes"/>
      <point x="481" y="278"/>
      <point x="401" y="331"/>
      <point x="330" y="359" type="curve" smooth="yes"/>
      <point x="255" y="388"/>
      <point x="158" y="442"/>
      <point x="177" y="550" type="curve" smooth="yes"/>
      <point x="194" y="646"/>
      <point x="284" y="708"/>
      <point x="378" y="708" type="curve" smooth="yes"/>
      <point x="491" y="708"/>
      <point x="531" y="621"/>
      <point x="536" y="550" type="curve"/>
      <point x="526" y="548" type="line"/>
      <point x="519" y="615"/>
      <point x="482" y="697"/>
      <point x="376" y="697" type="curve" smooth="yes"/>
      <point x="286" y="697"/>
      <point x="203" y="636"/>
      <point x="188" y="550" type="curve" smooth="yes"/>
      <point x="170" y="450"/>
      <point x="258" y="399"/>
      <point x="338" y="368" type="curve" smooth="yes"/>
      <point x="416" y="338"/>
      <point x="493" y="283"/>
      <point x="474" y="175" type="curve" smooth="yes"/>
      <point x="457" y="76"/>
      <point x="393" y="-8"/>
      <point x="254" y="-8" type="curve" smooth="yes"/>
      <point x="129" y="-8"/>
      <point x="86" y="96"/>
      <point x="74" y="193" type="curve"/>
    </contour>
    <contour>
      <point x="249" y="-1" type="line"/>
      <point x="261" y="-1" type="line"/>
      <point x="191" y="-77" type="line"/>
      <point x="178" y="-89" type="line"/>
    </contour>
    <contour>
      <point x="326" y="-127" type="curve"/>
      <point x="316" y="-127" type="line"/>
      <point x="324" y="-83"/>
      <point x="293" y="-63"/>
      <point x="264" y="-63" type="curve" smooth="yes"/>
      <point x="234" y="-63"/>
      <point x="204" y="-73"/>
      <point x="178" y="-89" type="curve"/>
      <point x="191" y="-77" type="line"/>
      <point x="220" y="-61"/>
      <point x="233" y="-53"/>
      <point x="266" y="-53" type="curve" smooth="yes"/>
      <point x="299" y="-53"/>
      <point x="335" y="-78"/>
    </contour>
    <contour>
      <point x="326" y="-127" type="line"/>
      <point x="315" y="-188"/>
      <point x="257" y="-221"/>
      <point x="202" y="-221" type="curve" smooth="yes"/>
      <point x="165" y="-221"/>
      <point x="143" y="-211"/>
      <point x="120" y="-183" type="curve"/>
      <point x="128" y="-177" type="line"/>
      <point x="152" y="-201"/>
      <point x="171" y="-211"/>
      <point x="204" y="-211" type="curve" smooth="yes"/>
      <point x="251" y="-211"/>
      <point x="306" y="-183"/>
      <point x="316" y="-127" type="curve"/>
    </contour>
  </outline>
</glyph>
<glyph name="scedilla" format="1">
  <advance width="403"/>
  <unicode hex="015F"/>
  <outline>
    <contour>
      <point x="76" y="147" type="line"/>
      <point x="77" y="76"/>
      <point x="101" y="0"/>
      <point x="198" y="0" type="curve" smooth="yes"/>
      <point x="270" y="0"/>
      <point x="330" y="45"/>
      <point x="343" y="117" type="curve" smooth="yes"/>
      <point x="355" y="183"/>
      <point x="302" y="211"/>
      <point x="238" y="231" type="curve" smooth="yes"/>
      <point x="169" y="252"/>
      <point x="115" y="272"/>
      <point x="130" y="359" type="curve" smooth="yes"/>
      <point x="143" y="430"/>
      <point x="208" y="468"/>
      <point x="280" y="468" type="curve" smooth="yes"/>
      <point x="360" y="468"/>
      <point x="387" y="419"/>
      <point x="396" y="368" type="curve"/>
      <point x="385" y="365" type="line"/>
      <point x="376" y="413"/>
      <point x="350" y="458"/>
      <point x="278" y="458" type="curve" smooth="yes"/>
      <point x="213" y="458"/>
      <point x="151" y="424"/>
      <point x="140" y="359" type="curve" smooth="yes"/>
      <point x="126" y="278"/>
      <point x="179" y="260"/>
      <point x="245" y="240" type="curve" smooth="yes"/>
      <point x="308" y="221"/>
      <point x="366" y="189"/>
      <point x="353" y="117" type="curve" smooth="yes"/>
      <point x="339" y="38"/>
      <point x="275" y="-10"/>
      <point x="196" y="-10" type="curve" smooth="yes"/>
      <point x="91" y="-10"/>
      <point x="66" y="69"/>
      <point x="65" y="144" type="curve"/>
    </contour>
    <contour>
      <point x="191" y="-3" type="line"/>
      <point x="203" y="-3" type="line"/>
      <point x="134" y="-79" type="line"/>
      <point x="121" y="-91" type="line"/>
    </contour>
    <contour>
      <point x="268" y="-129" type="curve"/>
      <point x="258" y="-129" type="line"/>
      <point x="266" y="-85"/>
      <point x="236" y="-65"/>
      <point x="207" y="-65" type="curve" smooth="yes"/>
      <point x="177" y="-65"/>
      <point x="147" y="-75"/>
      <point x="121" y="-91" type="curve"/>
      <point x="134" y="-79" type="line"/>
      <point x="163" y="-63"/>
      <point x="175" y="-55"/>
      <point x="208" y="-55" type="curve" smooth="yes"/>
      <point x="241" y="-55"/>
      <point x="277" y="-80"/>
    </contour>
    <contour>
      <point x="268" y="-129" type="line"/>
      <point x="257" y="-190"/>
      <point x="200" y="-223"/>
      <point x="145" y="-223" type="curve" smooth="yes"/>
      <point x="108" y="-223"/>
      <point x="85" y="-213"/>
      <point x="62" y="-185" type="curve"/>
      <point x="70" y="-179" type="line"/>
      <point x="94" y="-203"/>
      <point x="113" y="-213"/>
      <point x="146" y="-213" type="curve" smooth="yes"/>
      <point x="193" y="-213"/>
      <point x="248" y="-185"/>
      <point x="258" y="-129" type="curve"/>
    </contour>
  </outline>
</glyph>
<glyph name="Ydieresis" format="1">
  <advance width="507"/>
  <unicode hex="0178"/>
  <outline>
    <contour>
      <point x="291" y="275" type="line"/>
      <point x="302" y="275" type="line"/>
      <point x="254" y="0" type="line"/>
      <point x="243" y="0" type="line"/>
    </contour>
    <contour>
      <point x="602" y="700" type="line"/>
      <point x="615" y="700" type="line"/>
      <point x="293" y="256" type="line"/>
      <point x="138" y="700" type="line"/>
      <point x="151" y="700" type="line"/>
      <point x="298" y="281" type="line"/>
    </contour>
    <contour>
      <point x="469" y="779" type="curve" smooth="yes"/>
      <point x="470" y="786"/>
      <point x="477" y="790"/>
      <point x="483" y="790" type="curve" smooth="yes"/>
      <point x="489" y="790"/>
      <point x="493" y="786"/>
      <point x="492" y="779" type="curve" smooth="yes"/>
      <point x="491" y="772"/>
      <point x="485" y="768"/>
      <point x="479" y="768" type="curve" smooth="yes"/>
      <point x="473" y="768"/>
      <point x="468" y="772"/>
    </contour>
    <contour>
      <point x="289" y="779" type="curve" smooth="yes"/>
      <point x="290" y="786"/>
      <point x="297" y="790"/>
      <point x="303" y="790" type="curve" smooth="yes"/>
      <point x="309" y="790"/>
      <point x="313" y="786"/>
      <point x="312" y="779" type="curve" smooth="yes"/>
      <point x="311" y="772"/>
      <point x="305" y="768"/>
      <point x="299" y="768" type="curve" smooth="yes"/>
      <point x="293" y="768"/>
      <point x="288" y="772"/>
    </contour>
  </outline>
</glyph>
<glyph name="Zacute" format="1">
  <advance width="535"/>
  <unicode hex="0179"/>
  <outline>
    <contour>
      <point x="161" y="689" type="line"/>
      <point x="163" y="700" type="line"/>
      <point x="643" y="700" type="line"/>
      <point x="44" y="11" type="line"/>
      <point x="512" y="11" type="line"/>
      <point x="510" y="0" type="line"/>
      <point x="20" y="0" type="line"/>
      <point x="619" y="689" type="line"/>
    </contour>
    <contour>
      <point x="589" y="925" type="line"/>
      <point x="388" y="768" type="line"/>
      <point x="384" y="773" type="line"/>
      <point x="582" y="933" type="line"/>
    </contour>
  </outline>
</glyph>
<glyph name="zacute" format="1">
  <advance width="430"/>
  <unicode hex="017A"/>
  <outline>
    <contour>
      <point x="458" y="450" type="line"/>
      <point x="119" y="450" type="line"/>
      <point x="121" y="460" type="line"/>
      <point x="481" y="460" type="line"/>
      <point x="43" y="10" type="line"/>
      <point x="412" y="10" type="line"/>
      <point x="410" y="0" type="line"/>
      <point x="20" y="0" type="line"/>
    </contour>
    <contour>
      <point x="487" y="687" type="line"/>
      <point x="286" y="530" type="line"/>
      <point x="282" y="535" type="line"/>
      <point x="480" y="695" type="line"/>
    </contour>
  </outline>
</glyph>
<glyph name="Zdotaccent" format="1">
  <advance width="535"/>
  <unicode hex="017B"/>
  <outline>
    <contour>
      <point x="161" y="689" type="line"/>
      <point x="163" y="700" type="line"/>
      <point x="643" y="700" type="line"/>
      <point x="44" y="11" type="line"/>
      <point x="512" y="11" type="line"/>
      <point x="510" y="0" type="line"/>
      <point x="20" y="0" type="line"/>
      <point x="619" y="689" type="line"/>
    </contour>
    <contour>
      <point x="406" y="779" type="curve" smooth="yes"/>
      <point x="407" y="786"/>
      <point x="413" y="790"/>
      <point x="419" y="790" type="curve" smooth="yes"/>
      <point x="425" y="790"/>
      <point x="429" y="786"/>
      <point x="428" y="779" type="curve" smooth="yes"/>
      <point x="427" y="772"/>
      <point x="421" y="768"/>
      <point x="415" y="768" type="curve" smooth="yes"/>
      <point x="409" y="768"/>
      <point x="405" y="772"/>
    </contour>
  </outline>
</glyph>
<glyph name="zdotaccent" format="1">
  <advance width="430"/>
  <unicode hex="017C"/>
  <outline>
    <contour>
      <point x="458" y="450" type="line"/>
      <point x="119" y="450" type="line"/>
      <point x="121" y="460" type="line"/>
      <point x="481" y="460" type="line"/>
      <point x="43" y="10" type="line"/>
      <point x="412" y="10" type="line"/>
      <point x="410" y="0" type="line"/>
      <point x="20" y="0" type="line"/>
    </contour>
    <contour>
      <point x="310" y="571" type="curve" smooth="yes"/>
      <point x="311" y="578"/>
      <point x="317" y="582"/>
      <point x="323" y="582" type="curve" smooth="yes"/>
      <point x="329" y="582"/>
      <point x="333" y="578"/>
      <point x="332" y="571" type="curve" smooth="yes"/>
      <point x="331" y="564"/>
      <point x="325" y="560"/>
      <point x="319" y="560" type="curve" smooth="yes"/>
      <point x="313" y="560"/>
      <point x="309" y="564"/>
    </contour>
  </outline>
</glyph>
<glyph name="Zcaron" format="1">
  <advance width="535"/>
  <unicode hex="017D"/>
  <outline>
    <contour>
      <point x="161" y="689" type="line"/>
      <point x="163" y="700" type="line"/>
      <point x="643" y="700" type="line"/>
      <point x="44" y="11" type="line"/>
      <point x="512" y="11" type="line"/>
      <point x="510" y="0" type="line"/>
      <point x="20" y="0" type="line"/>
      <point x="619" y="689" type="line"/>
    </contour>
    <contour>
      <point x="418" y="780" type="line"/>
      <point x="594" y="916" type="line"/>
      <point x="600" y="908" type="line"/>
      <point x="415" y="768" type="line"/>
      <point x="280" y="908" type="line"/>
      <point x="290" y="916" type="line"/>
    </contour>
  </outline>
</glyph>
<glyph name="circumflex" format="1">
  <advance width="480"/>
  <unicode hex="02C6"/>
  <outline>
    <contour>
      <point x="367" y="718" type="line"/>
      <point x="190" y="583" type="line"/>
      <point x="184" y="590" type="line"/>
      <point x="369" y="730" type="line"/>
      <point x="504" y="590" type="line"/>
      <point x="496" y="583" type="line"/>
    </contour>
  </outline>
</glyph>
<glyph name="caron" format="1">
  <advance width="480"/>
  <unicode hex="02C7"/>
  <outline>
    <contour>
      <point x="343" y="582" type="line"/>
      <point x="519" y="718" type="line"/>
      <point x="525" y="710" type="line"/>
      <point x="341" y="570" type="line"/>
      <point x="205" y="710" type="line"/>
      <point x="215" y="718" type="line"/>
    </contour>
  </outline>
</glyph>
<glyph name="breve" format="1">
  <advance width="546"/>
  <unicode hex="02D8"/>
  <outline>
    <contour>
      <point x="265" y="850" type="curve"/>
      <point x="275" y="850" type="line"/>
      <point x="263" y="784"/>
      <point x="308" y="720"/>
      <point x="400" y="720" type="curve" smooth="yes"/>
      <point x="492" y="720"/>
      <point x="559" y="784"/>
      <point x="571" y="850" type="curve"/>
      <point x="581" y="850" type="line"/>
      <point x="569" y="781"/>
      <point x="503" y="710"/>
      <point x="398" y="710" type="curve" smooth="yes"/>
      <point x="293" y="710"/>
      <point x="253" y="781"/>
    </contour>
  </outline>
</glyph>
<glyph name="ring" format="1">
  <advance width="278"/>
  <unicode hex="02DA"/>
  <outline>
    <contour>
      <point x="175" y="785" type="curve" smooth="yes"/>
      <point x="186" y="845"/>
      <point x="243" y="885"/>
      <point x="295" y="885" type="curve" smooth="yes"/>
      <point x="347" y="885"/>
      <point x="390" y="845"/>
      <point x="379" y="785" type="curve" smooth="yes"/>
      <point x="368" y="725"/>
      <point x="312" y="685"/>
      <point x="260" y="685" type="curve" smooth="yes"/>
      <point x="208" y="685"/>
      <point x="164" y="725"/>
    </contour>
    <contour>
      <point x="185" y="785" type="curve" smooth="yes"/>
      <point x="176" y="732"/>
      <point x="214" y="695"/>
      <point x="262" y="695" type="curve" smooth="yes"/>
      <point x="310" y="695"/>
      <point x="360" y="732"/>
      <point x="369" y="785" type="curve" smooth="yes"/>
      <point x="378" y="838"/>
      <point x="341" y="875"/>
      <point x="293" y="875" type="curve" smooth="yes"/>
      <point x="245" y="875"/>
      <point x="194" y="838"/>
    </contour>
  </outline>
</glyph>
<glyph name="uni1E9E" format="1">
  <advance width="666"/>
  <unicode hex="1E9E"/>
  <outline>
    <contour>
      <point x="153" y="416" type="line"/>
      <point x="163" y="416" type="line"/>
      <point x="90" y="0" type="line"/>
      <point x="80" y="0" type="line"/>
    </contour>
    <contour>
      <point x="412" y="362" type="curve"/>
      <point x="413" y="370" type="line"/>
      <point x="540" y="370"/>
      <point x="632" y="433"/>
      <point x="650" y="534" type="curve" smooth="yes"/>
      <point x="669" y="640"/>
      <point x="580" y="700"/>
      <point x="475" y="700" type="curve" smooth="yes"/>
      <point x="307" y="700"/>
      <point x="193" y="587"/>
      <point x="163" y="416" type="curve"/>
      <point x="153" y="416" type="line"/>
      <point x="185" y="595"/>
      <point x="302" y="710"/>
      <point x="477" y="710" type="curve" smooth="yes"/>
      <point x="587" y="710"/>
      <point x="680" y="648"/>
      <point x="660" y="534" type="curve" smooth="yes"/>
      <point x="641" y="425"/>
      <point x="547" y="362"/>
    </contour>
    <contour>
      <point x="386" y="-10" type="curve" smooth="yes"/>
      <point x="271" y="-10"/>
      <point x="199" y="76"/>
      <point x="218" y="185" type="curve"/>
      <point x="228" y="185" type="line"/>
      <point x="210" y="81"/>
      <point x="278" y="0"/>
      <point x="388" y="0" type="curve" smooth="yes"/>
      <point x="498" y="0"/>
      <point x="591" y="82"/>
      <point x="609" y="185" type="curve" smooth="yes"/>
      <point x="629" y="300"/>
      <point x="538" y="358"/>
      <point x="411" y="358" type="curve"/>
      <point x="413" y="366" type="line"/>
      <point x="548" y="366"/>
      <point x="640" y="304"/>
      <point x="619" y="185" type="curve" smooth="yes"/>
      <point x="600" y="76"/>
      <point x="501" y="-10"/>
    </contour>
  </outline>
</glyph>
<glyph name="uni2010" format="1">
  <advance width="210"/>
  <unicode hex="2010"/>
  <outline>
    <contour>
      <point x="52" y="265" type="line"/>
      <point x="53" y="275" type="line"/>
      <point x="253" y="275" type="line"/>
      <point x="252" y="265" type="line"/>
    </contour>
  </outline>
</glyph>
<glyph name="figuredash" format="1">
  <advance width="590"/>
  <unicode hex="2012"/>
  <outline>
    <contour>
      <point x="117" y="265" type="line"/>
      <point x="118" y="275" type="line"/>
      <point x="568" y="275" type="line"/>
      <point x="567" y="265" type="line"/>
    </contour>
  </outline>
</glyph>
<glyph name="endash" format="1">
  <advance width="740"/>
  <unicode hex="2013"/>
  <outline>
    <contour>
      <point x="117" y="265" type="line"/>
      <point x="118" y="275" type="line"/>
      <point x="718" y="275" type="line"/>
      <point x="717" y="265" type="line"/>
    </contour>
  </outline>
</glyph>
<glyph name="quoteleft" format="1">
  <advance width="225"/>
  <unicode hex="2018"/>
  <outline>
    <contour>
      <point x="155" y="470" type="line"/>
      <point x="143" y="470" type="line"/>
      <point x="278" y="700" type="line"/>
      <point x="288" y="700" type="line"/>
    </contour>
  </outline>
</glyph>
<glyph name="quotedblleft" format="1">
  <advance width="385"/>
  <unicode hex="201C"/>
  <outline>
    <contour>
      <point x="175" y="470" type="line"/>
      <point x="163" y="470" type="line"/>
      <point x="298" y="700" type="line"/>
      <point x="308" y="700" type="line"/>
    </contour>
    <contour>
      <point x="315" y="470" type="line"/>
      <point x="303" y="470" type="line"/>
      <point x="438" y="700" type="line"/>
      <point x="448" y="700" type="line"/>
    </contour>
  </outline>
</glyph>
<glyph name="quotedblright" format="1">
  <advance width="385"/>
  <unicode hex="201D"/>
  <outline>
    <contour>
      <point x="276" y="700" type="line"/>
      <point x="288" y="700" type="line"/>
      <point x="153" y="470" type="line"/>
      <point x="143" y="470" type="line"/>
    </contour>
    <contour>
      <point x="416" y="700" type="line"/>
      <point x="428" y="700" type="line"/>
      <point x="293" y="470" type="line"/>
      <point x="283" y="470" type="line"/>
    </contour>
  </outline>
</glyph>
<glyph name="ellipsis" format="1">
  <advance width="812"/>
  <unicode hex="2026"/>
  <outline>
    <contour>
      <point x="120" y="1" type="curve" smooth="yes"/>
      <point x="121" y="8"/>
      <point x="127" y="12"/>
      <point x="133" y="12" type="curve" smooth="yes"/>
      <point x="139" y="12"/>
      <point x="143" y="8"/>
      <point x="142" y="1" type="curve" smooth="yes"/>
      <point x="141" y="-6"/>
      <point x="135" y="-10"/>
      <point x="129" y="-10" type="curve" smooth="yes"/>
      <point x="123" y="-10"/>
      <point x="119" y="-6"/>
    </contour>
    <contour>
      <point x="395" y="1" type="curve" smooth="yes"/>
      <point x="396" y="8"/>
      <point x="402" y="12"/>
      <point x="408" y="12" type="curve" smooth="yes"/>
      <point x="414" y="12"/>
      <point x="418" y="8"/>
      <point x="417" y="1" type="curve" smooth="yes"/>
      <point x="416" y="-6"/>
      <point x="410" y="-10"/>
      <point x="404" y="-10" type="curve" smooth="yes"/>
      <point x="398" y="-10"/>
      <point x="394" y="-6"/>
    </contour>
    <contour>
      <point x="670" y="1" type="curve" smooth="yes"/>
      <point x="671" y="8"/>
      <point x="677" y="12"/>
      <point x="683" y="12" type="curve" smooth="yes"/>
      <point x="689" y="12"/>
      <point x="693" y="8"/>
      <point x="692" y="1" type="curve" smooth="yes"/>
      <point x="691" y="-6"/>
      <point x="685" y="-10"/>
      <point x="679" y="-10" type="curve" smooth="yes"/>
      <point x="673" y="-10"/>
      <point x="669" y="-6"/>
    </contour>
  </outline>
</glyph>
<glyph name="uni2031" format="1">
  <advance width="1441"/>
  <unicode hex="2031"/>
  <outline>
    <contour>
      <point x="1135" y="140" type="curve" smooth="yes"/>
      <point x="1150" y="224"/>
      <point x="1219" y="290"/>
      <point x="1309" y="290" type="curve" smooth="yes"/>
      <point x="1399" y="290"/>
      <point x="1446" y="224"/>
      <point x="1431" y="140" type="curve" smooth="yes"/>
      <point x="1416" y="56"/>
      <point x="1346" y="-10"/>
      <point x="1256" y="-10" type="curve" smooth="yes"/>
      <point x="1166" y="-10"/>
      <point x="1120" y="56"/>
    </contour>
    <contour>
      <point x="1145" y="140" type="curve" smooth="yes"/>
      <point x="1132" y="64"/>
      <point x="1173" y="-1"/>
      <point x="1258" y="-1" type="curve" smooth="yes"/>
      <point x="1343" y="-1"/>
      <point x="1408" y="64"/>
      <point x="1421" y="140" type="curve" smooth="yes"/>
      <point x="1434" y="216"/>
      <point x="1392" y="280"/>
      <point x="1307" y="280" type="curve" smooth="yes"/>
      <point x="1222" y="280"/>
      <point x="1158" y="216"/>
    </contour>
    <contour>
      <point x="765" y="140" type="curve" smooth="yes"/>
      <point x="780" y="224"/>
      <point x="849" y="290"/>
      <point x="939" y="290" type="curve" smooth="yes"/>
      <point x="1029" y="290"/>
      <point x="1076" y="224"/>
      <point x="1061" y="140" type="curve" smooth="yes"/>
      <point x="1046" y="56"/>
      <point x="976" y="-10"/>
      <point x="886" y="-10" type="curve" smooth="yes"/>
      <point x="796" y="-10"/>
      <point x="750" y="56"/>
    </contour>
    <contour>
      <point x="775" y="140" type="curve" smooth="yes"/>
      <point x="762" y="64"/>
      <point x="803" y="-1"/>
      <point x="888" y="-1" type="curve" smooth="yes"/>
      <point x="973" y="-1"/>
      <point x="1038" y="64"/>
      <point x="1051" y="140" type="curve" smooth="yes"/>
      <point x="1064" y="216"/>
      <point x="1022" y="280"/>
      <point x="937" y="280" type="curve" smooth="yes"/>
      <point x="852" y="280"/>
      <point x="788" y="216"/>
    </contour>
    <contour>
      <point x="134" y="560" type="curve" smooth="yes"/>
      <point x="149" y="644"/>
      <point x="218" y="710"/>
      <point x="308" y="710" type="curve" smooth="yes"/>
      <point x="398" y="710"/>
      <point x="445" y="644"/>
      <point x="430" y="560" type="curve" smooth="yes"/>
      <point x="415" y="476"/>
      <point x="345" y="410"/>
      <point x="255" y="410" type="curve" smooth="yes"/>
      <point x="165" y="410"/>
      <point x="119" y="476"/>
    </contour>
    <contour>
      <point x="144" y="560" type="curve" smooth="yes"/>
      <point x="131" y="484"/>
      <point x="172" y="419"/>
      <point x="257" y="419" type="curve" smooth="yes"/>
      <point x="342" y="419"/>
      <point x="407" y="484"/>
      <point x="420" y="560" type="curve" smooth="yes"/>
      <point x="433" y="636"/>
      <point x="391" y="700"/>
      <point x="306" y="700" type="curve" smooth="yes"/>
      <point x="221" y="700"/>
      <point x="157" y="636"/>
    </contour>
    <contour>
      <point x="395" y="140" type="curve" smooth="yes"/>
      <point x="410" y="224"/>
      <point x="479" y="290"/>
      <point x="569" y="290" type="curve" smooth="yes"/>
      <point x="659" y="290"/>
      <point x="706" y="224"/>
      <point x="691" y="140" type="curve" smooth="yes"/>
      <point x="676" y="56"/>
      <point x="606" y="-10"/>
      <point x="516" y="-10" type="curve" smooth="yes"/>
      <point x="426" y="-10"/>
      <point x="380" y="56"/>
    </contour>
    <contour>
      <point x="405" y="140" type="curve" smooth="yes"/>
      <point x="392" y="64"/>
      <point x="433" y="-1"/>
      <point x="518" y="-1" type="curve" smooth="yes"/>
      <point x="603" y="-1"/>
      <point x="668" y="64"/>
      <point x="681" y="140" type="curve" smooth="yes"/>
      <point x="694" y="216"/>
      <point x="652" y="280"/>
      <point x="567" y="280" type="curve" smooth="yes"/>
      <point x="482" y="280"/>
      <point x="418" y="216"/>
    </contour>
    <contour>
      <point x="696" y="700" type="line"/>
      <point x="708" y="700" type="line"/>
      <point x="128" y="0" type="line"/>
      <point x="116" y="0" type="line"/>
    </contour>
  </outline>
</glyph>
<glyph name="uni203D" format="1">
  <advance width="557"/>
  <unicode hex="203D"/>
  <outline>
    <contour>
      <point x="544" y="520" type="curve" smooth="yes"/>
      <point x="562" y="621"/>
      <point x="507" y="700"/>
      <point x="387" y="700" type="curve" smooth="yes"/>
      <point x="295" y="700"/>
      <point x="234" y="656"/>
      <point x="178" y="587" type="curve"/>
      <point x="170" y="593" type="line"/>
      <point x="228" y="663"/>
      <point x="290" y="710"/>
      <point x="389" y="710" type="curve" smooth="yes"/>
      <point x="514" y="710"/>
      <point x="573" y="629"/>
      <point x="554" y="520" type="curve" smooth="yes"/>
      <point x="537" y="421"/>
      <point x="429" y="337"/>
      <point x="319" y="337" type="curve"/>
      <point x="313" y="345" type="line"/>
      <point x="423" y="345"/>
      <point x="527" y="424"/>
    </contour>
    <contour>
      <point x="339" y="510" type="line"/>
      <point x="351" y="510" type="line"/>
      <point x="288" y="170" type="line"/>
      <point x="282" y="170" type="line"/>
    </contour>
    <contour>
      <point x="244" y="1" type="curve" smooth="yes"/>
      <point x="245" y="8"/>
      <point x="251" y="12"/>
      <point x="257" y="12" type="curve" smooth="yes"/>
      <point x="263" y="12"/>
      <point x="267" y="8"/>
      <point x="266" y="1" type="curve" smooth="yes"/>
      <point x="265" y="-6"/>
      <point x="259" y="-10"/>
      <point x="253" y="-10" type="curve" smooth="yes"/>
      <point x="247" y="-10"/>
      <point x="243" y="-6"/>
    </contour>
  </outline>
</glyph>
<glyph name="uni2075" format="1">
  <advance width="341"/>
  <unicode hex="2075"/>
  <outline>
    <contour>
      <point x="368" y="416" type="curve" smooth="yes"/>
      <point x="351" y="321"/>
      <point x="283" y="272"/>
      <point x="208" y="272" type="curve" smooth="yes"/>
      <point x="143" y="272"/>
      <point x="110" y="306"/>
      <point x="98" y="360" type="curve"/>
      <point x="104" y="363" type="line"/>
      <point x="117" y="310"/>
      <point x="146" y="278"/>
      <point x="209" y="278" type="curve" smooth="yes"/>
      <point x="281" y="278"/>
      <point x="346" y="325"/>
      <point x="362" y="416" type="curve" smooth="yes"/>
      <point x="375" y="489"/>
      <point x="334" y="540"/>
      <point x="271" y="540" type="curve" smooth="yes"/>
      <point x="219" y="540"/>
      <point x="175" y="516"/>
      <point x="137" y="474" type="curve"/>
      <point x="150" y="493" type="line"/>
      <point x="173" y="520"/>
      <point x="219" y="546"/>
      <point x="272" y="546" type="curve" smooth="yes"/>
      <point x="338" y="546"/>
      <point x="382" y="493"/>
    </contour>
    <contour>
      <point x="234" y="692" type="line"/>
      <point x="150" y="493" type="line"/>
      <point x="137" y="474" type="line"/>
      <point x="231" y="698" type="line"/>
      <point x="429" y="698" type="line"/>
      <point x="428" y="692" type="line"/>
    </contour>
  </outline>
</glyph>
<glyph name="uni2077" format="1">
  <advance width="352"/>
  <unicode hex="2077"/>
  <outline>
    <contour>
      <point x="157" y="694" type="line"/>
      <point x="158" y="700" type="line"/>
      <point x="440" y="700" type="line"/>
      <point x="144" y="280" type="line"/>
      <point x="137" y="280" type="line"/>
      <point x="429" y="694" type="line"/>
    </contour>
  </outline>
</glyph>
<glyph name="uni2078" format="1">
  <advance width="302"/>
  <unicode hex="2078"/>
  <outline>
    <contour>
      <point x="154" y="605" type="curve" smooth="yes"/>
      <point x="163" y="658"/>
      <point x="215" y="706"/>
      <point x="275" y="706" type="curve" smooth="yes"/>
      <point x="335" y="706"/>
      <point x="371" y="658"/>
      <point x="362" y="605" type="curve" smooth="yes"/>
      <point x="352" y="546"/>
      <point x="290" y="501"/>
      <point x="239" y="501" type="curve" smooth="yes"/>
      <point x="188" y="501"/>
      <point x="144" y="546"/>
    </contour>
    <contour>
      <point x="160" y="605" type="curve" smooth="yes"/>
      <point x="150" y="547"/>
      <point x="198" y="505"/>
      <point x="240" y="505" type="curve" smooth="yes"/>
      <point x="282" y="505"/>
      <point x="346" y="547"/>
      <point x="356" y="605" type="curve" smooth="yes"/>
      <point x="365" y="657"/>
      <point x="331" y="700"/>
      <point x="274" y="700" type="curve" smooth="yes"/>
      <point x="217" y="700"/>
      <point x="169" y="657"/>
    </contour>
    <contour>
      <point x="104" y="391" type="curve" smooth="yes"/>
      <point x="115" y="456"/>
      <point x="180" y="503"/>
      <point x="240" y="503" type="curve" smooth="yes"/>
      <point x="300" y="503"/>
      <point x="347" y="456"/>
      <point x="336" y="391" type="curve" smooth="yes"/>
      <point x="325" y="326"/>
      <point x="274" y="274"/>
      <point x="199" y="274" type="curve" smooth="yes"/>
      <point x="124" y="274"/>
      <point x="93" y="326"/>
    </contour>
    <contour>
      <point x="110" y="391" type="curve" smooth="yes"/>
      <point x="99" y="327"/>
      <point x="131" y="280"/>
      <point x="200" y="280" type="curve" smooth="yes"/>
      <point x="269" y="280"/>
      <point x="319" y="327"/>
      <point x="330" y="391" type="curve" smooth="yes"/>
      <point x="341" y="455"/>
      <point x="293" y="499"/>
      <point x="239" y="499" type="curve" smooth="yes"/>
      <point x="185" y="499"/>
      <point x="121" y="455"/>
    </contour>
  </outline>
</glyph>
<glyph name="uni2079" format="1">
  <advance width="332"/>
  <unicode hex="2079"/>
  <outline>
    <contour>
      <point x="387" y="570" type="curve" smooth="yes"/>
      <point x="400" y="646"/>
      <point x="360" y="702"/>
      <point x="285" y="702" type="curve" smooth="yes"/>
      <point x="210" y="702"/>
      <point x="150" y="646"/>
      <point x="137" y="570" type="curve" smooth="yes"/>
      <point x="125" y="500"/>
      <point x="171" y="446"/>
      <point x="234" y="446" type="curve" smooth="yes"/>
      <point x="318" y="446"/>
      <point x="376" y="506"/>
    </contour>
    <contour>
      <point x="174" y="282" type="line"/>
      <point x="167" y="282" type="line"/>
      <point x="348" y="489" type="line"/>
      <point x="348" y="489" type="line"/>
      <point x="318" y="458"/>
      <point x="278" y="440"/>
      <point x="233" y="440" type="curve" smooth="yes"/>
      <point x="165" y="440"/>
      <point x="118" y="499"/>
      <point x="131" y="570" type="curve" smooth="yes"/>
      <point x="145" y="650"/>
      <point x="205" y="708"/>
      <point x="286" y="708" type="curve" smooth="yes"/>
      <point x="367" y="708"/>
      <point x="407" y="650"/>
      <point x="393" y="570" type="curve" smooth="yes"/>
      <point x="387" y="536"/>
      <point x="362" y="497"/>
      <point x="342" y="475" type="curve" smooth="yes"/>
    </contour>
  </outline>
</glyph>
<glyph name="uni2082" format="1">
  <advance width="332"/>
  <unicode hex="2082"/>
  <outline>
    <contour>
      <point x="30" y="2" type="line"/>
      <point x="258" y="203" type="line" smooth="yes"/>
      <point x="292" y="234"/>
      <point x="325" y="264"/>
      <point x="334" y="314" type="curve" smooth="yes"/>
      <point x="342" y="361"/>
      <point x="325" y="423"/>
      <point x="247" y="423" type="curve" smooth="yes"/>
      <point x="175" y="423"/>
      <point x="118" y="363"/>
      <point x="103" y="278" type="curve"/>
      <point x="97" y="278" type="line"/>
      <point x="113" y="367"/>
      <point x="173" y="429"/>
      <point x="248" y="429" type="curve" smooth="yes"/>
      <point x="328" y="429"/>
      <point x="349" y="364"/>
      <point x="340" y="314" type="curve" smooth="yes"/>
      <point x="331" y="265"/>
      <point x="297" y="230"/>
      <point x="262" y="199" type="curve" smooth="yes"/>
      <point x="46" y="8" type="line"/>
      <point x="303" y="8" type="line"/>
      <point x="302" y="2" type="line"/>
    </contour>
  </outline>
</glyph>
<glyph name="uni2083" format="1">
  <advance width="318"/>
  <unicode hex="2083"/>
  <outline>
    <contour>
      <point x="178" y="217" type="curve"/>
      <point x="179" y="222" type="line"/>
      <point x="233" y="222"/>
      <point x="310" y="258"/>
      <point x="321" y="320" type="curve" smooth="yes"/>
      <point x="330" y="370"/>
      <point x="302" y="420"/>
      <point x="235" y="420" type="curve" smooth="yes"/>
      <point x="170" y="420"/>
      <point x="121" y="377"/>
      <point x="110" y="316" type="curve"/>
      <point x="104" y="316" type="line"/>
      <point x="115" y="381"/>
      <point x="167" y="426"/>
      <point x="236" y="426" type="curve" smooth="yes"/>
      <point x="308" y="426"/>
      <point x="336" y="373"/>
      <point x="327" y="320" type="curve" smooth="yes"/>
      <point x="316" y="255"/>
      <point x="241" y="217"/>
    </contour>
    <contour>
      <point x="157" y="-6" type="curve" smooth="yes"/>
      <point x="76" y="-6"/>
      <point x="39" y="46"/>
      <point x="50" y="111" type="curve"/>
      <point x="56" y="111" type="line"/>
      <point x="45" y="47"/>
      <point x="80" y="0"/>
      <point x="158" y="0" type="curve" smooth="yes"/>
      <point x="230" y="0"/>
      <point x="285" y="44"/>
      <point x="296" y="105" type="curve" smooth="yes"/>
      <point x="309" y="180"/>
      <point x="232" y="216"/>
      <point x="178" y="216" type="curve"/>
      <point x="179" y="221" type="line"/>
      <point x="242" y="221"/>
      <point x="316" y="182"/>
      <point x="302" y="105" type="curve" smooth="yes"/>
      <point x="291" y="40"/>
      <point x="232" y="-6"/>
    </contour>
  </outline>
</glyph>
<glyph name="uni2084" format="1">
  <advance width="371"/>
  <unicode hex="2084"/>
  <outline>
    <contour>
      <point x="50" y="84" type="line"/>
      <point x="57" y="90" type="line"/>
      <point x="277" y="90" type="line" smooth="yes"/>
      <point x="279" y="90" type="line" smooth="yes"/>
      <point x="347" y="90" type="line"/>
      <point x="346" y="84" type="line"/>
    </contour>
    <contour>
      <point x="57" y="84" type="line"/>
      <point x="50" y="84" type="line"/>
      <point x="339" y="420" type="line"/>
      <point x="340" y="420" type="line"/>
      <point x="266" y="0" type="line"/>
      <point x="259" y="0" type="line"/>
      <point x="274" y="85" type="line" smooth="yes"/>
      <point x="275" y="88" type="line" smooth="yes"/>
      <point x="330" y="400" type="line"/>
    </contour>
  </outline>
</glyph>
<glyph name="uni2085" format="1">
  <advance width="341"/>
  <unicode hex="2085"/>
  <outline>
    <contour>
      <point x="319" y="136" type="curve" smooth="yes"/>
      <point x="302" y="41"/>
      <point x="234" y="-8"/>
      <point x="159" y="-8" type="curve" smooth="yes"/>
      <point x="94" y="-8"/>
      <point x="61" y="26"/>
      <point x="49" y="80" type="curve"/>
      <point x="55" y="83" type="line"/>
      <point x="68" y="30"/>
      <point x="97" y="-2"/>
      <point x="160" y="-2" type="curve" smooth="yes"/>
      <point x="232" y="-2"/>
      <point x="297" y="45"/>
      <point x="313" y="136" type="curve" smooth="yes"/>
      <point x="326" y="209"/>
      <point x="285" y="260"/>
      <point x="222" y="260" type="curve" smooth="yes"/>
      <point x="170" y="260"/>
      <point x="125" y="236"/>
      <point x="87" y="194" type="curve"/>
      <point x="101" y="213" type="line"/>
      <point x="124" y="240"/>
      <point x="170" y="266"/>
      <point x="223" y="266" type="curve" smooth="yes"/>
      <point x="289" y="266"/>
      <point x="333" y="213"/>
    </contour>
    <contour>
      <point x="185" y="412" type="line"/>
      <point x="101" y="213" type="line"/>
      <point x="87" y="194" type="line"/>
      <point x="182" y="418" type="line"/>
      <point x="380" y="418" type="line"/>
      <point x="379" y="412" type="line"/>
    </contour>
  </outline>
</glyph>
<glyph name="uni2086" format="1">
  <advance width="332"/>
  <unicode hex="2086"/>
  <outline>
    <contour>
      <point x="69" y="130" type="curve" smooth="yes"/>
      <point x="56" y="54"/>
      <point x="96" y="-2"/>
      <point x="171" y="-2" type="curve" smooth="yes"/>
      <point x="246" y="-2"/>
      <point x="306" y="54"/>
      <point x="319" y="130" type="curve" smooth="yes"/>
      <point x="331" y="200"/>
      <point x="286" y="254"/>
      <point x="223" y="254" type="curve" smooth="yes"/>
      <point x="139" y="254"/>
      <point x="80" y="194"/>
    </contour>
    <contour>
      <point x="282" y="418" type="line"/>
      <point x="290" y="418" type="line"/>
      <point x="107" y="211" type="line"/>
      <point x="107" y="211" type="line"/>
      <point x="137" y="242"/>
      <point x="179" y="260"/>
      <point x="224" y="260" type="curve" smooth="yes"/>
      <point x="292" y="260"/>
      <point x="338" y="201"/>
      <point x="325" y="130" type="curve" smooth="yes"/>
      <point x="311" y="50"/>
      <point x="251" y="-8"/>
      <point x="170" y="-8" type="curve" smooth="yes"/>
      <point x="89" y="-8"/>
      <point x="49" y="50"/>
      <point x="63" y="130" type="curve" smooth="yes"/>
      <point x="69" y="164"/>
      <point x="94" y="203"/>
      <point x="114" y="225" type="curve" smooth="yes"/>
    </contour>
  </outline>
</glyph>
<glyph name="uni2089" format="1">
  <advance width="332"/>
  <unicode hex="2089"/>
  <outline>
    <contour>
      <point x="337" y="290" type="curve" smooth="yes"/>
      <point x="350" y="366"/>
      <point x="310" y="422"/>
      <point x="235" y="422" type="curve" smooth="yes"/>
      <point x="160" y="422"/>
      <point x="100" y="366"/>
      <point x="87" y="290" type="curve" smooth="yes"/>
      <point x="75" y="220"/>
      <point x="121" y="166"/>
      <point x="184" y="166" type="curve" smooth="yes"/>
      <point x="268" y="166"/>
      <point x="326" y="226"/>
    </contour>
    <contour>
      <point x="124" y="2" type="line"/>
      <point x="117" y="2" type="line"/>
      <point x="299" y="209" type="line"/>
      <point x="299" y="209" type="line"/>
      <point x="269" y="178"/>
      <point x="228" y="160"/>
      <point x="183" y="160" type="curve" smooth="yes"/>
      <point x="115" y="160"/>
      <point x="68" y="219"/>
      <point x="81" y="290" type="curve" smooth="yes"/>
      <point x="95" y="370"/>
      <point x="155" y="428"/>
      <point x="236" y="428" type="curve" smooth="yes"/>
      <point x="317" y="428"/>
      <point x="357" y="370"/>
      <point x="343" y="290" type="curve" smooth="yes"/>
      <point x="337" y="256"/>
      <point x="312" y="217"/>
      <point x="292" y="195" type="curve" smooth="yes"/>
    </contour>
  </outline>
</glyph>
<glyph name="Euro" format="1">
  <advance width="700"/>
  <unicode hex="20AC"/>
  <outline>
    <contour>
      <point x="153" y="445" type="line"/>
      <point x="155" y="455" type="line"/>
      <point x="656" y="455" type="line"/>
      <point x="654" y="445" type="line"/>
    </contour>
    <contour>
      <point x="132" y="325" type="line"/>
      <point x="134" y="335" type="line"/>
      <point x="609" y="335" type="line"/>
      <point x="607" y="325" type="line"/>
    </contour>
    <contour>
      <point x="222" y="350" type="curve" smooth="yes"/>
      <point x="186" y="145"/>
      <point x="270" y="0"/>
      <point x="430" y="0" type="curve" smooth="yes"/>
      <point x="487" y="0"/>
      <point x="542" y="16"/>
      <point x="588" y="46" type="curve"/>
      <point x="585" y="31" type="line"/>
      <point x="535" y="5"/>
      <point x="482" y="-10"/>
      <point x="428" y="-10" type="curve" smooth="yes"/>
      <point x="254" y="-10"/>
      <point x="175" y="141"/>
      <point x="212" y="350" type="curve" smooth="yes"/>
      <point x="249" y="559"/>
      <point x="381" y="710"/>
      <point x="555" y="710" type="curve" smooth="yes"/>
      <point x="609" y="710"/>
      <point x="658" y="695"/>
      <point x="698" y="669" type="curve"/>
      <point x="695" y="654" type="line"/>
      <point x="659" y="684"/>
      <point x="610" y="700"/>
      <point x="553" y="700" type="curve" smooth="yes"/>
      <point x="383" y="700"/>
      <point x="258" y="555"/>
    </contour>
  </outline>
</glyph>
<glyph name="trademark" format="1">
  <advance width="665"/>
  <unicode hex="2122"/>
  <outline>
    <contour>
      <point x="160" y="694" type="line"/>
      <point x="161" y="700" type="line"/>
      <point x="357" y="700" type="line"/>
      <point x="356" y="694" type="line"/>
      <point x="260" y="694" type="line"/>
      <point x="200" y="350" type="line"/>
      <point x="195" y="350" type="line"/>
      <point x="255" y="694" type="line"/>
    </contour>
    <contour>
      <point x="713" y="688" type="line"/>
      <point x="721" y="708" type="line"/>
      <point x="695" y="350" type="line"/>
      <point x="690" y="350" type="line"/>
    </contour>
    <contour>
      <point x="441" y="708" type="line"/>
      <point x="440" y="688" type="line"/>
      <point x="346" y="350" type="line"/>
      <point x="340" y="350" type="line"/>
    </contour>
    <contour>
      <point x="721" y="708" type="line"/>
      <point x="713" y="688" type="line"/>
      <point x="527" y="402" type="line"/>
      <point x="440" y="688" type="line"/>
      <point x="441" y="708" type="line"/>
      <point x="529" y="415" type="line"/>
    </contour>
  </outline>
</glyph>
<glyph name="uni2150" format="1">
  <advance width="842"/>
  <unicode hex="2150"/>
  <outline>
    <contour>
      <point x="744" y="700" type="line"/>
      <point x="756" y="700" type="line"/>
      <point x="60" y="0" type="line"/>
      <point x="48" y="0" type="line"/>
    </contour>
    <contour>
      <point x="138" y="666" type="line"/>
      <point x="140" y="673" type="line"/>
      <point x="252" y="697" type="line"/>
      <point x="177" y="274" type="line"/>
      <point x="171" y="274" type="line"/>
      <point x="244" y="689" type="line"/>
    </contour>
    <contour>
      <point x="596" y="414" type="line"/>
      <point x="597" y="420" type="line"/>
      <point x="879" y="420" type="line"/>
      <point x="583" y="0" type="line"/>
      <point x="576" y="0" type="line"/>
      <point x="868" y="414" type="line"/>
    </contour>
  </outline>
</glyph>
<glyph name="uni2151" format="1">
  <advance width="784"/>
  <unicode hex="2151"/>
  <outline>
    <contour>
      <point x="744" y="700" type="line"/>
      <point x="756" y="700" type="line"/>
      <point x="60" y="0" type="line"/>
      <point x="48" y="0" type="line"/>
    </contour>
    <contour>
      <point x="138" y="666" type="line"/>
      <point x="140" y="673" type="line"/>
      <point x="252" y="697" type="line"/>
      <point x="177" y="274" type="line"/>
      <point x="171" y="274" type="line"/>
      <point x="244" y="689" type="line"/>
    </contour>
    <contour>
      <point x="775" y="290" type="curve" smooth="yes"/>
      <point x="788" y="366"/>
      <point x="748" y="422"/>
      <point x="673" y="422" type="curve" smooth="yes"/>
      <point x="598" y="422"/>
      <point x="538" y="366"/>
      <point x="525" y="290" type="curve" smooth="yes"/>
      <point x="513" y="220"/>
      <point x="559" y="166"/>
      <point x="622" y="166" type="curve" smooth="yes"/>
      <point x="706" y="166"/>
      <point x="764" y="226"/>
    </contour>
    <contour>
      <point x="562" y="2" type="line"/>
      <point x="555" y="2" type="line"/>
      <point x="737" y="209" type="line"/>
      <point x="737" y="209" type="line"/>
      <point x="707" y="178"/>
      <point x="666" y="160"/>
      <point x="621" y="160" type="curve" smooth="yes"/>
      <point x="553" y="160"/>
      <point x="506" y="219"/>
      <point x="519" y="290" type="curve" smooth="yes"/>
      <point x="533" y="370"/>
      <point x="593" y="428"/>
      <point x="674" y="428" type="curve" smooth="yes"/>
      <point x="755" y="428"/>
      <point x="795" y="370"/>
      <point x="781" y="290" type="curve" smooth="yes"/>
      <point x="775" y="256"/>
      <point x="750" y="217"/>
      <point x="730" y="195" type="curve" smooth="yes"/>
    </contour>
  </outline>
</glyph>
<glyph name="uni2152" format="1">
  <advance width="1080"/>
  <unicode hex="2152"/>
  <outline>
    <contour>
      <point x="744" y="700" type="line"/>
      <point x="756" y="700" type="line"/>
      <point x="60" y="0" type="line"/>
      <point x="48" y="0" type="line"/>
    </contour>
    <contour>
      <point x="138" y="666" type="line"/>
      <point x="140" y="673" type="line"/>
      <point x="252" y="697" type="line"/>
      <point x="177" y="274" type="line"/>
      <point x="171" y="274" type="line"/>
      <point x="244" y="689" type="line"/>
    </contour>
    <contour>
      <point x="502" y="393" type="line"/>
      <point x="504" y="400" type="line"/>
      <point x="616" y="424" type="line"/>
      <point x="541" y="1" type="line"/>
      <point x="535" y="1" type="line"/>
      <point x="608" y="416" type="line"/>
    </contour>
    <contour>
      <point x="787" y="210" type="curve" smooth="yes"/>
      <point x="767" y="98"/>
      <point x="796" y="0"/>
      <point x="875" y="0" type="curve" smooth="yes"/>
      <point x="954" y="0"/>
      <point x="1017" y="98"/>
      <point x="1037" y="210" type="curve" smooth="yes"/>
      <point x="1057" y="322"/>
      <point x="1028" y="420"/>
      <point x="949" y="420" type="curve" smooth="yes"/>
      <point x="870" y="420"/>
      <point x="807" y="322"/>
    </contour>
    <contour>
      <point x="780" y="210" type="curve" smooth="yes"/>
      <point x="801" y="329"/>
      <point x="867" y="426"/>
      <point x="950" y="426" type="curve" smooth="yes"/>
      <point x="1033" y="426"/>
      <point x="1065" y="329"/>
      <point x="1044" y="210" type="curve" smooth="yes"/>
      <point x="1023" y="91"/>
      <point x="957" y="-6"/>
      <point x="874" y="-6" type="curve" smooth="yes"/>
      <point x="791" y="-6"/>
      <point x="759" y="91"/>
    </contour>
  </outline>
</glyph>
<glyph name="uni2157" format="1">
  <advance width="831"/>
  <unicode hex="2157"/>
  <outline>
    <contour>
      <point x="831" y="700" type="line"/>
      <point x="843" y="700" type="line"/>
      <point x="147" y="0" type="line"/>
      <point x="135" y="0" type="line"/>
    </contour>
    <contour>
      <point x="233" y="497" type="curve"/>
      <point x="234" y="502" type="line"/>
      <point x="288" y="502"/>
      <point x="365" y="538"/>
      <point x="376" y="600" type="curve" smooth="yes"/>
      <point x="385" y="650"/>
      <point x="356" y="700"/>
      <point x="289" y="700" type="curve" smooth="yes"/>
      <point x="224" y="700"/>
      <point x="175" y="657"/>
      <point x="164" y="596" type="curve"/>
      <point x="158" y="596" type="line"/>
      <point x="169" y="661"/>
      <point x="221" y="706"/>
      <point x="290" y="706" type="curve" smooth="yes"/>
      <point x="362" y="706"/>
      <point x="391" y="653"/>
      <point x="382" y="600" type="curve" smooth="yes"/>
      <point x="371" y="535"/>
      <point x="296" y="497"/>
    </contour>
    <contour>
      <point x="211" y="274" type="curve" smooth="yes"/>
      <point x="130" y="274"/>
      <point x="93" y="326"/>
      <point x="104" y="391" type="curve"/>
      <point x="110" y="391" type="line"/>
      <point x="99" y="327"/>
      <point x="134" y="280"/>
      <point x="212" y="280" type="curve" smooth="yes"/>
      <point x="284" y="280"/>
      <point x="339" y="324"/>
      <point x="350" y="385" type="curve" smooth="yes"/>
      <point x="363" y="460"/>
      <point x="286" y="496"/>
      <point x="232" y="496" type="curve"/>
      <point x="233" y="501" type="line"/>
      <point x="296" y="501"/>
      <point x="370" y="462"/>
      <point x="356" y="385" type="curve" smooth="yes"/>
      <point x="345" y="320"/>
      <point x="286" y="274"/>
    </contour>
    <contour>
      <point x="794" y="136" type="curve" smooth="yes"/>
      <point x="777" y="41"/>
      <point x="709" y="-8"/>
      <point x="634" y="-8" type="curve" smooth="yes"/>
      <point x="569" y="-8"/>
      <point x="536" y="26"/>
      <point x="524" y="80" type="curve"/>
      <point x="530" y="83" type="line"/>
      <point x="543" y="30"/>
      <point x="572" y="-2"/>
      <point x="635" y="-2" type="curve" smooth="yes"/>
      <point x="707" y="-2"/>
      <point x="772" y="45"/>
      <point x="788" y="136" type="curve" smooth="yes"/>
      <point x="801" y="209"/>
      <point x="760" y="260"/>
      <point x="697" y="260" type="curve" smooth="yes"/>
      <point x="645" y="260"/>
      <point x="600" y="236"/>
      <point x="562" y="194" type="curve"/>
      <point x="576" y="213" type="line"/>
      <point x="599" y="240"/>
      <point x="645" y="266"/>
      <point x="698" y="266" type="curve" smooth="yes"/>
      <point x="764" y="266"/>
      <point x="808" y="213"/>
    </contour>
    <contour>
      <point x="660" y="412" type="line"/>
      <point x="576" y="213" type="line"/>
      <point x="562" y="194" type="line"/>
      <point x="657" y="418" type="line"/>
      <point x="855" y="418" type="line"/>
      <point x="854" y="412" type="line"/>
    </contour>
  </outline>
</glyph>
<glyph name="uni2159" format="1">
  <advance width="734"/>
  <unicode hex="2159"/>
  <outline>
    <contour>
      <point x="744" y="700" type="line"/>
      <point x="756" y="700" type="line"/>
      <point x="60" y="0" type="line"/>
      <point x="48" y="0" type="line"/>
    </contour>
    <contour>
      <point x="138" y="666" type="line"/>
      <point x="140" y="673" type="line"/>
      <point x="252" y="697" type="line"/>
      <point x="177" y="274" type="line"/>
      <point x="171" y="274" type="line"/>
      <point x="244" y="689" type="line"/>
    </contour>
    <contour>
      <point x="457" y="130" type="curve" smooth="yes"/>
      <point x="444" y="54"/>
      <point x="484" y="-2"/>
      <point x="559" y="-2" type="curve" smooth="yes"/>
      <point x="634" y="-2"/>
      <point x="694" y="54"/>
      <point x="707" y="130" type="curve" smooth="yes"/>
      <point x="719" y="200"/>
      <point x="674" y="254"/>
      <point x="611" y="254" type="curve" smooth="yes"/>
      <point x="527" y="254"/>
      <point x="468" y="194"/>
    </contour>
    <contour>
      <point x="670" y="418" type="line"/>
      <point x="678" y="418" type="line"/>
      <point x="495" y="211" type="line"/>
      <point x="495" y="211" type="line"/>
      <point x="525" y="242"/>
      <point x="567" y="260"/>
      <point x="612" y="260" type="curve" smooth="yes"/>
      <point x="680" y="260"/>
      <point x="726" y="201"/>
      <point x="713" y="130" type="curve" smooth="yes"/>
      <point x="699" y="50"/>
      <point x="639" y="-8"/>
      <point x="558" y="-8" type="curve" smooth="yes"/>
      <point x="477" y="-8"/>
      <point x="437" y="50"/>
      <point x="451" y="130" type="curve" smooth="yes"/>
      <point x="457" y="164"/>
      <point x="482" y="203"/>
      <point x="502" y="225" type="curve" smooth="yes"/>
    </contour>
  </outline>
</glyph>
<glyph name="uni215A" format="1">
  <advance width="856"/>
  <unicode hex="215A"/>
  <outline>
    <contour>
      <point x="866" y="700" type="line"/>
      <point x="878" y="700" type="line"/>
      <point x="182" y="0" type="line"/>
      <point x="170" y="0" type="line"/>
    </contour>
    <contour>
      <point x="368" y="416" type="curve" smooth="yes"/>
      <point x="351" y="321"/>
      <point x="283" y="272"/>
      <point x="208" y="272" type="curve" smooth="yes"/>
      <point x="143" y="272"/>
      <point x="110" y="306"/>
      <point x="98" y="360" type="curve"/>
      <point x="104" y="363" type="line"/>
      <point x="117" y="310"/>
      <point x="146" y="278"/>
      <point x="209" y="278" type="curve" smooth="yes"/>
      <point x="281" y="278"/>
      <point x="346" y="325"/>
      <point x="362" y="416" type="curve" smooth="yes"/>
      <point x="375" y="489"/>
      <point x="334" y="540"/>
      <point x="271" y="540" type="curve" smooth="yes"/>
      <point x="219" y="540"/>
      <point x="175" y="516"/>
      <point x="137" y="474" type="curve"/>
      <point x="150" y="493" type="line"/>
      <point x="173" y="520"/>
      <point x="219" y="546"/>
      <point x="272" y="546" type="curve" smooth="yes"/>
      <point x="338" y="546"/>
      <point x="382" y="493"/>
    </contour>
    <contour>
      <point x="234" y="692" type="line"/>
      <point x="150" y="493" type="line"/>
      <point x="137" y="474" type="line"/>
      <point x="231" y="698" type="line"/>
      <point x="429" y="698" type="line"/>
      <point x="428" y="692" type="line"/>
    </contour>
    <contour>
      <point x="579" y="130" type="curve" smooth="yes"/>
      <point x="566" y="54"/>
      <point x="606" y="-2"/>
      <point x="681" y="-2" type="curve" smooth="yes"/>
      <point x="756" y="-2"/>
      <point x="816" y="54"/>
      <point x="829" y="130" type="curve" smooth="yes"/>
      <point x="841" y="200"/>
      <point x="796" y="254"/>
      <point x="733" y="254" type="curve" smooth="yes"/>
      <point x="649" y="254"/>
      <point x="590" y="194"/>
    </contour>
    <contour>
      <point x="792" y="418" type="line"/>
      <point x="800" y="418" type="line"/>
      <point x="617" y="211" type="line"/>
      <point x="617" y="211" type="line"/>
      <point x="647" y="242"/>
      <point x="689" y="260"/>
      <point x="734" y="260" type="curve" smooth="yes"/>
      <point x="802" y="260"/>
      <point x="848" y="201"/>
      <point x="835" y="130" type="curve" smooth="yes"/>
      <point x="821" y="50"/>
      <point x="761" y="-8"/>
      <point x="680" y="-8" type="curve" smooth="yes"/>
      <point x="599" y="-8"/>
      <point x="559" y="50"/>
      <point x="573" y="130" type="curve" smooth="yes"/>
      <point x="579" y="164"/>
      <point x="604" y="203"/>
      <point x="624" y="225" type="curve" smooth="yes"/>
    </contour>
  </outline>
</glyph>
<glyph name="oneeighth" format="1">
  <advance width="760"/>
  <unicode hex="215B"/>
  <outline>
    <contour>
      <point x="744" y="700" type="line"/>
      <point x="756" y="700" type="line"/>
      <point x="60" y="0" type="line"/>
      <point x="48" y="0" type="line"/>
    </contour>
    <contour>
      <point x="138" y="666" type="line"/>
      <point x="140" y="673" type="line"/>
      <point x="252" y="697" type="line"/>
      <point x="177" y="274" type="line"/>
      <point x="171" y="274" type="line"/>
      <point x="244" y="689" type="line"/>
    </contour>
    <contour>
      <point x="542" y="325" type="curve" smooth="yes"/>
      <point x="551" y="378"/>
      <point x="604" y="426"/>
      <point x="664" y="426" type="curve" smooth="yes"/>
      <point x="724" y="426"/>
      <point x="759" y="378"/>
      <point x="750" y="325" type="curve" smooth="yes"/>
      <point x="740" y="266"/>
      <point x="679" y="221"/>
      <point x="628" y="221" type="curve" smooth="yes"/>
      <point x="577" y="221"/>
      <point x="532" y="266"/>
    </contour>
    <contour>
      <point x="548" y="325" type="curve" smooth="yes"/>
      <point x="538" y="267"/>
      <point x="587" y="225"/>
      <point x="629" y="225" type="curve" smooth="yes"/>
      <point x="671" y="225"/>
      <point x="734" y="267"/>
      <point x="744" y="325" type="curve" smooth="yes"/>
      <point x="753" y="377"/>
      <point x="720" y="420"/>
      <point x="663" y="420" type="curve" smooth="yes"/>
      <point x="606" y="420"/>
      <point x="557" y="377"/>
    </contour>
    <contour>
      <point x="493" y="111" type="curve" smooth="yes"/>
      <point x="504" y="176"/>
      <point x="568" y="223"/>
      <point x="628" y="223" type="curve" smooth="yes"/>
      <point x="688" y="223"/>
      <point x="736" y="176"/>
      <point x="725" y="111" type="curve" smooth="yes"/>
      <point x="714" y="46"/>
      <point x="663" y="-6"/>
      <point x="588" y="-6" type="curve" smooth="yes"/>
      <point x="513" y="-6"/>
      <point x="482" y="46"/>
    </contour>
    <contour>
      <point x="499" y="111" type="curve" smooth="yes"/>
      <point x="488" y="47"/>
      <point x="520" y="0"/>
      <point x="589" y="0" type="curve" smooth="yes"/>
      <point x="658" y="0"/>
      <point x="708" y="47"/>
      <point x="719" y="111" type="curve" smooth="yes"/>
      <point x="730" y="175"/>
      <point x="682" y="219"/>
      <point x="628" y="219" type="curve" smooth="yes"/>
      <point x="574" y="219"/>
      <point x="510" y="175"/>
    </contour>
  </outline>
</glyph>
<glyph name="seveneighths" format="1">
  <advance width="772"/>
  <unicode hex="215E"/>
  <outline>
    <contour>
      <point x="756" y="700" type="line"/>
      <point x="768" y="700" type="line"/>
      <point x="72" y="0" type="line"/>
      <point x="60" y="0" type="line"/>
    </contour>
    <contour>
      <point x="157" y="694" type="line"/>
      <point x="158" y="700" type="line"/>
      <point x="440" y="700" type="line"/>
      <point x="144" y="280" type="line"/>
      <point x="137" y="280" type="line"/>
      <point x="429" y="694" type="line"/>
    </contour>
    <contour>
      <point x="554" y="325" type="curve" smooth="yes"/>
      <point x="563" y="378"/>
      <point x="616" y="426"/>
      <point x="676" y="426" type="curve" smooth="yes"/>
      <point x="736" y="426"/>
      <point x="771" y="378"/>
      <point x="762" y="325" type="curve" smooth="yes"/>
      <point x="752" y="266"/>
      <point x="691" y="221"/>
      <point x="640" y="221" type="curve" smooth="yes"/>
      <point x="589" y="221"/>
      <point x="544" y="266"/>
    </contour>
    <contour>
      <point x="560" y="325" type="curve" smooth="yes"/>
      <point x="550" y="267"/>
      <point x="599" y="225"/>
      <point x="641" y="225" type="curve" smooth="yes"/>
      <point x="683" y="225"/>
      <point x="746" y="267"/>
      <point x="756" y="325" type="curve" smooth="yes"/>
      <point x="765" y="377"/>
      <point x="732" y="420"/>
      <point x="675" y="420" type="curve" smooth="yes"/>
      <point x="618" y="420"/>
      <point x="569" y="377"/>
    </contour>
    <contour>
      <point x="505" y="111" type="curve" smooth="yes"/>
      <point x="516" y="176"/>
      <point x="580" y="223"/>
      <point x="640" y="223" type="curve" smooth="yes"/>
      <point x="700" y="223"/>
      <point x="748" y="176"/>
      <point x="737" y="111" type="curve" smooth="yes"/>
      <point x="726" y="46"/>
      <point x="675" y="-6"/>
      <point x="600" y="-6" type="curve" smooth="yes"/>
      <point x="525" y="-6"/>
      <point x="494" y="46"/>
    </contour>
    <contour>
      <point x="511" y="111" type="curve" smooth="yes"/>
      <point x="500" y="47"/>
      <point x="532" y="0"/>
      <point x="601" y="0" type="curve" smooth="yes"/>
      <point x="670" y="0"/>
      <point x="720" y="47"/>
      <point x="731" y="111" type="curve" smooth="yes"/>
      <point x="742" y="175"/>
      <point x="694" y="219"/>
      <point x="640" y="219" type="curve" smooth="yes"/>
      <point x="586" y="219"/>
      <point x="522" y="175"/>
    </contour>
  </outline>
</glyph>
<glyph name="uni2219" format="1">
  <advance width="260"/>
  <unicode hex="2219"/>
  <outline>
    <contour>
      <point x="198" y="449" type="curve" smooth="yes"/>
      <point x="199" y="456"/>
      <point x="205" y="460"/>
      <point x="211" y="460" type="curve" smooth="yes"/>
      <point x="217" y="460"/>
      <point x="221" y="456"/>
      <point x="220" y="449" type="curve" smooth="yes"/>
      <point x="219" y="442"/>
      <point x="213" y="438"/>
      <point x="207" y="438" type="curve" smooth="yes"/>
      <point x="201" y="438"/>
      <point x="197" y="442"/>
    </contour>
  </outline>
</glyph>
<glyph name="uniFF11" format="1">
  <advance width="550"/>
  <unicode hex="FF11"/>
  <outline>
    <contour>
      <point x="280" y="654" type="line"/>
      <point x="282" y="665" type="line"/>
      <point x="469" y="705" type="line"/>
      <point x="345" y="0" type="line"/>
      <point x="335" y="0" type="line"/>
      <point x="457" y="691" type="line"/>
    </contour>
  </outline>
</glyph>
<glyph name="uniFF12" format="1">
  <advance width="550"/>
  <unicode hex="FF12"/>
  <outline>
    <contour>
      <point x="43" y="0" type="line"/>
      <point x="422" y="334" type="line" smooth="yes"/>
      <point x="480" y="385"/>
      <point x="535" y="435"/>
      <point x="550" y="519" type="curve" smooth="yes"/>
      <point x="564" y="598"/>
      <point x="534" y="701"/>
      <point x="404" y="701" type="curve" smooth="yes"/>
      <point x="284" y="701"/>
      <point x="189" y="601"/>
      <point x="164" y="460" type="curve"/>
      <point x="154" y="460" type="line"/>
      <point x="180" y="609"/>
      <point x="280" y="711"/>
      <point x="405" y="711" type="curve" smooth="yes"/>
      <point x="539" y="711"/>
      <point x="576" y="603"/>
      <point x="561" y="519" type="curve" smooth="yes"/>
      <point x="547" y="437"/>
      <point x="489" y="380"/>
      <point x="430" y="328" type="curve" smooth="yes"/>
      <point x="70" y="10" type="line"/>
      <point x="499" y="10" type="line"/>
      <point x="497" y="0" type="line"/>
    </contour>
  </outline>
</glyph>
